<?xml version="1.0" encoding="utf-8"?>
<!-- Generator: Adobe Illustrator 18.1.1, SVG Export Plug-In . SVG Version: 6.00 Build 0)  -->
<svg version="1.1" id="Layer_1" xmlns="http://www.w3.org/2000/svg" xmlns:xlink="http://www.w3.org/1999/xlink" x="0px" y="0px"
	 viewBox="0 0 158.3 94.2" enable-background="new 0 0 158.3 94.2" xml:space="preserve">
<path fill="#17468F" d="M153.2,0l5.1,2.3c-0.1,0.2-11,23.8-33.8,45.4c-21.1,20-57,40.8-108,35.9c-0.5-0.1-1-0.4-1.1-0.9
	c-0.2-0.5,0-1.1,0.4-1.4l13.4-7.6L4.8,83.2c4.6,1.3,14.1,1.3,33.7,7.1l-3.8,3.9C11.8,85.4,1.1,85,1,85c-0.5-0.1-0.9-0.6-1-1.1
	c-0.1-0.5,0.2-1.1,0.7-1.4l38-17.2c0.6-0.4,1.4-0.2,1.8,0.3c0.4,0.6,0.4,1.3-0.1,1.8L19.8,81.3c48.4,5.3,82.5-16.2,102.8-35.4
	C145,24.6,153.1,0.2,153.2,0z"/>
</svg>
