<?xml version="1.0" encoding="utf-8"?>
<!-- Generator: Adobe Illustrator 18.1.1, SVG Export Plug-In . SVG Version: 6.00 Build 0)  -->
<svg version="1.1" id="Layer_1" xmlns="http://www.w3.org/2000/svg" xmlns:xlink="http://www.w3.org/1999/xlink" x="0px" y="0px"
	 viewBox="0 0 547.2 151.1" enable-background="new 0 0 547.2 151.1" xml:space="preserve">
<g>
	<path fill="#F6C712" d="M498.6,76.3c20.7-3,26.1-5.8,46.4-5.8c-19.2-10.3-48.2-11.8-106.5-0.6c-45.1,8.7-64.1,1.6-64.1,1.6
		c-77.3-17.5-154.7,17.5-232,0c0,13.3,0,26.6,0,39.9c77.3,17.5,154.7-17.5,232,0c1.6,0.3,29.5,6.3,69.9-4.4
		c40.4-10.7,72.9-21.1,102.8-18C526.9,77.5,526.1,76.3,498.6,76.3z"/>
	<polyline fill="none" stroke="#5E3400" stroke-width="2.0356" stroke-miterlimit="10" points="142.2,72.7 98.8,90.9 142.2,111.2 	
		"/>
	<rect x="140" y="69.6" fill="#714417" width="4.7" height="45"/>
	<ellipse fill="#FFFDEE" cx="142.2" cy="69.5" rx="3.3" ry="3.2"/>
	<ellipse fill="#FFFDEE" cx="142.2" cy="114.4" rx="3.3" ry="3.2"/>
	<line fill="none" stroke="#5E3400" stroke-width="2.0356" stroke-miterlimit="10" x1="39.6" y1="90.9" x2="99.1" y2="90.9"/>
</g>
<g>
	<g>
		<path fill="#FFFFFF" d="M159.6,85l9.1,1.3l-0.5,3.3l-3.5,7.8l0,0l-2.5,6.6l-5.4-0.7l2.5-6.7l3.1-6.7l-9-1.2l1.1-7.8l5.4,0.7
			L159.6,85z"/>
		<path fill="#FFFFFF" d="M175.7,86.4c1.7,0.1,3.1,0.3,4,0.7c1.1,0.4,1.8,0.9,2.3,1.5c0.5,0.7,0.8,1.4,1,2.2
			c0.1,0.8,0.2,1.7,0.1,2.8l-0.4,7.6l2,0.1l-0.2,4.2l-15.4-0.9l0.2-4.2l7.9,0.4l0.4-7.4c0.1-1.8-0.8-2.8-2.6-2.9
			c-1.2-0.1-2.6-0.1-4.2,0l-0.9,0l0.2-4.2C171.2,86.3,173.1,86.2,175.7,86.4z"/>
		<path fill="#FFFFFF" d="M190.7,104.8c-0.3,0.3-0.7,0.5-1.2,0.7c-0.5,0.2-1,0.3-1.5,0.3c-0.5,0-1.1-0.1-1.8-0.3l0.5-4.9
			c0.6,0.1,1.2,0.2,1.8,0.2c1,0,1.9-0.3,2.6-0.8c0.7-0.5,1-1.3,1-2.4l0-4.7c0-1.2-0.4-1.8-1.2-1.8c-0.8,0-1.7,0.1-2.4,0.3l-0.4,0.1
			l0-4.3c1.2-0.3,2.3-0.5,3.4-0.5s2,0.1,2.7,0.3c0.7,0.2,1.3,0.5,1.7,0.8c0.4,0.3,0.8,0.8,1,1.3c0.2,0.5,0.4,1.1,0.5,1.6
			s0.1,1.2,0.1,1.9l0,12.8l-4.1,0l-0.9-2.6l-0.2,0c-0.1,0.2-0.3,0.5-0.6,0.9C191.4,104.2,191,104.5,190.7,104.8z"/>
		<path fill="#FFFFFF" d="M207.3,105.1l-5.5,0.2L201.1,87l5.5-0.2L207.3,105.1z"/>
		<path fill="#FFFFFF" d="M214.6,86.3c0.4,0.5,0.6,1.1,0.8,1.8l0.2,0c0.1-0.2,0.4-0.5,0.8-0.8s0.7-0.6,1.1-0.8
			c0.3-0.2,0.8-0.4,1.4-0.6s1.2-0.3,2-0.4s1.5,0,2.3,0.2c0.7,0.2,1.3,0.6,1.8,1c0.5,0.4,0.9,1,1.2,1.7c0.6,1.2,1,2.9,1.1,4.9
			l0.8,10.3l-8.8,0.7l-0.3-4.2l3.3-0.2l-0.5-6.1c-0.1-1-0.2-1.7-0.3-2.1c-0.1-0.4-0.3-0.8-0.5-1c-0.4-0.5-1-0.7-1.8-0.6
			c-0.3,0-0.6,0.1-0.9,0.3c-0.3,0.2-0.5,0.3-0.7,0.5c-0.4,0.4-0.7,0.8-0.8,1.1l-0.1,0.2l-0.1,12.4l-5.4,0.4l0.2-11.6
			c0-0.7,0-1.3,0-1.9c-0.1-1.6-0.5-3.2-1.3-4.8L214.6,86.3z"/>
		<path fill="#FFFFFF" d="M251.8,83.8c0.4,0.3,0.8,0.6,1,0.9c0.3,0.3,0.5,0.7,0.7,1.2c0.3,0.8,0.6,1.8,0.7,3.1l1.3,11.8l-5.5,0.6
			l-1.3-11.6c-0.2-1.8-1.2-2.6-3.1-2.4c-0.5,0.1-0.8,0.1-1,0.1l1,8.7c0.1,0.7,0.1,1.3,0.1,1.9c0,0.6-0.2,1.1-0.4,1.7s-0.5,1-0.9,1.4
			c-0.9,0.8-2.2,1.4-4,1.6c-0.4,0-0.8,0-1.3,0c-0.4-0.1-0.8-0.1-1-0.2l-0.4-0.1l-0.4-3.9c0.7,0.1,1.3,0.1,1.8,0
			c0.5-0.1,0.8-0.2,0.9-0.5s0.2-0.6,0.1-1.2l-0.9-8.4l-1.9,0.4l-0.5-4.2c3.1-0.7,6.1-1.2,8.8-1.5C248.6,82.8,250.6,83.1,251.8,83.8z
			"/>
		<path fill="#FFFFFF" d="M264.7,99.7l-5.5,0.6l-2.1-18.2l5.5-0.6L264.7,99.7z"/>
		<path fill="#FFFFFF" d="M270.9,80.6c0.4,0.5,0.7,1.1,0.8,1.8l0.2,0c0.1-0.2,0.4-0.5,0.7-0.8c0.3-0.3,0.7-0.6,1-0.8
			c0.3-0.2,0.8-0.4,1.4-0.7c0.6-0.2,1.2-0.4,2-0.4c0.8-0.1,1.5,0,2.3,0.2s1.4,0.5,1.9,0.9c0.5,0.4,0.9,1,1.3,1.7
			c0.6,1.2,1.1,2.8,1.3,4.9l1.1,10.3l-8.8,0.9l-0.4-4.2l3.3-0.3l-0.6-6.1c-0.1-1-0.2-1.7-0.4-2.1c-0.2-0.4-0.3-0.8-0.5-1
			c-0.4-0.5-1-0.7-1.8-0.6c-0.3,0-0.6,0.1-0.9,0.3c-0.3,0.2-0.5,0.3-0.7,0.6c-0.4,0.5-0.7,0.8-0.8,1.1l-0.1,0.2l0.2,12.4l-5.4,0.6
			l-0.2-11.6c0-0.7,0-1.3-0.1-1.9c-0.2-1.6-0.6-3.2-1.4-4.8L270.9,80.6z"/>
		<path fill="#FFFFFF" d="M293.9,96.8l-5.5,0.5L286.9,79l5.5-0.5L293.9,96.8z"/>
		<path fill="#FFFFFF" d="M310.3,94.8l0,0.9l-5.4,0.3l0-0.9c0-0.7,0-1.8,0.2-3.1c0.2-1.3,0.4-2.5,0.7-3.5l2.1-6.8l-11.1,0.6
			l-0.2-4.2l17.1-1l0.2,3.2l-2.5,8C310.6,90.8,310.2,93,310.3,94.8z M303.5,103.1l-5.5,0.3l-1-18l5.5-0.3L303.5,103.1z"/>
		<path fill="#FFFFFF" d="M321.3,77c0.3,0.6,0.5,1.2,0.6,1.9l0.2,0c0.2-0.2,0.4-0.4,0.8-0.7c0.4-0.3,0.7-0.5,1.1-0.7
			c0.4-0.2,0.8-0.4,1.4-0.5c0.6-0.2,1.3-0.2,2-0.2c0.8,0,1.5,0.1,2.2,0.4c0.7,0.3,1.3,0.7,1.8,1.1c0.5,0.5,0.8,1.1,1.1,1.8
			c0.5,1.3,0.8,2.9,0.8,5l0,10.3l-8.9,0l0-4.2l3.3,0l0-6.1c0-1-0.1-1.7-0.2-2.2c-0.1-0.5-0.2-0.8-0.4-1c-0.4-0.5-0.9-0.8-1.7-0.8
			c-0.3,0-0.7,0.1-1,0.2c-0.3,0.1-0.6,0.3-0.8,0.5c-0.5,0.4-0.8,0.7-0.9,1l-0.1,0.2l-1.1,12.4l-5.4,0l1.1-11.6
			c0.1-0.7,0.1-1.3,0.1-1.9c0-1.6-0.3-3.2-0.9-4.9L321.3,77z"/>
		<path fill="#FFFFFF" d="M344.8,77.6c1.9,0,3.6,0.1,5.1,0.2c1.5,0.1,2.6,0.3,3.4,0.6s1.5,0.5,2,0.9c0.5,0.4,1,0.7,1.3,1.2
			s0.6,0.9,0.7,1.5s0.2,1.2,0.2,1.7c0,0.6,0,1.2-0.1,2l-1.2,11.6l-5.5-0.5l1.2-11.6c0.2-1.8-0.7-2.8-2.5-3c-1.4-0.1-3.1-0.2-5.1-0.2
			L344.8,77.6z"/>
		<path fill="#FFFFFF" d="M361.1,85.6c0.2-1,0.5-1.8,1-2.5c0.5-0.7,1-1.3,1.6-1.6c0.6-0.4,1.3-0.7,2.1-0.8c1.4-0.3,2.9-0.4,4.5-0.1
			c1.9,0.3,3.3,1,4.4,2.1c0.4,0.4,0.8,0.8,1.1,1.4c0.3,0.6,0.6,1.2,0.7,1.9c0.4,1.5,0.4,3.3,0,5.4c-0.3,1.5-0.7,2.8-1.2,3.9
			s-1,1.9-1.6,2.5c-0.6,0.6-1.3,1-2.1,1.3c-0.8,0.3-1.5,0.4-2.3,0.4s-1.6-0.1-2.7-0.3s-2.1-0.4-3.1-0.7c-1-0.3-1.8-0.5-2.3-0.6
			l-0.7-0.2l0.8-4.1c2.1,0.6,4.2,1.1,6.3,1.5c0.9,0.2,1.7-0.1,2.2-0.9c0.3-0.5,0.5-1,0.7-1.5s0.2-0.9,0.3-1.2
			c0.1-0.3,0.1-0.6,0.2-1.1c0.1-0.4,0.1-0.8,0.2-1.1s0.1-0.6,0.1-1c0-0.4,0-0.7,0-1c0-0.3-0.1-0.5-0.1-0.8s-0.2-0.5-0.3-0.7
			c-0.3-0.4-0.8-0.7-1.3-0.8c-0.5-0.1-1-0.1-1.3,0c-0.4,0.1-0.6,0.2-0.8,0.3c-0.2,0.1-0.3,0.3-0.5,0.5c-0.2,0.3-0.3,0.6-0.4,0.9
			c-0.1,0.3-0.1,0.7,0,1s0.2,0.6,0.4,0.7c0.3,0.3,0.6,0.5,0.9,0.7l1.1,0.4l-1.6,3.7l-1.3-0.3C362.1,91.8,360.4,89.4,361.1,85.6z"/>
		<path fill="#FFFFFF" d="M380.3,83.3c2.7,0.1,5.3,0.2,7.8,0.5s4.4,1.3,5.7,3.1c1.2,1.8,1.7,4.2,1.4,7.1s-1.3,5.2-2.9,6.7
			c-1.6,1.5-3.7,2.1-6.2,1.9c-2.5-0.3-4.4-1.3-5.6-3.1c-1.2-1.8-1.7-4.2-1.4-7.1c0.2-2,0.9-3.6,2.2-4.7l-1.5-0.1L380.3,83.3z
			 M384.7,92.9c-0.2,1.7-0.1,3,0.2,3.9s0.9,1.3,1.7,1.4s1.5-0.3,2-1s0.8-2,1-3.8c0.2-1.7,0.1-3-0.2-3.9c-0.3-0.9-0.9-1.4-1.7-1.5
			l-1.1-0.1C385.6,89.2,384.9,90.8,384.7,92.9z"/>
		<path fill="#FFFFFF" d="M402.9,84.7c0.4,0.5,0.6,1.2,0.7,1.8l0.2,0c0.2-0.2,0.4-0.4,0.8-0.7c0.4-0.3,0.7-0.5,1.1-0.7
			s0.8-0.4,1.4-0.6c0.6-0.2,1.3-0.3,2-0.3s1.5,0.1,2.3,0.3c0.7,0.3,1.3,0.6,1.8,1.1c0.5,0.5,0.9,1,1.2,1.7c0.6,1.3,0.9,2.9,0.9,4.9
			l0.4,10.3l-8.9,0.4l-0.2-4.2l3.3-0.1l-0.2-6.1c0-1-0.1-1.7-0.2-2.2c-0.1-0.4-0.3-0.8-0.4-1c-0.4-0.5-1-0.7-1.7-0.7
			c-0.3,0-0.6,0.1-1,0.2c-0.3,0.1-0.6,0.3-0.8,0.5c-0.4,0.4-0.7,0.8-0.9,1.1l-0.1,0.2l-0.6,12.4l-5.4,0.2l0.6-11.6
			c0-0.7,0-1.3,0-1.9c-0.1-1.6-0.4-3.2-1.1-4.8L402.9,84.7z"/>
		<path fill="#FFFFFF" d="M434,99.7l-5.4,1l-3.3-18l5.4-1L434,99.7z"/>
		<path fill="#FFFFFF" d="M432.9,81.3c1.8-0.7,3.4-1.2,4.9-1.6c1.4-0.4,2.6-0.6,3.4-0.7s1.6,0,2.2,0.1s1.2,0.4,1.6,0.6
			s0.8,0.7,1.2,1.2c0.3,0.5,0.6,1,0.8,1.5c0.2,0.5,0.4,1.2,0.6,1.9l2.9,11.3l-5.3,1.4l-2.9-11.3c-0.5-1.8-1.6-2.4-3.4-2
			c-1.4,0.3-3,0.9-4.9,1.6L432.9,81.3z"/>
		<path fill="#FFFFFF" d="M464.6,74.8c0.4,0.2,0.8,0.5,1.1,0.8c0.3,0.3,0.6,0.7,0.8,1.1c0.4,0.8,0.7,1.8,1,3l2.5,11.6l-5.4,1.2
			l-2.5-11.4c-0.4-1.8-1.5-2.5-3.3-2.1c-0.5,0.1-0.8,0.2-1,0.2l1.8,8.6c0.1,0.7,0.2,1.3,0.3,1.9c0,0.6,0,1.1-0.2,1.7s-0.4,1-0.8,1.5
			c-0.8,0.9-2,1.6-3.8,2c-0.4,0.1-0.8,0.1-1.3,0.1c-0.4,0-0.8,0-1-0.1l-0.4-0.1l-0.8-3.9c0.7,0,1.3-0.1,1.8-0.2
			c0.5-0.1,0.8-0.3,0.9-0.5c0.1-0.3,0.1-0.7,0-1.2l-1.8-8.2l-1.9,0.6l-0.9-4.1c3-1,5.9-1.8,8.6-2.4
			C461.3,74.1,463.3,74.2,464.6,74.8z"/>
		<path fill="#FFFFFF" d="M479,89.8l-5.4,0.9l-3-18.1l5.4-0.9L479,89.8z"/>
		<path fill="#FFFFFF" d="M480.2,71c0.7-0.2,1.7-0.4,2.8-0.6c1.2-0.1,2.1-0.2,2.8,0c0.7,0.1,1.3,0.3,1.8,0.6
			c0.5,0.3,0.9,0.7,1.2,1.2s0.6,1,0.8,1.6s0.3,1.2,0.4,1.9l0.9,6.7c0.1,0.9,0.2,1.8,0.2,2.8s0,1.7,0,2.2l-0.1,0.8l-9.2,1.2l-0.5-4.2
			l4.3-0.5c0.1-0.5,0-1,0-1.5l-0.9-6.7c-0.1-0.5-0.2-0.9-0.5-1.2c-0.3-0.3-0.6-0.4-1.1-0.4c-0.6,0.1-1.2,0.2-1.9,0.4l-0.4,0.1
			L480.2,71z"/>
	</g>
</g>
<g>
	<path fill="#763B00" d="M51.3,140.9c-0.2,0-0.3-0.1-0.3-0.3v-20.5c0-0.2,0.1-0.3,0.3-0.3c0.2,0,0.3,0.1,0.3,0.3v20.5
		C51.6,140.8,51.5,140.9,51.3,140.9z"/>
</g>
<g>
	<path fill="#763B00" d="M45.9,141.1c-0.1,0-0.3-0.1-0.3-0.3l-3.1-20.7c0-0.2,0.1-0.3,0.3-0.3c0.2,0,0.3,0.1,0.3,0.3l3.1,20.7
		C46.2,140.9,46.1,141.1,45.9,141.1C46,141.1,45.9,141.1,45.9,141.1z"/>
</g>
<g>
	<path fill="#763B00" d="M56.6,141.1C56.6,141.1,56.5,141.1,56.6,141.1c-0.2,0-0.3-0.2-0.3-0.3l3.1-20.7c0-0.2,0.2-0.3,0.3-0.3
		c0.2,0,0.3,0.2,0.3,0.3l-3.1,20.7C56.8,141,56.7,141.1,56.6,141.1z"/>
</g>
<g>
	<g>
		<path fill="#763B00" d="M57.7,140.3c0-0.3-0.2-0.5-0.5-0.5H45.6c-0.3,0-0.5,0.2-0.5,0.5v4.5c0,0,0,0,0,0c0.1,3.4,2.9,6.2,6.3,6.2
			c3.4,0,6.2-2.8,6.3-6.2c0,0,0,0,0-0.1V140.3z"/>
	</g>
	<rect x="44.9" y="140.8" fill="#5E3400" width="3.1" height="1.3"/>
	<rect x="53.9" y="144.2" fill="#5E3400" width="1.9" height="1.1"/>
	<rect x="46.3" y="142.3" fill="#5E3400" width="3.1" height="1.3"/>
	<rect x="54.4" y="146" fill="#5E3400" width="2.4" height="1.3"/>
	<rect x="53.6" y="147.5" fill="#5E3400" width="2.4" height="1.1"/>
	<rect x="45.8" y="144.4" fill="#5E3400" width="2.3" height="1.6"/>
</g>
<g>
	<path fill="#F16522" d="M47.5,144.4c0-1.4-1.8-1-1.8-4.6c0,0,0-0.2-0.2-0.2c-0.2,0-0.2,0.2-0.2,0.2c0,3.6-1.8,3.2-1.8,4.6h0
		c0,0,0,0,0,0c0,1,0.9,1.8,2,1.8C46.6,146.2,47.5,145.4,47.5,144.4C47.5,144.4,47.5,144.4,47.5,144.4L47.5,144.4z"/>
</g>
<g>
	<path fill="#F16522" d="M48.3,142.3c-0.8,0-1.5-0.2-2-0.6c-0.6-0.5-0.9-1.1-0.9-1.9c0-0.1,0.1-0.2,0.2-0.2c0.1,0,0.2,0.1,0.2,0.2
		c0,0.7,0.3,1.3,0.8,1.7c0.5,0.4,1.1,0.5,1.8,0.5c1.4,0,2.9-0.8,2.9-2.2c0-0.1,0.1-0.2,0.2-0.2c0.1,0,0.2,0.1,0.2,0.2
		C51.5,141.4,49.8,142.3,48.3,142.3z"/>
</g>
<g>
	<path fill="#F16522" d="M54.2,142.3c-0.8,0-1.5-0.2-2.1-0.6c-0.6-0.5-0.9-1.1-0.9-2c0-0.1,0.1-0.2,0.2-0.2c0.1,0,0.2,0.1,0.2,0.2
		c0,0.7,0.3,1.3,0.8,1.7c0.5,0.4,1.1,0.5,1.9,0.5c1.5,0,3-0.8,3-2.2c0-0.1,0.1-0.2,0.2-0.2c0.1,0,0.2,0.1,0.2,0.2
		C57.6,141.4,55.8,142.3,54.2,142.3z"/>
</g>
<g>
	<path fill="#F16522" d="M53.4,144.4c0-1.4-1.8-1-1.8-4.6c0,0,0-0.2-0.2-0.2c-0.2,0-0.2,0.2-0.2,0.2c0,3.6-1.8,3.2-1.8,4.6h0
		c0,0,0,0,0,0c0,1,0.9,1.8,2,1.8C52.5,146.2,53.4,145.4,53.4,144.4C53.4,144.4,53.4,144.4,53.4,144.4L53.4,144.4z"/>
</g>
<g>
	<path fill="#F16522" d="M59.4,144.4c0-1.4-1.8-1-1.8-4.6c0,0,0-0.2-0.2-0.2c-0.2,0-0.2,0.2-0.2,0.2c0,3.6-1.8,3.2-1.8,4.6h0
		c0,0,0,0,0,0c0,1,0.9,1.8,2,1.8C58.5,146.2,59.4,145.4,59.4,144.4C59.4,144.4,59.4,144.4,59.4,144.4L59.4,144.4z"/>
</g>
<g>
	<g>
		<path fill="#F05B39" d="M26,7.8L39.6,114h-0.9c0,0-40.4-32.1-38.6-70.1C1.3,16.8,19.4,5.3,26,7.8z"/>
		<path fill="#F5F5CC" d="M32.7,4.2l11,106.6h-5.9c0,0-35.1-33.4-33.1-71.3C6,15.3,26.2,1.7,32.7,4.2z"/>
		<path fill="#F05B39" d="M44,1.2l3.3,106.6H41c0,0-28.8-39.2-24.9-71C20,5.6,35.7,0.6,44,1.2z"/>
		<path fill="#F5F5CC" d="M51.7,0.7v106.6h-5.3c0,0-17.9-46.9-13.8-78.3C36.2,1.9,45.1-1.9,51.7,0.7z"/>
	</g>
	<g>
		<path fill="#F5F5CC" d="M77.1,7.8L63.5,114h0.9c0,0,40.4-32.1,38.6-70.1C101.8,16.8,83.6,5.3,77.1,7.8z"/>
		<path fill="#F05B39" d="M70.3,4.2l-11,106.6h5.9c0,0,35.1-33.4,33.1-71.3C97.1,15.3,76.9,1.7,70.3,4.2z"/>
		<path fill="#F5F5CC" d="M59,1.2l-3.2,106.6H62c0,0,28.8-39.2,24.9-71C83.1,5.6,67.3,0.6,59,1.2z"/>
		<path fill="#F05B39" d="M51.4,0.7v106.6h5.3c0,0,17.9-46.9,13.8-78.3C66.9,1.9,57.9-1.9,51.4,0.7z"/>
	</g>
	<polygon fill="#ED3724" points="51.4,99.3 49,99.3 23.7,99.3 42.4,121.5 49,121.5 51.4,121.5 60.2,121.5 79.3,99.3 	"/>
</g>
<rect x="42.4" y="121.5" fill="#ED3724" width="17.8" height="3.5"/>
</svg>
