<?xml version="1.0" encoding="utf-8"?>
<!-- Generator: Adobe Illustrator 18.0.0, SVG Export Plug-In . SVG Version: 6.00 Build 0)  -->
<!DOCTYPE svg PUBLIC "-//W3C//DTD SVG 1.1//EN" "http://www.w3.org/Graphics/SVG/1.1/DTD/svg11.dtd">
<svg version="1.1" id="Layer_1" xmlns="http://www.w3.org/2000/svg" xmlns:xlink="http://www.w3.org/1999/xlink" x="0px" y="0px"
	 width="29.7px" height="29.7px" viewBox="0 0 29.7 29.7" enable-background="new 0 0 29.7 29.7" xml:space="preserve">
<path fill="#FFFFFF" d="M29.7,14.8c0,8.2-6.6,14.8-14.8,14.8C6.6,29.7,0,23,0,14.8S6.6,0,14.8,0C23,0,29.7,6.6,29.7,14.8z M5.8,12
	c3.5,9.8,11.7,11.8,13,11.9c3,0.3,5-1.6,5.3-4.4c0,0-3.1-1.9-4.6-2.3l-2.4,2.4c0,0-1.3,0.1-4.1-2.8c-2.8-2.8-2.8-4.1-2.8-4.1
	l2.1-2.1c-0.3-2.1-1.6-5.4-3.9-4.7C6,6.6,5.1,9.9,5.8,12z"/>
</svg>
