<?xml version="1.0" encoding="utf-8"?>
<!-- Generator: Adobe Illustrator 18.1.1, SVG Export Plug-In . SVG Version: 6.00 Build 0)  -->
<svg version="1.1" id="Layer_1" xmlns="http://www.w3.org/2000/svg" xmlns:xlink="http://www.w3.org/1999/xlink" x="0px" y="0px"
	 viewBox="0 0 482.3 198.3" enable-background="new 0 0 482.3 198.3" xml:space="preserve">
<g>
	<g>
		<defs>
			<rect id="SVGID_1_" x="0" y="0" width="482.3" height="198.3"/>
		</defs>
		<clipPath id="SVGID_2_">
			<use xlink:href="#SVGID_1_"  overflow="visible"/>
		</clipPath>
		
			<linearGradient id="SVGID_3_" gradientUnits="userSpaceOnUse" x1="154.8125" y1="100.3853" x2="353.1125" y2="100.3853" gradientTransform="matrix(0 -1 1 0 140.7697 353.1125)">
			<stop  offset="0" style="stop-color:#FFFFFF"/>
			<stop  offset="9.451629e-002" style="stop-color:#F9FDFE"/>
			<stop  offset="0.2191" style="stop-color:#E9F7FC"/>
			<stop  offset="0.3607" style="stop-color:#CDECF9"/>
			<stop  offset="0.5146" style="stop-color:#A7DEF4"/>
			<stop  offset="0.6787" style="stop-color:#76CBEE"/>
			<stop  offset="0.8485" style="stop-color:#3BB5E7"/>
			<stop  offset="1" style="stop-color:#009FE0"/>
		</linearGradient>
		<rect x="0" y="0" clip-path="url(#SVGID_2_)" fill="url(#SVGID_3_)" width="482.3" height="198.3"/>
		<linearGradient id="SVGID_4_" gradientUnits="userSpaceOnUse" x1="118.2181" y1="20.84" x2="138.3369" y2="134.9392">
			<stop  offset="0" style="stop-color:#FFFFFF"/>
			<stop  offset="0.2316" style="stop-color:#F8FBFD"/>
			<stop  offset="0.5714" style="stop-color:#E4F1F8"/>
			<stop  offset="0.9762" style="stop-color:#C4E1F1"/>
			<stop  offset="1" style="stop-color:#C2E0F0"/>
		</linearGradient>
		<path clip-path="url(#SVGID_2_)" fill="url(#SVGID_4_)" d="M215.5,81.3c-5.4,0-10.3,2.1-13.9,5.6c-0.2-0.1-0.4-0.2-0.6-0.3
			c0.1-0.5,0.1-0.9,0.1-1.4c0-4.4-3-8-7-9.1c-1.7-2.9-4.9-4.8-8.5-4.8c-1.1,0-2.2,0.2-3.2,0.5c0-0.3-0.1-0.7-0.1-1
			c3.5-1.2,6-4.5,6-8.4c0-4.9-3.9-8.8-8.8-8.8c-3.3,0-6.2,1.8-7.7,4.6c-0.5-0.2-1-0.3-1.5-0.4c3.2-2.1,5.3-5.6,5.3-9.7
			c0-6.4-5.2-11.6-11.6-11.6c-3.3,0-6.2,1.4-8.3,3.5c-3.4-11.9-14.3-20.7-27.3-20.7c-15.1,0-27.5,11.9-28.4,26.8
			C93.9,47.5,89,52.5,88,58.9c-2.1,0.8-4.1,2.1-5.8,3.6c-0.8-0.3-1.7-0.4-2.7-0.4c-4.5,0-8.2,3.7-8.2,8.2c0,1.2,0.3,2.4,0.8,3.5
			c-1.4-0.4-2.9-0.7-4.4-0.7c-7.8,0-14.2,5.9-15,13.5c-1.1-3.1-4.1-5.3-7.5-5.3c-4.4,0-8,3.6-8,8c0,1.1,0.2,2.1,0.6,3.1
			c-0.6-0.1-1.1-0.2-1.7-0.2c-4,0-7.2,3.2-7.2,7.2c0,4,3.2,7.2,7.2,7.2c4,0,7.2-3.2,7.2-7.2c0-0.8-0.1-1.6-0.4-2.4
			c0.1,0,0.3,0.1,0.4,0.1c0,0.1,0,0.2,0,0.3c0,5.1,4.1,9.3,9.3,9.3c3.6,0,6.8-2.1,8.3-5.2c2.1,1.1,4.4,1.7,6.9,1.7
			c3.1,0,5.9-0.9,8.3-2.5c0.5,5.3,4.9,9.4,10.3,9.4c2.3,0,4.5-0.8,6.2-2.1c1.8,1,3.9,1.6,6.1,1.6c3.3,0,6.3-1.3,8.5-3.4
			c1.6,2.3,4.3,3.8,7.4,3.8c1.8,0,3.4-0.5,4.8-1.4c2.2,5.7,7.7,9.7,14.1,9.7c7.9,0,14.4-6.1,15.1-13.8c1.2,0.5,2.5,0.7,3.8,0.7
			c1.2,0,2.3-0.2,3.3-0.5c1.5,2.3,4,3.8,6.9,3.8c3.5,0,6.5-2.2,7.7-5.3c2.2-0.2,4.1-1.1,5.5-2.5c0.1,1.1,0.5,2.1,0.9,3
			c0.9,8.5,8.1,15.1,16.8,15.1c3.3,0,6.3-0.9,8.9-2.5c3.5,3,8,4.8,13,4.8c11,0,19.9-8.9,19.9-19.9C235.4,90.2,226.5,81.3,215.5,81.3
			z M178.5,92.4c-0.5-2.5-2-4.7-4.1-6.1c0.7-0.4,1.4-0.8,2.1-1.3c0.9,2.3,2.6,4.1,4.8,5.2c-0.1,0.1-0.2,0.2-0.2,0.3
			C180.1,91,179.2,91.6,178.5,92.4z M131.6,87.1c0.3,0.4,0.6,0.7,1,1.1c-0.6,0-1.1,0.1-1.7,0.2C131.1,87.9,131.3,87.5,131.6,87.1z
			 M156.9,84c1.7,1.6,3.8,2.8,6.2,3.5c-0.7,0.7-1.3,1.6-1.8,2.5c-1-1.7-2.5-3.2-4.4-4.1c0-0.3,0-0.7,0-1
			C156.9,84.6,156.9,84.3,156.9,84z"/>
		<linearGradient id="SVGID_5_" gradientUnits="userSpaceOnUse" x1="347.8178" y1="14.4221" x2="374.0442" y2="163.1593">
			<stop  offset="0" style="stop-color:#FFFFFF"/>
			<stop  offset="0.1828" style="stop-color:#EDF6FB"/>
			<stop  offset="0.4829" style="stop-color:#D5EAF5"/>
			<stop  offset="0.7627" style="stop-color:#C7E3F1"/>
			<stop  offset="1" style="stop-color:#C2E0F0"/>
		</linearGradient>
		<path clip-path="url(#SVGID_2_)" fill="url(#SVGID_5_)" d="M474.6,93.2c-7,0-13.4,2.8-18.1,7.3c-0.3-0.1-0.5-0.3-0.8-0.4
			c0.1-0.6,0.1-1.2,0.1-1.8c0-5.7-3.9-10.5-9.1-11.9c-2.3-3.7-6.4-6.2-11.1-6.2c-1.4,0-2.8,0.2-4.1,0.7c0-0.4-0.1-0.8-0.1-1.3
			c4.6-1.5,7.8-5.8,7.8-10.9c0-6.3-5.1-11.5-11.5-11.5c-4.3,0-8.1,2.4-10.1,6c-0.6-0.2-1.3-0.4-2-0.5c4.2-2.7,7-7.4,7-12.7
			c0-8.3-6.7-15.1-15.1-15.1c-4.3,0-8.1,1.8-10.9,4.6c-4.4-15.5-18.7-26.9-35.6-26.9c-19.7,0-35.9,15.5-37,34.9
			c-8.1,1.6-14.5,8.2-15.8,16.4c-2.8,1.1-5.3,2.7-7.5,4.6c-1.1-0.4-2.3-0.6-3.5-0.6c-5.9,0-10.7,4.8-10.7,10.7c0,1.6,0.4,3.2,1,4.5
			c-1.8-0.6-3.8-0.9-5.8-0.9c-10.2,0-18.5,7.7-19.5,17.6c-1.5-4-5.3-6.9-9.8-6.9c-5.8,0-10.5,4.7-10.5,10.5c0,1.4,0.3,2.8,0.8,4
			c-0.7-0.2-1.5-0.3-2.2-0.3c-5.2,0-9.4,4.2-9.4,9.4c0,5.2,4.2,9.3,9.4,9.3c5.2,0,9.3-4.2,9.3-9.3c0-1.1-0.2-2.1-0.5-3.1
			c0.2,0.1,0.4,0.1,0.5,0.1c0,0.1,0,0.2,0,0.4c0,6.7,5.4,12.1,12.1,12.1c4.7,0,8.8-2.7,10.8-6.7c2.7,1.4,5.8,2.2,9,2.2
			c4,0,7.8-1.2,10.9-3.3c0.6,6.9,6.4,12.3,13.5,12.3c3.1,0,5.9-1,8.1-2.7c2.4,1.3,5.1,2.1,8,2.1c4.3,0,8.2-1.7,11.1-4.4
			c2.1,3,5.6,5,9.6,5c2.3,0,4.5-0.7,6.3-1.8c2.9,7.4,10,12.6,18.4,12.6c10.3,0,18.8-7.9,19.7-18c1.5,0.6,3.2,1,4.9,1
			c1.5,0,2.9-0.3,4.3-0.7c1.9,3,5.2,5,9,5c4.6,0,8.5-2.9,10-7c2.8-0.3,5.3-1.5,7.2-3.3c0.2,1.4,0.6,2.7,1.2,3.9
			c1.2,11.1,10.6,19.7,21.9,19.7c4.3,0,8.2-1.2,11.6-3.3c4.5,3.9,10.5,6.3,16.9,6.3c14.3,0,25.9-11.6,25.9-25.9
			C500.5,104.8,488.9,93.2,474.6,93.2z M426.4,107.7c-0.6-3.3-2.6-6.1-5.3-7.9c0.9-0.5,1.8-1.1,2.7-1.7c1.2,2.9,3.4,5.3,6.3,6.7
			c-0.1,0.1-0.2,0.2-0.3,0.3C428.5,105.8,427.3,106.7,426.4,107.7z M365.2,100.7c0.4,0.5,0.8,1,1.2,1.4c-0.7,0.1-1.5,0.1-2.2,0.3
			C364.6,101.9,364.9,101.3,365.2,100.7z M398.2,96.7c2.2,2.1,5,3.7,8,4.6c-1,0.9-1.8,2-2.4,3.2c-1.3-2.3-3.3-4.1-5.7-5.3
			c0-0.4,0.1-0.9,0.1-1.3C398.3,97.5,398.3,97.1,398.2,96.7z"/>
		
			<linearGradient id="SVGID_6_" gradientUnits="userSpaceOnUse" x1="227.8831" y1="17.574" x2="227.8831" y2="173.6578" gradientTransform="matrix(1 6.760758e-003 -6.760758e-003 1 0.1936 -8.6915)">
			<stop  offset="0" style="stop-color:#FFFFFF"/>
			<stop  offset="0.2517" style="stop-color:#F8F9FD"/>
			<stop  offset="0.6208" style="stop-color:#E4EAF8"/>
			<stop  offset="1" style="stop-color:#C9D4F0"/>
		</linearGradient>
		<path clip-path="url(#SVGID_2_)" fill="url(#SVGID_6_)" d="M355.4,106.3c-8.3-0.1-15.8,3.2-21.4,8.5c-0.3-0.2-0.6-0.3-0.9-0.5
			c0.1-0.7,0.2-1.4,0.2-2.1c0-6.7-4.5-12.4-10.6-14.1c-2.7-4.4-7.5-7.4-13-7.4c-1.7,0-3.3,0.3-4.9,0.8c0-0.5-0.1-1-0.1-1.5
			c5.4-1.8,9.3-6.8,9.3-12.8c0.1-7.5-6-13.6-13.5-13.6c-5.1,0-9.6,2.8-11.9,6.9c-0.8-0.2-1.5-0.4-2.3-0.6c5-3.1,8.3-8.6,8.3-14.9
			c0.1-9.8-7.8-17.8-17.6-17.9c-5,0-9.6,2-12.8,5.4c-5.1-18.4-21.8-31.9-41.8-32c-23.3-0.2-42.4,17.9-43.9,40.9
			c-9.6,1.8-17.1,9.5-18.7,19.2c-3.3,1.3-6.3,3.1-8.9,5.4c-1.3-0.4-2.7-0.7-4.1-0.7c-7,0-12.7,5.6-12.7,12.6c0,1.9,0.4,3.7,1.1,5.3
			c-2.2-0.7-4.4-1.1-6.8-1.1c-12-0.1-21.9,9-23.2,20.6c-1.7-4.8-6.2-8.2-11.5-8.2c-6.8,0-12.4,5.4-12.4,12.2c0,1.7,0.3,3.3,0.9,4.7
			c-0.8-0.2-1.7-0.3-2.6-0.3c-6.1,0-11.1,4.9-11.1,10.9c0,6.1,4.9,11.1,10.9,11.1c6.1,0,11.1-4.9,11.1-10.9c0-1.3-0.2-2.5-0.6-3.6
			c0.2,0.1,0.4,0.1,0.6,0.2c0,0.1,0,0.3,0,0.4c-0.1,7.9,6.3,14.3,14.1,14.3c5.6,0,10.5-3.2,12.8-7.8c3.2,1.7,6.8,2.6,10.6,2.7
			c4.7,0,9.2-1.4,12.8-3.8c0.7,8.1,7.5,14.6,15.8,14.6c3.6,0,6.9-1.1,9.6-3.1c2.8,1.6,6,2.5,9.4,2.6c5.1,0,9.7-1.9,13.1-5.1
			c2.5,3.6,6.6,5.9,11.3,6c2.7,0,5.3-0.8,7.4-2.1c3.3,8.7,11.7,15,21.6,15c12.2,0.1,22.2-9.2,23.3-21.1c1.8,0.7,3.8,1.2,5.8,1.2
			c1.8,0,3.5-0.3,5.1-0.8c2.2,3.5,6.1,5.9,10.6,5.9c5.4,0,10-3.3,11.8-8.1c3.3-0.3,6.3-1.7,8.6-3.9c0.2,1.6,0.7,3.2,1.4,4.6
			c1.3,13.1,12.3,23.3,25.7,23.4c5,0,9.7-1.4,13.7-3.8c5.3,4.7,12.3,7.5,19.9,7.6c16.9,0.1,30.6-13.5,30.8-30.3
			C385.9,120.2,372.3,106.4,355.4,106.3z M298.4,123c-0.7-3.9-3-7.3-6.2-9.4c1.1-0.6,2.2-1.2,3.2-2c1.4,3.5,4,6.3,7.3,8
			c-0.1,0.1-0.3,0.3-0.4,0.4C300.9,120.8,299.6,121.8,298.4,123z M226.4,114.3c0.5,0.6,0.9,1.1,1.5,1.7c-0.9,0.1-1.7,0.2-2.6,0.3
			C225.7,115.6,226,115,226.4,114.3z M265.4,109.8c2.6,2.5,5.9,4.4,9.4,5.4c-1.1,1.1-2.1,2.4-2.8,3.8c-1.5-2.7-3.9-4.9-6.7-6.3
			c0-0.5,0.1-1,0.1-1.6C265.4,110.7,265.4,110.3,265.4,109.8z"/>
		<path clip-path="url(#SVGID_2_)" fill="#85BE41" d="M0,137.6l0,60.7h482.3l0-21.3c0,0-44.1-16.5-229.4-32.3S0,137.6,0,137.6z"/>
		<path clip-path="url(#SVGID_2_)" fill="#C1D42E" d="M482.3,137.6v60.7H0L0,177c0,0,44.1-16.5,229.4-32.3S482.3,137.6,482.3,137.6z
			"/>
		<polygon clip-path="url(#SVGID_2_)" fill="#001F5B" points="482.3,109.2 304,0 482.3,0 		"/>
		<g clip-path="url(#SVGID_2_)">
			<path fill="#001F5B" d="M130.1,170c0-1.5-0.8-2.2-2.4-2.2c-0.2,0-0.5,0-0.8,0.1c-1.8,0.3-3.2,0.6-4.2,1.1
				c0.3,1.2,0.8,2.3,1.4,3.5c0.9,1.6,1.8,2.3,2.7,2.3c0.9,0,1.6-0.6,2.3-1.8C129.7,171.9,130.1,171,130.1,170 M127.7,165.7
				c1.5,0,2.7,0.5,3.4,1.3c0.7,0.7,1,1.7,1,2.9c0,1.6-0.5,3.2-1.6,4.6c-1.1,1.5-2.4,2.2-3.8,2.2c-0.4,0-0.7-0.1-1.1-0.2
				c-0.8-0.3-1.5-1.2-2.4-2.8c-0.9-1.9-1.6-3-2-3.3c-0.1,0.4-0.3,2-0.7,4.7c-0.2,1.8-0.5,3.3-0.9,4.6c-0.2,0-0.4-0.1-0.5-0.1
				c0,0-0.1-0.2-0.2-0.4c-0.1-0.3-0.3-0.8-0.5-1.5c0,0.1,0,0-0.1-0.2V177c0,0,0-0.1,0.1-0.2c-0.1-0.2-0.1-0.2-0.1-0.2
				c0.1-0.7,0.1-1.8,0.3-3.4c0.1-1.8,0.3-3,0.4-3.8c0.3-1.8,0.7-2.7,1.2-2.8c0.2,0,0.5,0,0.7,0.1c0.3,0.1,0.5,0.2,0.7,0.2
				c0.1,0,0.2,0,0.3,0c0.2-0.1,0.4-0.3,0.7-0.5C124.7,165.9,126.3,165.7,127.7,165.7"/>
			<path fill="#001F5B" d="M137.4,164.4c0,0.2,0,0.5,0,0.9c0,1.2-0.1,2.5-0.4,3.7c-0.3,1.5-0.7,2.3-1.1,2.3c-0.2,0-0.3,0-0.5-0.2
				c-0.1-0.1-0.1-0.1-0.1-0.2c0,0,0.1,0,0.1-0.2c0-0.1,0-0.3,0-0.5c0-0.1,0-0.2,0-0.3c0-0.7-0.1-2-0.3-3.8c0-0.1-0.1-0.3-0.2-0.8
				c-0.1-0.4-0.2-0.7-0.2-1c0-0.2,0-0.3,0.1-0.5c0-0.2,0.2-0.3,0.3-0.5c0.2-0.2,0.4-0.3,0.6-0.3c0.3,0,0.7,0.1,1.1,0.4
				C137.2,163.8,137.4,164.1,137.4,164.4"/>
			<path fill="#001F5B" d="M143.7,164.4c0,0.2,0,0.5,0,0.9c0,1.2-0.1,2.5-0.4,3.7c-0.3,1.5-0.7,2.3-1.1,2.3c-0.2,0-0.3,0-0.5-0.2
				c-0.1-0.1-0.1-0.1-0.1-0.2c0,0,0.1,0,0.1-0.2c0-0.1,0-0.3,0-0.5c0-0.1,0-0.2,0-0.3c0-0.7-0.1-2-0.3-3.8c0-0.1-0.1-0.3-0.2-0.8
				c-0.1-0.4-0.2-0.7-0.2-1c0-0.2,0-0.3,0.1-0.5c0-0.2,0.2-0.3,0.3-0.5c0.2-0.2,0.4-0.3,0.6-0.3c0.3,0,0.7,0.1,1.1,0.4
				C143.4,163.8,143.6,164.1,143.7,164.4"/>
			<path fill="#001F5B" d="M156.1,177.6c-0.1,0.2-0.2,0.6-0.4,1.1c-0.2,0-0.4-0.1-0.8-0.2c0-0.2,0-0.3,0.1-0.3
				c0.9-3.9,1.3-6.7,1.3-8.4c0-1.7-0.3-2.9-1-3.5c-0.3-0.3-0.8-0.4-1.4-0.4c-0.4,0-0.8,0.1-1.3,0.2c-0.5,0.2-1,0.4-1.3,0.7
				c-0.3,0.3-0.7,0.6-1,0.9c-0.2,0-0.4,0.2-0.7,0.4c-0.2,0.3-0.3,0.7-0.3,1.2c-0.1,0.9-0.2,1.4-0.2,1.4c-0.2,1-0.5,2.4-0.9,4.2
				c0,0.8-0.2,2.1-0.6,3.9c-0.4-0.1-0.5-0.2-0.6-0.2c0-0.2-0.1-0.4-0.1-0.7c-0.1-0.3-0.3-0.8-0.5-1.4c0-0.2-0.1-0.5-0.1-0.7
				c0-0.4,0-0.8,0.1-1.4c0.1-0.7,0.2-1.1,0.2-1.2c0.1-0.9,0.2-2.4,0.4-4.4c0-0.2,0-0.9,0-2.3c0-0.9,0.1-1.7,0.4-2.2
				c0.4,0,0.8,0.1,1.2,0.3c0.5,0.2,0.8,0.2,1,0.2c0.3,0,0.9-0.3,1.7-0.7c0.7-0.4,1.4-0.6,1.9-0.5c3,0.1,4.6,2,4.6,5.7
				c0,1.4-0.2,2.9-0.7,4.6C157.1,175.3,156.7,176.5,156.1,177.6"/>
			<path fill="#001F5B" d="M171.2,176.5c-0.1,0.9-1,1.4-2.5,1.6c-0.8,0.1-1.6,0.2-2.4,0.4c-1,0.2-1.8,0.2-2.4,0.2
				c-1.1,0-2-0.2-2.7-0.6c-0.5-0.3-0.9-0.9-1.1-1.9c0.6-0.7,1.5-1.5,2.8-2.6c1.4-0.8,2.7-1.6,4.1-2.4c1.9-1.1,3-2.1,3.3-2.8
				c-0.3-0.2-0.9-0.5-1.7-0.7c-1-0.2-2-0.4-3-0.4c-0.8,0-1.8,0.1-3.3,0.3c0,0,0,0-0.2,0.1c-0.1,0-0.3,0-0.3,0
				c-0.4-0.7-0.7-1.3-0.7-1.7c0-0.5,0.3-0.8,0.8-0.9c0.2,0,0.4-0.1,0.5-0.1c0.2,0,0.5,0,0.8,0.1c0.4,0.1,0.7,0.1,1,0.1
				c2.2,0,4,0.2,5.6,0.7c1.7,0.6,2.6,1.4,2.6,2.4c0,0.9-0.8,2-2.5,3.2c-0.6,0.4-1.7,1.1-3.3,2c-1.4,0.8-2.4,1.5-3.2,2.1
				c-0.2,0.2-0.5,0.5-0.7,0.9c1.5,0.2,2.5,0.3,3.2,0.3c0.2,0,0.8-0.1,1.9-0.2c0.9-0.1,1.5-0.2,2-0.2
				C170.6,176.4,170.9,176.4,171.2,176.5"/>
			<path fill="#001F5B" d="M198.8,177.4l-0.3,0.1c-0.5,0-0.8,0-1-0.2c-0.7-0.5-1.4-1.4-2.4-2.8c-0.8-1.1-1.4-2.2-1.9-3.2
				c-0.2-0.6-0.5-1.4-1-2.6c-0.2-0.3-0.6-0.8-1-1.5h-0.4c-0.1,0.3-0.2,0.9-0.4,1.7c-0.7,2.8-1.8,5.3-3.3,7.5
				c-1.7,2.6-3.7,4.2-5.8,4.9c-0.5,0.1-0.9,0.2-1.3,0.2c-1.1,0-1.9-0.4-2.4-1.1c0.2-0.1,0.6-0.1,1.3-0.2c0.7,0,1.2-0.1,1.5-0.3
				c1.5-0.7,2.9-2,4.4-3.8c1.4-1.8,2.4-3.5,2.9-5.1c0.3-1.1,0.6-2.8,1.1-5c0.1-0.5,0.2-1.1,0.4-1.6c0.2-0.6,0.5-0.9,1-1
				c0.3,0,0.5,0,0.7,0.1c0.2,0.2,0.4,0.3,0.4,0.3c0.2,0,0.5,0,0.8,0c0.5,0.1,0.8,0.4,1,1c0.1,0.3,0.3,0.8,0.4,1.6
				c0.3,1.4,0.9,2.9,1.9,4.7c0.5,0.9,1.3,2.2,2.6,4.1c0.3,0.5,0.5,0.8,0.6,0.9C198.7,176.4,198.8,176.8,198.8,177.4"/>
			<path fill="#001F5B" d="M202.5,165.2c0,0.2,0.1,0.5,0.1,0.7c0,0.2,0,0.6-0.1,1c-0.1,0.4-0.1,0.7-0.1,0.9c0,0.3,0,1.3,0.1,2.8
				c0.1,1.1,0.1,2.1,0.1,2.8c0,2.1-0.2,3.9-0.7,5.5c-0.2-0.1-0.5-0.2-0.7-0.3c0.1-0.4,0.2-1,0.2-1.6c0-0.8-0.1-1.8-0.4-3
				c-0.3-1.5-0.4-2.5-0.4-3c0-0.5,0-1.3-0.1-2.3c0-0.1-0.1-0.6-0.3-1.4c-0.1-0.6-0.2-1.1-0.2-1.5c0-1,0.4-1.5,1.2-1.6
				C201.9,164.2,202.3,164.6,202.5,165.2"/>
			<path fill="#001F5B" d="M216.4,176.5c-0.1,0.9-1,1.4-2.5,1.6c-0.8,0.1-1.6,0.2-2.4,0.4c-1,0.2-1.8,0.2-2.4,0.2
				c-1.1,0-2-0.2-2.7-0.6c-0.5-0.3-0.9-0.9-1.1-1.9c0.6-0.7,1.5-1.5,2.8-2.6c1.4-0.8,2.7-1.6,4.1-2.4c1.9-1.1,3-2.1,3.3-2.8
				c-0.3-0.2-0.9-0.5-1.7-0.7c-1-0.2-2-0.4-3-0.4c-0.8,0-1.8,0.1-3.3,0.3c0,0,0,0-0.2,0.1c-0.1,0-0.3,0-0.3,0
				c-0.4-0.7-0.7-1.3-0.7-1.7c0-0.5,0.3-0.8,0.8-0.9c0.2,0,0.4-0.1,0.5-0.1c0.2,0,0.5,0,0.8,0.1c0.4,0.1,0.7,0.1,1,0.1
				c2.2,0,4,0.2,5.6,0.7c1.7,0.6,2.6,1.4,2.6,2.4c0,0.9-0.8,2-2.5,3.2c-0.6,0.4-1.7,1.1-3.3,2c-1.4,0.8-2.4,1.5-3.2,2.1
				c-0.2,0.2-0.5,0.5-0.7,0.9c1.5,0.2,2.5,0.3,3.2,0.3c0.2,0,0.8-0.1,1.9-0.2c0.9-0.1,1.5-0.2,2-0.2
				C215.7,176.4,216.1,176.4,216.4,176.5"/>
			<path fill="#001F5B" d="M222.9,165.2c0,0.2,0.1,0.5,0.1,0.7c0,0.2,0,0.6-0.1,1c-0.1,0.4-0.1,0.7-0.1,0.9c0,0.3,0,1.3,0.1,2.8
				c0.1,1.1,0.1,2.1,0.1,2.8c0,2.1-0.2,3.9-0.7,5.5c-0.2-0.1-0.5-0.2-0.7-0.3c0.1-0.4,0.2-1,0.2-1.6c0-0.8-0.1-1.8-0.4-3
				c-0.3-1.5-0.4-2.5-0.4-3c0-0.5,0-1.3-0.1-2.3c0-0.1-0.1-0.6-0.3-1.4c-0.1-0.6-0.2-1.1-0.2-1.5c0-1,0.4-1.5,1.2-1.6
				C222.3,164.2,222.7,164.6,222.9,165.2"/>
			<path fill="#001F5B" d="M239.3,168.6c0,0.1,0,0.2,0,0.4c0,0.2,0,0.6-0.1,1.2c-0.1,0.6-0.1,1-0.1,1.3c0,0.3,0,0.5,0,0.7
				c-0.1,0.4-0.4,1.3-1.1,2.8c-1,2.1-2.2,3.5-3.6,4.1c-0.3,0.1-0.9,0.2-1.8,0.2c-0.3,0-0.4,0-0.3,0.1c-1-0.1-1.7-0.3-2.1-0.5
				c-1.2-0.7-2.2-2-3-3.9c-0.8-1.9-1.2-3.8-1.2-5.8c0-0.8,0.1-1.5,0.2-2.2c0.2-1.1,1-2.2,2.3-3.3c0.8-0.6,1.5-0.9,2.1-0.9
				c0.4,0,0.9,0.2,1.6,0.7c0.1,0,0.3,0,0.5,0.1c0.4,0.2,0.8,0.7,1.1,1.4c0.3,0.6,0.5,1.2,0.6,1.9c0.1,0.4,0,0.9-0.2,1.6
				c-0.2,0.5-0.4,1-0.5,1.4c-0.6,1.8-1.1,3.1-1.4,3.7c-0.7,1.3-1.5,2.2-2.6,2.7c0.3-0.9,0.8-2,1.4-3.5c0.7-1.5,1.1-2.6,1.4-3.4
				c0-0.1,0-0.3,0-0.4c0-0.2,0.1-0.4,0.1-0.7c0-0.9-0.2-1.6-0.6-2.3c-0.4-0.7-0.9-1-1.6-1c-0.4,0-0.8,0.1-1.3,0.4
				c-1.2,0.8-1.8,2.3-1.8,4.4c0,1.1,0.1,2.2,0.4,3.3c0,0.4,0.1,0.9,0.3,1.5c0.7,1.2,1.6,2.2,2.6,2.9c0.2,0.1,0.4,0.2,0.6,0.2
				c0.2,0,0.4,0,0.6,0c0.2,0,0.3,0,0.5,0c1.2,0,2.2-0.6,3.2-1.7c0.9-1,1.4-2.2,1.7-3.5c0-0.2,0-0.7-0.1-1.5c-0.1-1-0.1-1.6-0.1-1.9
				c0-0.4,0-0.6,0.1-0.7c0.2-0.1,0.5-0.2,0.8-0.3c0,0,0,0,0.1,0c0.1,0,0.2,0,0.2,0c0.1,0,0.3,0.1,0.6,0.4
				C239.1,168.4,239.3,168.5,239.3,168.6"/>
			<path fill="#001F5B" d="M250.9,177.6c-0.1,0.2-0.2,0.6-0.4,1.1c-0.2,0-0.4-0.1-0.8-0.2c0-0.2,0-0.3,0.1-0.3
				c0.9-3.9,1.3-6.7,1.3-8.4c0-1.7-0.3-2.9-1-3.5c-0.3-0.3-0.8-0.4-1.4-0.4c-0.4,0-0.8,0.1-1.3,0.2c-0.5,0.2-1,0.4-1.3,0.7
				c-0.3,0.3-0.7,0.6-1,0.9c-0.2,0-0.4,0.2-0.7,0.4c-0.2,0.3-0.3,0.7-0.3,1.2c-0.1,0.9-0.2,1.4-0.2,1.4c-0.2,1-0.5,2.4-0.9,4.2
				c0,0.8-0.2,2.1-0.6,3.9c-0.4-0.1-0.5-0.2-0.6-0.2c0-0.2-0.1-0.4-0.1-0.7c-0.1-0.3-0.3-0.8-0.5-1.4c0-0.2-0.1-0.5-0.1-0.7
				c0-0.4,0-0.8,0.1-1.4c0.1-0.7,0.2-1.1,0.2-1.2c0.1-0.9,0.2-2.4,0.4-4.4c0-0.2,0-0.9,0-2.3c0-0.9,0.1-1.7,0.4-2.2
				c0.4,0,0.8,0.1,1.2,0.3c0.5,0.2,0.8,0.2,1,0.2c0.3,0,0.9-0.3,1.7-0.7c0.7-0.4,1.4-0.6,1.9-0.5c3,0.1,4.6,2,4.6,5.7
				c0,1.4-0.2,2.9-0.7,4.6C251.9,175.3,251.4,176.5,250.9,177.6"/>
			<path fill="#001F5B" d="M267,164.4c0,0.2,0,0.5,0,0.9c0,1.2-0.1,2.5-0.4,3.7c-0.3,1.5-0.7,2.3-1.1,2.3c-0.2,0-0.3,0-0.5-0.2
				c-0.1-0.1-0.1-0.1-0.1-0.2c0,0,0.1,0,0.1-0.2c0-0.1,0-0.3,0-0.5c0-0.1,0-0.2,0-0.3c0-0.7-0.1-2-0.3-3.8c0-0.1-0.1-0.3-0.2-0.8
				c-0.1-0.4-0.2-0.7-0.2-1c0-0.2,0-0.3,0.1-0.5c0-0.2,0.2-0.3,0.3-0.5c0.2-0.2,0.4-0.3,0.6-0.3c0.3,0,0.7,0.1,1.1,0.4
				C266.7,163.8,267,164.1,267,164.4"/>
			<path fill="#001F5B" d="M280.1,173.1c0.7-1,1.1-1.8,1.1-2.5c0-1.2-1.1-2.1-3.3-2.5c-1.1-0.2-1.8-0.3-2-0.3
				c-0.3,0-0.8,0.2-1.4,0.5c-0.6,0.3-1.1,0.4-1.3,0.4c-0.3,0-0.7-0.2-1-0.5c-0.3-0.3-0.5-0.6-0.5-1c0-0.8,1.3-1.3,4-1.6
				c0.2,0,0.4,0,0.7,0c1,0,2.3,0.3,3.6,1c2.1,1,3.1,2.3,3.1,3.9c0,1.9-1.1,3.8-3.4,5.6c-2.3,1.8-4.6,2.7-7,2.7c-1,0-1.9-0.2-2.6-0.6
				c-0.5-0.3-0.9-0.7-1-1.4c0.7,0.2,1.5,0.4,2.3,0.4c1.7,0,3.4-0.4,5.2-1.3C278.3,174.9,279.4,174,280.1,173.1"/>
			<path fill="#001F5B" d="M288.5,170.2c0.4,0.3,0.6,0.7,0.6,1c0,0.2-0.1,0.6-0.4,1c-0.3,0.5-0.5,0.9-0.6,1.1
				c-0.1,0.3-0.2,0.7-0.3,1.3s-0.2,1-0.3,1.3c-0.1,0.2-0.8,1.2-2.1,3c-0.2-0.1-0.4-0.3-0.6-0.6c-0.1-0.4,0.1-1.3,0.6-2.7
				c0.5-1.6,0.8-2.6,0.8-2.9c0-0.4,0-1.1,0.1-2c0.1-0.6,0.4-0.9,0.8-1c0.1,0,0.3-0.1,0.4-0.1c0.2,0,0.4,0.1,0.5,0.2
				C288.3,169.9,288.4,170.1,288.5,170.2 M294.9,166.6c0.9,1.1,1.3,2.3,1.3,3.6c0,1.3-0.5,2.8-1.4,4.4c-0.9,1.3-1.7,2.6-2.6,3.9
				h-0.6c0.1-0.1,0.1-0.2-0.1-0.4l1.2-2.5c0.1-0.1,0.4-1.1,0.9-2.7c0.2-0.3,0.4-0.7,0.7-1.3c0.1-0.3,0.1-0.7,0.1-1
				c0-1.1-0.3-1.9-1-2.6c-0.7-0.6-1.6-0.9-2.7-0.9c-0.4,0-1,0.1-2.1,0.2c-0.9,0.1-1.6,0.2-2.2,0.1c-0.2-0.5-0.4-0.9-0.4-1.3
				c0-0.5,0.4-0.9,1.1-1c0.1,0,0.9-0.1,2.4-0.2c0.4,0,0.7,0,1,0C292.6,165,294.1,165.5,294.9,166.6"/>
			<path fill="#001F5B" d="M319.9,170c0-1.5-0.8-2.2-2.4-2.2c-0.2,0-0.5,0-0.8,0.1c-1.8,0.3-3.2,0.6-4.2,1.1
				c0.3,1.2,0.8,2.3,1.4,3.5c0.9,1.6,1.8,2.3,2.7,2.3c0.9,0,1.6-0.6,2.3-1.8C319.6,171.9,319.9,171,319.9,170 M317.5,165.7
				c1.5,0,2.7,0.5,3.4,1.3c0.7,0.7,1,1.7,1,2.9c0,1.6-0.5,3.2-1.6,4.6c-1.1,1.5-2.4,2.2-3.8,2.2c-0.4,0-0.7-0.1-1.1-0.2
				c-0.8-0.3-1.5-1.2-2.4-2.8c-0.9-1.9-1.6-3-2-3.3c-0.1,0.4-0.3,2-0.7,4.7c-0.2,1.8-0.5,3.3-0.9,4.6c-0.2,0-0.4-0.1-0.5-0.1
				c0,0-0.1-0.2-0.2-0.4c-0.1-0.3-0.3-0.8-0.5-1.5c0,0.1,0,0-0.1-0.2V177c0,0,0-0.1,0.1-0.2c-0.1-0.2-0.1-0.2-0.1-0.2
				c0.1-0.7,0.1-1.8,0.3-3.4c0.1-1.8,0.3-3,0.4-3.8c0.3-1.8,0.7-2.7,1.2-2.8c0.2,0,0.5,0,0.7,0.1c0.3,0.1,0.5,0.2,0.7,0.2
				c0.1,0,0.2,0,0.3,0c0.2-0.1,0.4-0.3,0.7-0.5C314.5,165.9,316.2,165.7,317.5,165.7"/>
			<path fill="#001F5B" d="M327.3,164.4c0,0.2,0,0.5,0,0.9c0,1.2-0.1,2.5-0.4,3.7c-0.3,1.5-0.7,2.3-1.1,2.3c-0.2,0-0.3,0-0.5-0.2
				c-0.1-0.1-0.1-0.1-0.1-0.2c0,0,0.1,0,0.1-0.2c0-0.1,0-0.3,0-0.5c0-0.1,0-0.2,0-0.3c0-0.7-0.1-2-0.3-3.8c0-0.1-0.1-0.3-0.2-0.8
				c-0.1-0.4-0.2-0.7-0.2-1c0-0.2,0-0.3,0.1-0.5c0-0.2,0.2-0.3,0.3-0.5c0.2-0.2,0.4-0.3,0.6-0.3c0.3,0,0.7,0.1,1.1,0.4
				C327,163.8,327.2,164.1,327.3,164.4"/>
			<path fill="#001F5B" d="M334.7,164.2c0.1,0.2,0.1,0.4,0.1,0.7c0,0.6-0.1,1.4-0.3,2.5c-0.1,0.6-0.2,1.3-0.3,1.9
				c0,1.1-0.1,2.6-0.4,4.7c-0.5,2.6-1.2,5-2.3,7c-1.3,2.4-2.8,4-4.6,4.5c-0.8,0.2-1.5,0.4-2.2,0.4c-0.7,0-1.3-0.1-1.9-0.4
				c-1-0.4-1.7-1.2-2.2-2.2c0.4,0.1,0.9,0.2,1.4,0.4c0.5,0.2,1,0.4,1.2,0.4c0.3,0,0.6,0.1,0.9,0.1c1.5,0,2.9-0.7,4.1-2.1
				c1-1.1,1.7-2.5,2.4-4.1c1.1-2.9,1.6-6,1.6-9.4c0-1.3-0.1-2.5-0.3-3.7c-0.1-0.7,0.1-1.1,0.4-1.4c0.1-0.1,0.3-0.2,0.5-0.4
				c0.2-0.1,0.3-0.1,0.4-0.1c0.1,0,0.2,0.1,0.4,0.2C334.3,163.7,334.6,164,334.7,164.2"/>
			<path fill="#001F5B" d="M350.6,168.6c0,0.1,0,0.2,0,0.4c0,0.2,0,0.6-0.1,1.2c-0.1,0.6-0.1,1-0.1,1.3c0,0.3,0,0.5,0,0.7
				c-0.1,0.4-0.4,1.3-1.1,2.8c-1,2.1-2.2,3.5-3.6,4.1c-0.3,0.1-0.9,0.2-1.8,0.2c-0.3,0-0.4,0-0.3,0.1c-1-0.1-1.7-0.3-2.1-0.5
				c-1.2-0.7-2.2-2-3-3.9c-0.8-1.9-1.2-3.8-1.2-5.8c0-0.8,0.1-1.5,0.2-2.2c0.2-1.1,1-2.2,2.3-3.3c0.8-0.6,1.5-0.9,2.1-0.9
				c0.4,0,0.9,0.2,1.6,0.7c0.1,0,0.3,0,0.5,0.1c0.4,0.2,0.8,0.7,1.1,1.4c0.3,0.6,0.5,1.2,0.6,1.9c0.1,0.4,0,0.9-0.2,1.6
				c-0.2,0.5-0.4,1-0.5,1.4c-0.6,1.8-1.1,3.1-1.4,3.7c-0.7,1.3-1.5,2.2-2.6,2.7c0.3-0.9,0.8-2,1.4-3.5c0.7-1.5,1.1-2.6,1.4-3.4
				c0-0.1,0-0.3,0-0.4c0-0.2,0.1-0.4,0.1-0.7c0-0.9-0.2-1.6-0.6-2.3c-0.4-0.7-0.9-1-1.6-1c-0.4,0-0.8,0.1-1.3,0.4
				c-1.2,0.8-1.8,2.3-1.8,4.4c0,1.1,0.1,2.2,0.4,3.3c0,0.4,0.1,0.9,0.3,1.5c0.7,1.2,1.6,2.2,2.6,2.9c0.2,0.1,0.4,0.2,0.6,0.2
				c0.2,0,0.4,0,0.6,0c0.2,0,0.3,0,0.5,0c1.2,0,2.2-0.6,3.2-1.7c0.9-1,1.4-2.2,1.7-3.5c0-0.2,0-0.7-0.1-1.5c-0.1-1-0.1-1.6-0.1-1.9
				c0-0.4,0-0.6,0.1-0.7c0.2-0.1,0.5-0.2,0.8-0.3c0,0,0,0,0.1,0c0.1,0,0.2,0,0.2,0c0.1,0,0.3,0.1,0.6,0.4
				C350.4,168.4,350.6,168.5,350.6,168.6"/>
			<path fill="#001F5B" d="M363.8,156.7c0.1,0.2,0,0.3-0.1,0.4c-0.3,0.1-0.7,0.2-1.3,0.2c-0.7,0-1.2,0-1.3,0
				c-1.6,0.2-2.9,0.7-4.1,1.5c-1.3,0.9-2.1,2-2.2,3.3c-0.1,1,0,2.1,0.3,3.3c0.2,0.9,0.5,1.8,0.7,2.7c0,0.4,0.1,1.2,0.2,2.2
				c0.1,0.2,0.3,0.4,0.4,0.7c0.4,1.1,0.6,2.2,0.6,3.3c0,0.3,0,0.5-0.1,0.7c0.1,0,0.1,0,0.1,0.1c0,0.1,0,0.1,0.1,0.2
				c-0.1,0.2-0.1,0.3-0.2,0.6c-0.1,0.6-0.3,1.2-0.4,1.8c-0.2,0.7-0.5,1.1-1,1.2c-0.8,0.1-1.2-0.4-1.2-1.5c0-0.3,0-0.5,0.1-0.7
				c0.3-0.9,0.4-1.8,0.4-2.8c0-1.3-0.3-3.2-1-5.8c-0.7-2.6-1-4.4-1-5.5c0-2.3,1-4,2.9-5.2c0.7-0.5,1.3-0.8,1.8-1
				c0.8-0.4,1.5-0.6,2.1-0.6c1.7-0.1,3,0.2,3.9,0.7C363.8,156.4,363.8,156.5,363.8,156.7"/>
		</g>
		<g clip-path="url(#SVGID_2_)">
			<path fill-rule="evenodd" clip-rule="evenodd" fill="#001F5B" d="M213.5,75.4c-0.1,0.4-0.4,1.1-0.4,1.1c0,3.2,2.1,2.9,4,3.8
				l4.7,0.2c2.8,0.2,6.4-0.9,10-0.9V81c0,3.9-1,21.8-2,23.4c-0.1,1-0.4,1.1-0.4,2.2v2c0,1.1,0.3,1.4,0.7,2h0.4c6.6,0,6.1-6.1,7-11.9
				c0.7-4.7,1-13.2,1-18.2l0-0.9l2.9,0.3h2.2c0.6,0,0.6-0.1,1.1-0.2l1.2-3l-0.6-0.8c-1.7-2.4-13.7-1.6-15.4-2.7
				C223,73.2,217.8,72.5,213.5,75.4"/>
			<path fill-rule="evenodd" clip-rule="evenodd" fill="#001F5B" d="M146.9,77.6l0.9,8.5c1.5,2.4,0.3,3.6,4.9,3.6
				c1.8-0.5,1.7-1.7,2-3.1l-0.7-10c-0.6-2.5-1.5-4.5-4.7-4.5c-0.9,0.6-2.7,0.9-2.7,2.7v1.3C146.7,76.8,146.8,76.9,146.9,77.6"/>
			<path fill-rule="evenodd" clip-rule="evenodd" fill="#001F5B" d="M283.5,72.5c-1.4,1.2-2.5,2.5-1.3,4.9
				c2.6,3.7-1.4,12.3,5.1,12.3c3.8,0,2.9-5.2,2.9-8.9l-1.1-6.2c-0.9-1-1.6-2.5-3.6-2.5h-0.4C284.2,72.1,284,72.2,283.5,72.5"/>
			<path fill-rule="evenodd" clip-rule="evenodd" fill="#001F5B" d="M199.5,76.7c-0.5,2.3,1.6,5.3,1.8,7.6c1.2,1.7,1.6,6.3,1.6,9.1
				l0.1,6.7l-0.5,5.1c-0.3,3,2.9,4.2,3.8,5.3c0.6,0.1,1.1,0.4,1.8,0.4c1.7,0,1.2-1.2,2.2-1.6c0-6.8-1.2-10.5-1.8-16.3
				c-0.5-5-1.2-11.5-2.2-16l-0.2-0.9c-0.6-1.2-1.4-2-3.1-2h-0.2C201.1,74.3,200,75.7,199.5,76.7"/>
			<path fill-rule="evenodd" clip-rule="evenodd" fill="#001F5B" d="M342.3,95.7c-1,1.6-3.9,5.3-5.3,7.1c-0.7,1.1-2.2,2.8-2.2,4.5
				v0.4c0,1.7,1,2.7,2.7,2.7c2.1,0,2.8-1.6,3.6-2c1.3-0.9,4-4.4,4.9-5.8c1.2-1.8,2.8-5.4,4.3-6.4c2.1,1.4,3.3,3.7,4.1,6.6
				c0.2,0.8,0.7,3.6,1,4.4c0.3,0.7,0.9,2.1,1.9,3.7c7.7,0,2.5-11.9,0.8-15.6L351,84.5l-5.8-8.2c-2.6-3-4.9-3.4-8.5-3.6
				c-1.7-0.1-3.3,1.9-3.3,3.4v0.4c0,1.7,1.8,2.9,3.6,2.9c2.3,0,3.2,1,3.8,2.6c0,0,2.4,3.7,2.6,3.9c0.9,1.1,1.4,3.6,2.7,3.7v0.9
				C346.1,90.7,342.7,95.2,342.3,95.7"/>
			<path fill-rule="evenodd" clip-rule="evenodd" fill="#001F5B" d="M175,73.4h-0.7l-11.1,0.7l-1.3,2c0,2.4,0.9,4.7,2.9,4.7h3.8
				l0.7,1.3c1.1,4.6,5.3,8,5.3,14.5c0,2.9-2.1,5.4-4.7,5.6c-2.3,0.5-5.8,0.5-8.3,0.9c-2.3,0.4-5,2.2-3.6,5.1l0.7,1.6
				c1,0,1.7,0.4,2.7,0.4h2.5c2.9,0,6.2-0.5,8.5-1.1c6-1.5,8.9-6.2,8.9-12.3c0-5.5-3.1-8.6-3.3-12v-0.4c-0.3-0.5-0.7-1.9-0.7-2.7
				v-0.2c0-1.7,0.5-3.1,2.2-3.1c2.8,0,6.7,0.1,7.8,1.8c1.7,1.1,4,8.9,2.5,11.4L189,99c0,4.7-1.5,12.2,3.5,10.8
				c3.2-0.9,4.1-6.8,4.1-11.1l0.1-8.9l-0.5-5.6c-0.4-0.7-1.1-4.6-2.3-6.6c-1.5-2.5-3-2.6-4.8-4.1c-1.7,0-2.7-0.9-5.1-0.9h-0.2
				L175,73.4z"/>
			<path fill-rule="evenodd" clip-rule="evenodd" fill="#001F5B" d="M249,54.9l-0.7,2.7l0.7,2.2c3.5,5-1.2,18.5,5.6,18.5h2l5.8-0.5
				l1.3,0.1c4.7,0,9.8,1.8,9.8,6.2v4.2c0,1-0.7,4.6-1,5.4c-1.7,4.4-2.6,8.4-8.8,8.4h-1.6c-3.1,0-7.6-5.6-9.8-5.6h-0.4
				c-0.5,0-1.3,1.1-1.3,1.6v0.7c0,1.1,0.2,1.6,0.4,2.5l5.3,7.6c1.4,0.3,1.1,1.3,3.1,1.3h0.7c1.5,0,3.8-0.2,5.1-0.5
				c1.1-0.2,3.5-1.3,4.4-1.4c4.4-3,7.6-5.8,9.3-11.7c1.2-4,1.1-8.8,1.1-14.1c-0.2-2.8-2.3-4.9-4-6.5c-2-2-5.6-2.5-6.7-3.5l-3.6-0.9
				l-3.6-0.4l-6,0.3l0-1l1.3-9.6l-0.1-1.8c0-1.2-2.1-4-2.9-4.7c-0.6-0.5-1.6-0.9-2.7-0.9C250.5,53.6,249.6,54.4,249,54.9"/>
			<path fill-rule="evenodd" clip-rule="evenodd" fill="#001F5B" d="M320.9,74.5c-0.7,2.9,1.5,21.9,2.1,25.9
				c0.9,6.4-1,22.8,1.7,26.7c2.1,2.4,5.4,0.7,5.5-0.5l0.6-17.6l0-3.1l-1.3-14.5L329,75.8c-0.6-0.9-1.6-3.3-3.1-3.3h-2.2
				C322.3,72.5,321.2,73.4,320.9,74.5"/>
			<path fill-rule="evenodd" clip-rule="evenodd" fill="#001F5B" d="M200.2,88.7c1,0,1.7,0.8,1.7,1.7c0,1-0.8,1.7-1.7,1.7
				s-1.7-0.8-1.7-1.7C198.5,89.5,199.2,88.7,200.2,88.7"/>
			<path fill-rule="evenodd" clip-rule="evenodd" fill="#001F5B" d="M263,113.1c1,0,1.7,0.8,1.7,1.7c0,1-0.8,1.7-1.7,1.7
				c-1,0-1.7-0.8-1.7-1.7C261.2,113.8,262,113.1,263,113.1"/>
			<path fill-rule="evenodd" clip-rule="evenodd" fill="#001F5B" d="M263,118.7c1,0,1.7,0.8,1.7,1.7c0,1-0.8,1.7-1.7,1.7
				c-1,0-1.7-0.8-1.7-1.7C261.2,119.5,262,118.7,263,118.7"/>
			<rect x="340.7" y="113.9" fill-rule="evenodd" clip-rule="evenodd" fill="#001F5B" width="13" height="2.6"/>
			<rect x="279.4" y="113.9" fill-rule="evenodd" clip-rule="evenodd" fill="#001F5B" width="13" height="2.6"/>
			<path fill-rule="evenodd" clip-rule="evenodd" fill="#001F5B" d="M340.8,89.1c1,0,1.7,0.8,1.7,1.7c0,1-0.8,1.7-1.7,1.7
				c-1,0-1.7-0.8-1.7-1.7C339,89.9,339.8,89.1,340.8,89.1"/>
			<path fill-rule="evenodd" clip-rule="evenodd" fill="#001F5B" d="M181.2,113.1c1,0,1.7,0.8,1.7,1.7c0,1-0.8,1.7-1.7,1.7
				c-1,0-1.7-0.8-1.7-1.7C179.5,113.8,180.3,113.1,181.2,113.1"/>
			<g>
				<defs>
					<path id="SVGID_7_" d="M315.2,46c-2.2,0.8-3.4,3.3-5.6,4c-0.5,0.2-0.7,0.7-1,0.8c-0.7,0.4-0.5,1.1-0.6,1.6
						c-0.2,0.4,0.2,0.6,0,0.9c-0.3,0.4-0.4,0.8-0.7,1.1c-0.4,0.4-0.7,0.9-0.8,1.3c-0.2,0.8-0.4,1.6-0.8,2.3c-0.5,0.5-1.2,1.2-2,1.5
						c-0.2,1.2-0.8,2.3-1.2,3.4c-0.1,0.2-0.4,0.5-0.5,0.8c-0.1,0.8-0.5,1.6-0.4,2.3c0.2,0.6,0.4,1.2,0.7,1.8c0.6,1,1.6,1.5,2.1,2.5
						c2.1,0.6,3,0.8,5.2,1.1c1,0.2,2.7-0.6,2.9-1.5c1.3-5.8,1.6-3.7-0.1-9.2c-0.4-1-1.4-1.7-1.7-2.8c0-0.1,0.3-0.9,0.5-1
						c0.5-0.1,0.9,0,1.3,0.2c0.4,0.2,0.8,0.3,1.3,0.2c0,0.1,0.1-0.2,0.1-0.3c2.1-1.4,5.2-2,6.4-4.6c0.1-0.2,0.6-0.3,0.7-0.5
						c0.2-0.5,0-1,0.2-1.5c0-0.1,0.3,0,0.3,0c0.2-0.7,0.4-1.5,0.4-2.1c-0.1-0.2-0.3-0.4-0.4-0.6c-0.3-0.6-1.2-1.1-1.6-1.3
						C318.2,46.5,316.7,46,315.2,46C315.3,46.1,315.2,46,315.2,46"/>
				</defs>
				<clipPath id="SVGID_8_">
					<use xlink:href="#SVGID_7_"  overflow="visible"/>
				</clipPath>
				
					<linearGradient id="SVGID_9_" gradientUnits="userSpaceOnUse" x1="140.5489" y1="169.3722" x2="141.6911" y2="169.3722" gradientTransform="matrix(-16.0771 -2.1067 -2.6867 20.5037 3035.5283 -3116.6484)">
					<stop  offset="0" style="stop-color:#FFCA05"/>
					<stop  offset="0.5" style="stop-color:#FFE190"/>
					<stop  offset="1" style="stop-color:#FFFFFF"/>
				</linearGradient>
				<polygon clip-path="url(#SVGID_8_)" fill="url(#SVGID_9_)" points="321.4,74.3 298.1,71.2 301.8,43.3 325.1,46.4 				"/>
			</g>
			<g>
				<defs>
					<path id="SVGID_10_" d="M297.7,36.7c-0.6,0.2-1,0.5-1.4,1c-0.7,0.9-0.5,2.1-0.4,2.9c0.1,2.1,0.1,2.5,0.7,4.4
						c0.2,0.8,0.2,1.5,0.3,2.3c0,0.3,0,0.6,0.2,0.9c0,0.1-0.1,0.2,0,0.3c0.2,0.5,0.3,1.2-0.1,1.7c-0.2,0.4-0.6,0.6-1,0.8
						c-1.2,0.4-2.1,0-3.1,0.7c-0.9,0.6-1.4,1-2.4,1.5c-0.7,0.4-1.6,2-2.3,2.3c-0.7,0.4,0.1,0.9,0,1.7c0,0.2,0.1,1.2,0.2,1.3
						c0.8,0.7,0.5,0.8,1.1,1.6c0,0.1,0.2,0,0.3,0.1c0.6,0.8,1.2,1.6,2.2,2c0.9,0.3,1.9,0.4,2.9,0.5c1,0.1,2-0.1,3-0.1
						c1-2.2,2-4.3,3.2-6.3c0.5-0.8,1.1-1.5,1.9-2.2c0.1,0,0.2,0,0.2-0.1c0.5-0.5,0.8-1.1,1.1-1.7c0.7-1.6,1-1.7,2.2-3.1
						c0.3-0.3,0.7-0.5,0.8-0.9l0.1-0.5c-0.1-0.7-0.3-1.3-0.5-1.9c-0.2-0.4-0.4-0.8-0.5-1.2c-0.2-0.3-0.5-0.6-0.7-1
						c-0.6-1.5-0.5-3-1.2-4.5c-0.8-2-3.1-2.8-5.2-2.9c-0.2,0-0.3,0-0.5,0C298.2,36.3,298,36.5,297.7,36.7"/>
				</defs>
				<clipPath id="SVGID_11_">
					<use xlink:href="#SVGID_10_"  overflow="visible"/>
				</clipPath>
				
					<linearGradient id="SVGID_12_" gradientUnits="userSpaceOnUse" x1="141.4111" y1="170.3752" x2="142.5533" y2="170.3752" gradientTransform="matrix(16.0271 2.6034 3.3586 -20.676 -2550.6299 3202.4929)">
					<stop  offset="0" style="stop-color:#FFCA05"/>
					<stop  offset="0.41" style="stop-color:#FFDD7F"/>
					<stop  offset="1" style="stop-color:#FFFFFF"/>
				</linearGradient>
				<polygon clip-path="url(#SVGID_11_)" fill="url(#SVGID_12_)" points="287.8,33.1 311.4,36.9 306.7,65.8 283.1,62 				"/>
			</g>
			<g>
				<path fill-rule="evenodd" clip-rule="evenodd" fill="#F8A770" d="M303.1,62c0.1,0.5-0.6,0.6-0.8,1.1c-0.1,0.6-0.8,0.6-1.3,0.6
					c-0.3-0.1-0.7-0.1-1-0.1c-0.7-0.1-1.2-0.2-1.9-0.3c0-0.4-0.1-0.9,0-1.3c0.3-0.9,1-1.6,1.8-2.1c0.1,0,0.2,0,0.3,0.1
					c0.4,0.2,0.6,0.5,1,0.6c0.4,0.2,0.7,0.4,0.9,0.7c0,0.1,0.1,0.1,0,0.2L303.1,62z"/>
				<path fill-rule="evenodd" clip-rule="evenodd" fill="#F8A770" d="M305.4,55.7c0,0.1,0,0.3,0.2,0.3c-0.1,0.6,0,1.4-0.3,1.9
					c-0.6,0.9-2.2,1.1-3.1,0c0.1,0-0.1,0-0.2-0.1c-0.3-0.5-0.6-1.2-0.2-1.8c0.3-0.3,0.7-0.6,1-1c0.4-0.2,0.9-0.2,1.4,0.1
					c0.3,0.1,0.6,0,0.8,0.1C305.1,55.4,305.3,55.5,305.4,55.7"/>
				<path fill-rule="evenodd" clip-rule="evenodd" fill="#F8A770" d="M308.1,49.6c0.2,0,0.8,0.5,0.8,0.6c0.1,0.8-0.7,1.3-0.9,2.1
					c-0.1,0.4-0.6,0.4-0.8,0.4c-0.4,0.1-0.7,0-1.1-0.1c-0.4-0.1-0.6-0.5-0.7-1c0-0.1,0-0.3,0.2-0.4c0-0.2,0-0.6,0.1-0.9
					c0.1-0.2,0.3-0.2,0.4-0.3c0.4-0.1,0.6-0.4,1-0.4C307.4,49.6,307.7,49.6,308.1,49.6"/>
				<path fill-rule="evenodd" clip-rule="evenodd" fill="#F8A770" d="M299.7,63.7c0.5,0,0.8,0.3,0.8,0.6c0.1,0.4,0.1,0.6,0.1,1
					c0,0.5-0.4,0.8-0.8,1.2c-0.7,0.7-1.8,0.9-2.5,0.3c-0.9-0.8-1.2-2.2-0.7-3.3c0.2-0.6,0.8-0.9,1.3-1.1c0.5-0.1,1,0.2,1.1,0.7
					c0.1,0.1,0.2,0.3,0.5,0.4c0,0.1-0.1,0-0.1,0.1L299.7,63.7z"/>
				<path fill-rule="evenodd" clip-rule="evenodd" fill="#F8A770" d="M302.1,57.6c0.8,0.2,1.2,1.1,1.5,1.8c0.2,0.4,0.1,0.7,0.2,1
					c0,0.2-0.2,0.4-0.3,0.6c-0.2,0.2-0.6,0.3-0.9,0.4c-0.5,0.1-0.9-0.1-1.4-0.3c-0.5-0.2-0.9-1-1.2-1.6c-0.5-0.9-0.4-1.7,0.6-2.2
					C301.2,57.2,301.7,57.3,302.1,57.6"/>
				<path fill-rule="evenodd" clip-rule="evenodd" fill="#F8A770" d="M307.5,53.5c-0.1,0.8-0.3,1.6-0.9,2.1c-0.1,0-0.2-0.1-0.2-0.1
					c-0.4,0.4-1,0.5-1.5,0.4c-0.3-0.1-0.4-0.3-0.5-0.5c-0.1-0.1-0.2-0.1-0.3-0.2c-0.1-0.1-0.2-0.3-0.3-0.4c0-0.1-0.1-0.4-0.2-0.4
					c-0.4-0.5-0.3-0.8-0.1-1.3c0.2-0.4,0.6-0.9,1.1-1c0.5-0.1,0.9,0.2,1.2,0.5c0.1,0,0.1,0,0.2-0.1c0.1,0.1,0,0.2,0.1,0.2
					c0.4,0.4,0.9,0.6,1.1,1L307.5,53.5z"/>
				<path fill-rule="evenodd" clip-rule="evenodd" fill="#FFFFFF" d="M311.3,44c0.1,0,0.2,0,0.2,0.1c0.5,0.9,0.5,1.9,0.2,2.9
					c-0.3,0.9-1,1.8-1.9,2c-0.6,0.2-1.3,0.3-1.9,0c-0.1-0.1-0.1-0.5-0.2-0.7c0-0.9,0.2-1.9,0.5-2.8c0.2-0.7,0.7-1.3,1.5-1.6
					c0.5-0.1,1.1,0,1.6,0L311.3,44z"/>
				<path fill-rule="evenodd" clip-rule="evenodd" fill="#231F20" d="M318,54.1c0.4-0.3,0.8-0.7,1-1.1c0.4-0.2,0.7-0.9,1.1-0.6
					l0.2-0.7c0.2,0,0.4,0,0.5,0.2c0.2,0.2-0.1,0.4-0.2,0.5c-0.5-0.3-0.5,0.3-0.7,0.6c-0.3,0.3-0.6,0.8-0.9,1.2L318,54.1z"/>
				<path fill-rule="evenodd" clip-rule="evenodd" fill="#231F20" d="M304.1,51.9c0.2-0.1,0.3-0.2,0.5-0.4c0-0.6,0.7-0.8,0.8-1.3
					c0.5-0.4,0.9-0.9,1.4-1.3c0.2-0.5-0.3-1,0.1-1.5c0-0.7,0.4-1.4,0.7-2c0.4-0.1,0.3-0.8,0.8-0.5c0,0.7-0.8,1.3-0.6,2.1
					c-0.5,0.4-0.2,1.1-0.1,1.6c0.2,0.5,0.6,1.2,1.3,1.1c0.6-0.2,1.1-0.6,1.5-1.1c1.1-0.8,1.8-2.2,1.5-3.7c-0.2-0.8-0.8-1-1.6-1.1
					c-0.5,0.3-1.3,0.6-1.7,1.1c-0.1-0.1-0.2-0.2-0.1-0.4c0.3-0.4,0.8-0.6,1.3-0.9c1.2,0.2,0.5-1.3,1.2-1.7c-0.3-0.5,0.1-1,0.2-1.5
					c0-0.5,0.3-1.2,0.3-1.7c-0.3-0.8,0.1-1.6-0.1-2.5c-0.1-0.9-0.9-0.5-1.3-1.1c-0.2-0.4-0.3-0.9-0.1-1.4c0.3-0.4,0.9,0,1.3-0.1
					c0.5,0.5,0.3,1.1,0.4,1.7c-0.3,0.4,0.4,0.7,0.1,1.1c0.4,0.6-0.3,1.2,0.3,1.8c-0.4,0.7-0.1,1.5-0.4,2.2c-0.5,0.5,0.1,1.3-0.7,1.6
					c0.1,0.5,0,1-0.2,1.5c0.3,0.1,0.6,0.2,0.6,0.5c0.1-0.2,0.4,0,0.6-0.2c0.2-0.5,0.4-1.1,1-1.3c0-0.1,0.1-0.2,0-0.2
					c0.8-1,1.6-2.1,2.6-2.9c0.2-0.3,0.5-0.3,0.7-0.6c0.9-0.3,0.4-1.5,1.4-1.7c0.4,0.3,0.9,0.3,1.1,0.8c0.1,0.6-0.2,1.1-0.8,1.3
					c-0.2,0.1-0.6,0-0.8-0.2c-0.8,0.3-1.2,1-1.9,1.5c-1,1.4-2.5,2.3-3.2,3.9c0.1,0.3,0.5,0.6,0.3,1c0.2,0.4-0.2,0.9,0.2,1.4
					c0.5-0.2,0.9-0.8,1.5-0.5c0.1,0.5-0.5,0.3-0.7,0.6c-0.7,0.4-1.5,1-2,1.7c-0.2,0.9-1.3,1-1.8,1.5c-0.3,0.3-0.1,0.9-0.6,1.2
					c0,0.5-0.2,1-0.5,1.4l-0.5-0.1c0.3-0.5,0.3-1.1,0.6-1.7c0.2-0.1,0.3-0.2,0.3-0.5l-0.7-0.2c-0.1-0.4-0.5-0.5-0.8-0.7
					c-0.4,0.1-0.7,0.5-0.9,0.7c-0.4,0.3-0.7,0.7-0.9,1.1l0.3,0.2c-0.1,0.3,0.1,0.5,0.2,0.8l-0.5-0.1c-0.1-0.2-0.1-0.3-0.3-0.4
					c-0.1,0.1-0.2,0.2-0.3,0.3L304.1,51.9z"/>
				<path fill-rule="evenodd" clip-rule="evenodd" fill="#231F20" d="M314.3,63.3c0,0.1,0,0.3-0.1,0.5c-0.1,0.3,0.2,0.4,0.3,0.7
					c-0.1,0.6-0.4,1.2-0.2,1.8c-0.1,0.6-0.7,0.9-0.2,1.5c0.2,0.7-1.1,1.2-0.9,1.9c-0.2,0.4-0.6,0.5-0.7,0.9
					c-0.5,0.1-0.6,0.7-1.2,0.8c0,0.5-1.4,0.6-1.8,0.7c0-0.1-0.2-0.1-0.2-0.1c-0.2,0.6-0.5-0.3-0.8,0.1c-0.4-0.5-0.8,0.5-1.1-0.2
					c-0.8,0-1.9-0.3-2.6-0.7c-0.4-0.7-1.4-0.7-1.5-1.6c0,0-0.4-0.3-0.8-0.8c-0.3-0.5-0.9-1.4-0.9-1.4l-0.1-1.4c0,0-0.9,0.9-1.4,0.9
					c-0.5,0.1-1.4,0.4-1.8,0.4c-0.4,0-1.5-0.3-2-0.7c-0.2-0.2-0.5-1.4-0.5-1.4l-0.2-0.8l0.6-1.1c0,0-0.8-0.5-1.1-0.2
					c-0.3,0.3-0.4,0.4-0.7,0.3c-0.3-0.1-0.3-0.1-0.6-0.2c-0.2-0.1-0.6-0.2-0.6-0.2s-0.2,0.1-0.7,0c-0.6-0.2-0.5-0.3-0.9-0.4l-1.3-1
					c0-0.3-0.4-0.2-0.5-0.3c-0.3-0.4-0.9-0.5-0.9-1.1c-0.5-0.2-0.4-0.8-0.3-1.3l0.3,0.1c0.2,0.3,0.1,0.9,0.6,0.9
					c0.2,0.8,1.2,0.5,1.5,1.3c0.2,0.4,0.6-0.2,0.8,0.3c0.6-0.1,0.8,0.5,1.4,0.2c0.3,0.6,1.1,0.1,1.4,0.5c0.1-0.2,0.2-0.2,0.4-0.2
					c0.3,0.3,0.7-0.2,1.1,0c0.6,0.3,0.8-0.5,1.3-0.2c0.1-0.5,0.5-0.9,0.7-1.4l0.6,0.1c0,0.1,0,0.3,0,0.4c-0.3,0.2-0.5,0.3-0.3,0.7
					c0.1,0.5,1,0.9,0.6,1.3c-0.8,0.3-0.5-0.8-1-1c-0.3,0.6-0.7,1-1.1,1.5c0,0.6-0.6,1.2-0.1,1.8c0,0.4,0.4,0.5,0.5,0.8
					c0.7,0.2,1.5,0.5,2.1-0.1c0.7,0.1,0.6-0.8,1.2-0.8c0.1-0.5,0.6-0.4,0.7-1c-0.1-0.2-0.3-0.2-0.4-0.3c-0.6-0.2-1-0.1-1.5-0.5
					c0-0.2-0.4-0.4,0-0.5c0.7,0.3,1.5,0.8,2.3,0.7c0.2-0.3,0.6-0.5,0.8-0.9c0-0.4,0.6-0.6,0.5-1.1c-0.2,0.1-0.5-0.3-0.7,0
					c-0.3-0.2-0.6-0.2-0.7-0.6l0.9,0.1c0.1,0.1,0.2,0.1,0.3,0.1c0.2,0.2,0.4,0.1,0.5,0l0.6,0.1c0,0.1-0.1,0.2-0.1,0.3
					c-0.4,0.4-0.5,1.1-0.7,1.6c-0.7,0.4-0.3,1.1-0.5,1.7c-0.2,0.8,0.3,1.6,0.6,2.4c0.3,0.3,0.5,0.9,0.9,1c0.1,0.9,1.2,0.9,1.5,1.6
					c0.7,0.4,1.4,0.7,2.2,0.7c0.3,0.6,0.7-0.3,1.1,0.2c0.3-0.4,0.6,0.5,0.8-0.1c0.1,0,0.2,0,0.2,0.1c0.3-0.1,0.9-0.1,0.9-0.6
					c0.5,0,0.7-0.7,1.2-0.8c0.1-0.4,0.5-0.5,0.7-0.9c-0.2-0.7,0.7-1,0.5-1.7c-0.5-0.5,0.2-0.9,0.2-1.5c-0.2-0.7-0.2-1.3-0.2-1.9
					c-0.1-0.3-0.3-0.4-0.3-0.6L314.3,63.3z"/>
				<path fill-rule="evenodd" clip-rule="evenodd" fill="#231F20" d="M312.8,63c0,0,0-0.1,0-0.1c0.1-0.4,0-0.8,0.1-1.1
					c-0.4-0.2-0.3-0.7-0.5-1c0.2-0.7-0.4-0.9-0.3-1.5c-0.3-0.4-0.4-1-0.7-1.4c0.2-0.5-0.3-0.6-0.4-1c0.2-0.5,1-0.1,1.4-0.4
					c0.9,0.4,1.6-0.5,2.4-0.6c0.5-0.3,1.2-0.6,1.7-0.9c0.5-0.2,1.1-0.5,1.6-0.9l1,0.2c-0.5,0.6-1,1.1-1.5,1.3
					c-0.4,0.4-1.2,0.7-1.7,0.9c-0.8,0.1-1.2,1.3-2.1,0.9c-0.4,0.3-1.2,0-1.4,0.4c0.2,0.4,0.7,0.5,0.4,1c0.3,0.3,0.3,1,0.7,1.4
					c0,0.6,0.6,0.8,0.3,1.5c0.2,0.3,0.1,0.7,0.5,1c0,0.2,0,0.4,0,0.7L312.8,63z"/>
				<path fill-rule="evenodd" clip-rule="evenodd" fill="#231F20" d="M303.2,61.5c0.1-0.1,0.3-0.3,0.4-0.4l0.3,0.2
					c0,0.1,0,0.2-0.1,0.3L303.2,61.5z"/>
				<path fill-rule="evenodd" clip-rule="evenodd" fill="#231F20" d="M301.5,61.2c0,0,0-0.1,0-0.1c0.3-0.3,0.5,0.1,0.9,0.3
					L301.5,61.2z"/>
				<path fill-rule="evenodd" clip-rule="evenodd" fill="#231F20" d="M298.2,60.7c0.1-0.2,0.2-0.4,0.3-0.6c0.4-0.2,0.5-0.5,0.5-0.9
					c1-0.2,0.3-1.7,1.4-1.9c0-0.7,0.8-1,0.9-1.7c1-0.2,0.7-1.6,1.7-1.7l-0.1-0.1c0-0.3,0.1-0.7,0.4-0.9c0-0.5,0.4-0.7,0.7-1l0.7,0.1
					c-0.4,0.4-0.9,0.7-1.1,1.3c-0.2,0.5,0.3,0.9,0.4,1.3c0.1,0.2,0.4,0.2,0.3,0.5c-0.4,0.1-0.6-0.3-0.8-0.4
					c-0.1-0.2-0.1-0.6-0.4-0.6c0,0.4-0.6,0.5-0.5,1c-0.6,0.5-0.8,1.4-0.6,2c0,0.3,0.4,0.3,0.2,0.6c-0.4,0-0.6-0.5-1-0.8
					c0,0.2-0.3,0.2-0.4,0.3c-0.2,0.7-0.9,1.2-0.8,2c0.1,0.5,0.9,0.6,0.7,1.2c-0.5,0.2-0.6-0.5-0.9-0.7c-0.2-0.1,0.1-0.4-0.2-0.4
					c-0.4,0.4-0.7,0.8-0.9,1.3L298.2,60.7z"/>
				<path fill-rule="evenodd" clip-rule="evenodd" fill="#231F20" d="M288.6,59.1C288.6,59.1,288.6,59.1,288.6,59.1
					c0.2-0.1,0.3,0,0.3,0.1L288.6,59.1z"/>
				<path fill-rule="evenodd" clip-rule="evenodd" fill="#231F20" d="M308.5,52.6c-0.2,0.4-0.4,0.7-0.4,1.1
					c-0.7,0.5-0.7,1.5-1.4,2.1c-0.1,0-0.2-0.1-0.3-0.2c0.1-0.7,0.9-1.2,0.8-1.9c-0.6-0.1-0.9-0.6-1.1-1c0.5-0.1,0.8,0.4,1.2,0.5
					c0.3-0.2,0.5-0.4,0.6-0.7L308.5,52.6z"/>
				<path fill-rule="evenodd" clip-rule="evenodd" fill="#231F20" d="M305.9,52.2c0.1,0.1,0.1,0.2,0.1,0.3c-0.4,0.1-0.5-0.1-0.6-0.4
					L305.9,52.2z"/>
				<path fill-rule="evenodd" clip-rule="evenodd" fill="#FFFFFF" d="M310.5,34.6c0.2,0.1,0.4,0.3,0.6,0.2c0.1-0.1,0.3-0.2,0.2-0.4
					c-0.1-0.2-0.3-0.5-0.5-0.2C310.5,34.2,310.6,34.4,310.5,34.6"/>
				<path fill-rule="evenodd" clip-rule="evenodd" fill="#FFFFFF" d="M317.6,38L317.6,38c0.2,0.2,0.1,0.8,0.6,0.5
					c0.3-0.1,0.1-0.5,0-0.6C317.9,37.8,317.6,37.8,317.6,38"/>
				<path fill-rule="evenodd" clip-rule="evenodd" fill="#231F20" d="M298.7,35.9c-0.1,0.1-0.1,0.3,0.1,0.4c0.3-0.2,0.8-0.1,1.1-0.1
					c0.2,0.1,0.7,0.1,0.8,0.4c0.6-0.3,0.7,0.7,1.2,0.4c0.2-0.5-0.5-0.5-0.5-0.9c-0.5,0.1-0.7-0.5-1.1-0.4c-0.2-0.4-0.6,0.1-0.9-0.2
					L298.7,35.9z"/>
				<path fill-rule="evenodd" clip-rule="evenodd" fill="#231F20" d="M297.8,36.3l0,0.3c0.3,0.2,0.5,0.1,0.7-0.2
					C298.6,36,297.9,35.9,297.8,36.3"/>
				<path fill-rule="evenodd" clip-rule="evenodd" fill="#231F20" d="M305.3,40.4c-0.1-0.7-0.7-1.1-0.7-1.7c-0.9-0.4-1-1.6-2-1.8
					l-0.4,0c-0.3,0.5,0.3,0.5,0.5,0.8c0.1,0.5,0.7,0.4,0.7,0.9c0.8,0.9,1.4,2,1.9,3.1l0.4,0.3c-0.1,0.1-0.2,0.2-0.2,0.4
					c0.5,0.7,0.4,1.5,0.7,2.2c0.1,0,0.2,0.1,0.2,0.2c-0.4,0.2-0.1,0.6-0.2,1c0.2,0.2,0,0.8,0.5,0.7c0.3-0.4,0.1-0.9,0.2-1.4
					l-0.4-0.4c0.2,0,0.2-0.4,0.2-0.6c-0.3-0.5-0.2-1.1-0.3-1.6c-0.2-0.4-0.1-0.9-0.5-1.2L305.3,40.4z"/>
				<path fill-rule="evenodd" clip-rule="evenodd" fill="#231F20" d="M297.1,36.7c-0.1,0.2,0,0.4,0.1,0.6c0.3,0,0.4-0.4,0.5-0.6
					C297.5,36.5,297.3,36.5,297.1,36.7"/>
				<path fill-rule="evenodd" clip-rule="evenodd" fill="#231F20" d="M295.6,40.2c0.1,0.4-0.1,1.1,0.4,1.3c-0.2,0.5-0.5,1.2-0.3,1.7
					c0.2,0.3-0.2,0.8,0.1,1.1c-0.5,0.7,0.6,1,0.2,1.7c0.1,0.2,0.1,0.5,0.4,0.6c0.2,0.1,0.4,0,0.5-0.1c0.1-0.7-0.6-1.1-0.2-1.7
					c-0.5-0.5-0.3-1.2-0.4-1.7c0.3-0.5-0.4-0.9,0-1.4c-0.4-0.2,0-0.5-0.2-0.8c0.2-1,0.2-1.9,0.7-2.8c0.2-0.1,0.4-0.3,0.2-0.5
					c-0.9-0.2-0.8,0.8-1,1.3c0,0.2-0.1,0.5-0.3,0.5L295.6,40.2z"/>
				<path fill-rule="evenodd" clip-rule="evenodd" fill="#231F20" d="M300.5,39.8c-0.2,0.2-0.7,0-0.7,0.5c-0.8,0.2-0.7,1.1-0.7,1.7
					c0,0.2,0.2,0.4,0.4,0.3c0.2-0.4-0.1-0.9,0.3-1.2c0.2-0.4,0.7-0.6,1.2-0.8c0.2,0.3,0.6,0.1,0.8,0.4c0.6,0,1.1,0.6,1.4,1
					c0.1-0.2,0.3-0.4,0.2-0.6C302.5,40.5,301.7,39.6,300.5,39.8"/>
				<path fill-rule="evenodd" clip-rule="evenodd" fill="#231F20" d="M303.3,41.9c0,0.3,0.5,0.5,0.3,0.9c0.3,0.4,0.4,0.9,0.3,1.3
					l0.2,0.3c0.1-0.3,0.5-0.4,0.4-0.8c-0.3-0.2-0.2-0.5-0.2-0.8c-0.3-0.3-0.1-1.2-0.9-1.1L303.3,41.9z"/>
				<path fill-rule="evenodd" clip-rule="evenodd" fill="#231F20" d="M301.2,42.9c-0.1,0.2,0,0.4,0.2,0.6c0.2,0,0.4,0,0.6,0
					c0.3,0.3-0.1,0.7-0.1,1c-0.6,0.1-1,0.1-1.4-0.4c-0.4,0-0.4-0.5-0.7-0.6c-0.3-0.2,0.1-0.8-0.4-0.7c-0.2,0.8,0.2,1.6,0.9,2.1
					c0.3,0,0.6,0.7,1,0.2c0.2,0.1,0.3,0.2,0.4,0.2c0.2-0.5,1.2-0.5,0.8-1.2c0.2-0.3-0.2-0.6-0.2-0.9C302,42.7,301.6,42.6,301.2,42.9
					"/>
				<path fill-rule="evenodd" clip-rule="evenodd" fill="#231F20" d="M317.5,45.5c-0.1,0.1-0.3,0.1-0.5,0.1c-0.3,0.3-1-0.1-1,0.5
					c0.8,0,1.5,0.1,2.2,0.4c0.4-0.1,0.8,0.2,1.2,0c0.2-0.8-0.6-0.5-0.9-1C318.1,45.4,317.9,45.8,317.5,45.5"/>
				<path fill-rule="evenodd" clip-rule="evenodd" fill="#231F20" d="M319.7,46.4c-0.1,0.4,0.5,0.5,0.8,0.7c0.6,0.2,1.2,0.6,1.2,1.3
					c0,0.8,0,1.7-0.7,2.1c0.3,0.6-1,0.8-0.1,1.1c0.9-0.8,1.7-1.9,1.6-3.1c-0.1-0.1-0.1-0.4-0.1-0.6c-0.5-0.3-0.8-1-1.4-1.1
					C320.7,46.5,320.1,46.4,319.7,46.4"/>
				<path fill-rule="evenodd" clip-rule="evenodd" fill="#231F20" d="M315.2,46c0,0.1,0,0.2,0.1,0.2c0.2,0.1,0.5-0.1,0.4-0.3
					C315.6,45.7,315.3,45.8,315.2,46"/>
				<path fill-rule="evenodd" clip-rule="evenodd" fill="#231F20" d="M309.4,45c-0.3,0.4,0.2,0.6,0.4,0.7c0.2,0.1,0.3-0.2,0.4-0.2
					c0.1-0.2,0-0.5-0.2-0.6C309.8,44.8,309.5,44.8,309.4,45"/>
				<path fill-rule="evenodd" clip-rule="evenodd" fill="#231F20" d="M314.4,46.2c0,0.1,0,0.1,0.1,0.2c0.2,0.1,0.3,0,0.4-0.1
					C315.1,45.8,314.3,45.8,314.4,46.2"/>
				<path fill-rule="evenodd" clip-rule="evenodd" fill="#231F20" d="M310.8,46.2c0.1,0.2,0.4,0.1,0.6,0.2c0.2-0.2,0.2-0.4,0.1-0.6
					C311.2,45.3,310.4,45.8,310.8,46.2"/>
				<path fill-rule="evenodd" clip-rule="evenodd" fill="#231F20" d="M303.9,44.9c-0.1,0.2,0.1,0.2,0.2,0.2c0.2,0.1,0.3-0.1,0.4-0.2
					C304.6,44.5,304,44.6,303.9,44.9"/>
				<path fill-rule="evenodd" clip-rule="evenodd" fill="#231F20" d="M308.5,46.7c0,0.6,0.2,1.2,0.6,1.5c0.5,0,1.2,0.2,1.6-0.3
					c-0.1-0.2-0.5,0-0.7,0c-0.5,0-0.9-0.1-1.1-0.6C308.7,47,308.8,46.4,308.5,46.7"/>
				<path fill-rule="evenodd" clip-rule="evenodd" fill="#231F20" d="M304,46.1c0.2,0.2-0.3,0.5,0,0.7c0.2,0.5-0.2,1,0.1,1.5
					c-0.2,0.3-0.3,0.5-0.1,0.8l0.1,0.1c0.4-0.3,0.5-0.9,0.4-1.4c0.4-0.7-0.1-1.3,0.2-2l-0.3-0.5C304,45.5,303.9,45.9,304,46.1"/>
				<path fill-rule="evenodd" clip-rule="evenodd" fill="#231F20" d="M315,48.5c-0.3-0.2-0.8-0.2-1.1,0c-0.1,0.5-1,0.6-0.7,1.2
					c0.4,0,0.4-0.7,0.9-0.5c0.7-0.6,1.4-0.3,2.2-0.6c0.4,0.2,1.2,0.3,1.3,0.9c0.2-0.1,0.2-0.1,0.3-0.3c-0.1-0.6-0.6-0.8-1.2-1.1
					C316.1,48.4,315.6,48.2,315,48.5"/>
				<path fill-rule="evenodd" clip-rule="evenodd" fill="#231F20" d="M317.2,50.6c-0.7,0.4-1.4,1.1-2.2,0.5
					c-0.3-0.3,0.3-0.6,0.4-0.8c0.3,0.1,0.2-0.5,0.6-0.2c0.1,0.2,0.2,0.4,0.4,0.2c0.2-0.3,0-0.5-0.3-0.6c-0.7-0.2-1.1,0.5-1.4,0.9
					c-0.2,0.2-0.3,0.5-0.3,0.8c0.4,0.3,0.5,0.6,1,0.6c0.7-0.2,1.7-0.1,2-1c0.4,0.1,0.5-0.2,0.7-0.4c0-0.3,0-0.5-0.3-0.7
					C317.5,49.9,317.3,50.4,317.2,50.6"/>
				<path fill-rule="evenodd" clip-rule="evenodd" fill="#231F20" d="M296.7,46.8c-0.1,0.6,0.5,1.1,0.3,1.7c0.2,0.2,0.7,0.4,0.5,0.8
					c-0.4,0.2-1,0-1.3,0.5c-1-0.8-1.2,0.8-2.2,0.2c-0.2,1.2-1.7,0-1.6,1.2c0.2,0.9,0.7-0.2,1.2,0.1c0-0.2,0.3-0.3,0.4-0.4
					c0.7,0.2,1-0.8,1.7-0.4c0.5-0.4,1.1-0.1,1.7-0.4c0.4,0,0.9,0.5,1.2-0.1c0.5-0.7-0.8-0.6-0.4-1.3c-0.6-0.2-0.3-1-0.9-1.2
					c0.1-0.3,0.1-0.5-0.2-0.7C296.9,46.7,296.7,46.6,296.7,46.8"/>
				<path fill-rule="evenodd" clip-rule="evenodd" fill="#231F20" d="M311.7,50.2c0.2,0.6-0.8,0.6-0.4,1.3c0.1,0.1,0,0.3,0.1,0.3
					l0.1,0c0.1-0.7,0.6-1.2,1.2-1.6c0.1-0.2,0.3-0.3,0.2-0.5c-0.1-0.1-0.3-0.1-0.4-0.1C312.3,49.9,311.9,50,311.7,50.2"/>
				<path fill-rule="evenodd" clip-rule="evenodd" fill="#231F20" d="M303.8,49.5c0,0.2,0,0.3,0.1,0.4c0.2,0.1,0.2-0.2,0.4-0.3
					C304.2,49.4,303.9,49.3,303.8,49.5"/>
				<path fill-rule="evenodd" clip-rule="evenodd" fill="#231F20" d="M303.7,50.4c0,0.1,0,0.2,0.1,0.3c0.1,0.1,0.2-0.1,0.3-0.1
					C304.3,50.3,303.8,50.1,303.7,50.4"/>
				<path fill-rule="evenodd" clip-rule="evenodd" fill="#231F20" d="M289.7,52.5c-0.1,0.4,0.1,0.6,0.3,0.9c0.3-0.1,0.4-0.4,0.5-0.6
					c0.5-0.3,1-0.7,1.4-0.9c0.1-0.2,0.3-0.3,0-0.5C291.1,51.4,290.6,52.2,289.7,52.5"/>
				<path fill-rule="evenodd" clip-rule="evenodd" fill="#231F20" d="M296.5,53.3c-0.4-0.1-0.7,0.1-0.9,0.4c0,0.1,0,0.2,0.1,0.2
					c0.5-0.1,1.3-0.4,1.8-0.2c0.2,0,0.6-0.1,0.8,0c0.1-0.2-0.2-0.3-0.3-0.4C297.4,53.6,297,52.7,296.5,53.3"/>
				<path fill-rule="evenodd" clip-rule="evenodd" fill="#231F20" d="M298.9,53.7c0.1,0.4,0.7,0.3,1,0.7c0.1,0.2,0.3,0.4,0.5,0.3
					c0.1-0.5-0.3-0.7-0.6-1.1C299.6,53.5,299.2,53.6,298.9,53.7"/>
				<path fill-rule="evenodd" clip-rule="evenodd" fill="#231F20" d="M298.4,53.6l0,0.1l0.4,0.1c0-0.1,0.1-0.3-0.1-0.3
					C298.5,53.4,298.5,53.5,298.4,53.6"/>
				<path fill-rule="evenodd" clip-rule="evenodd" fill="#231F20" d="M304.6,55.4c0.1,0.5,0.6,0.5,1,0.6c0.5-0.2,0.6,0.9,0.9,0.2
					c0-0.8-1.2-0.4-1.6-1C304.8,55.2,304.6,55.3,304.6,55.4"/>
				<path fill-rule="evenodd" clip-rule="evenodd" fill="#231F20" d="M294.1,54c-0.1,0.7-1.3,1-0.8,1.8c0.1,0.3-0.5,0.3-0.3,0.7
					c0,0.6,0.7,0.7,0.8,1.2l1.1,0.5c0.5-0.2,1.2-0.1,1.5-0.6c-0.1,0,0-0.1,0-0.2c-0.4-0.2-0.4,0.4-0.8,0.3c-0.6-0.2-1.3-0.2-1.7-0.8
					c0-0.3-0.4-0.6-0.2-1l-0.1-0.2c0.4-0.3,0.5-0.9,1-1c0-0.5,0.8-0.1,0.6-0.6C294.8,53.7,294.4,54.1,294.1,54"/>
				<path fill-rule="evenodd" clip-rule="evenodd" fill="#231F20" d="M288.9,53.6c-0.2,0.4,0.3,0.5,0.5,0.6c0.2-0.1,0.2-0.4,0.3-0.6
					C289.5,53.4,289.1,53.2,288.9,53.6"/>
				<path fill-rule="evenodd" clip-rule="evenodd" fill="#231F20" d="M305.1,57.6c0,0.5-0.4,0.8-0.7,1.2c-0.9,0-1.3-0.7-2-0.9
					c-0.3,0.7,0.7,0.7,0.9,1.2c0.3,0.2,1.2-0.1,0.9,0.5c0.3,0,0.6-0.1,0.7-0.3c-0.2-0.7,0.7-0.7,0.6-1.3c0.5-0.2,0.5-0.7,0.5-1.2
					c-0.1-0.2-0.2-0.2-0.4-0.1C305.7,57.1,305.4,57.4,305.1,57.6"/>
				<path fill-rule="evenodd" clip-rule="evenodd" fill="#231F20" d="M288.2,54.9c0,1.2-1,3,0.4,4c0.3-0.1,0.1-0.3,0.1-0.5
					c-0.2-0.1,0.1-0.3-0.1-0.5c-0.2-0.6-0.1-1.1-0.1-1.7c0.5-0.2-0.1-0.9,0.5-1c0.1-0.2,0.2-0.5-0.1-0.6
					C288.6,54.2,288.4,54.7,288.2,54.9"/>
				<path fill-rule="evenodd" clip-rule="evenodd" fill="#231F20" d="M295.3,56.2c0,0.1-0.1,0.3,0.1,0.4c0.5,0.3,0.4-0.9,0.9-0.2
					c0.3,0.2,0.1,0.5,0.2,0.7l0.2,0c0.2-0.3,0.1-0.8-0.3-1.1C296,56,295.6,55.7,295.3,56.2"/>
				<path fill-rule="evenodd" clip-rule="evenodd" fill="#231F20" d="M306.9,58.7c0,0.1,0,0.1,0.1,0.1c0.1,0,0.2,0.1,0.2-0.1
					c0-0.1,0-0.2-0.1-0.2C307,58.6,307,58.6,306.9,58.7"/>
				<path fill-rule="evenodd" clip-rule="evenodd" fill="#231F20" d="M306.5,59c0,0.1-0.1,0.2,0,0.2l0.2,0l0.1-0.4
					C306.7,58.9,306.5,58.9,306.5,59"/>
				<path fill-rule="evenodd" clip-rule="evenodd" fill="#231F20" d="M307.6,60.1c0,0.3-0.1,0.5-0.4,0.5c-0.1,0.8-0.5,1.7,0.3,2.2
					c0.1,0.2,0.5,0.2,0.7,0.2c0.3-0.1,0.3-0.3,0.3-0.6c-0.3-0.3-0.8,0.3-1-0.2c-0.1-0.6,0-1.3,0.4-1.8c0.2-0.2,0.5-0.2,0.9-0.1
					c0.1,0.6,0.9,0.7,0.8,1.3c0.3,0.1,0.2-0.3,0.4-0.4c-0.5-0.5-0.6-1.9-1.6-1.5C308.2,60,307.9,60,307.6,60.1"/>
				<path fill-rule="evenodd" clip-rule="evenodd" fill="#231F20" d="M305.6,60.5c-0.5,0.2,0.2,0.7-0.3,0.9c0,0.5-0.5,1.3,0.3,1.6
					c0-1,0.3-2.1,0.6-3c0.2-0.1,0.2-0.3,0.2-0.4C305.9,59.6,305.7,60.2,305.6,60.5"/>
				<path fill-rule="evenodd" clip-rule="evenodd" fill="#231F20" d="M304.1,59.9c-0.1,0.1,0,0.2,0.1,0.3c0.2,0.1,0.3-0.1,0.3-0.2
					C304.6,59.7,304,59.6,304.1,59.9"/>
				<path fill-rule="evenodd" clip-rule="evenodd" fill="#231F20" d="M303.8,60.5c-0.1,0.2,0,0.4,0.2,0.3c0.1-0.1,0.3-0.3,0.1-0.4
					C304,60.4,303.9,60.4,303.8,60.5"/>
				<path fill-rule="evenodd" clip-rule="evenodd" fill="#231F20" d="M309.6,62c0.2,0.4,0,0.9,0.3,1.3c-0.1,0.4-0.3,0.8-0.1,1.3
					c0.2,0.1,0.3-0.1,0.4-0.2c0.5-0.8-0.4-1.5-0.2-2.4C310.1,61.8,309.6,61.7,309.6,62"/>
				<path fill-rule="evenodd" clip-rule="evenodd" fill="#231F20" d="M301.1,60.7c0,0.1,0,0.2,0.1,0.2l0.2,0
					C301.5,60.7,301.3,60.5,301.1,60.7"/>
				<path fill-rule="evenodd" clip-rule="evenodd" fill="#231F20" d="M305.3,63.4c0.3,0.4-0.5,0.9,0.2,1.2c0,0.6,0.1,1.2,0.6,1.5
					c0.2,0.2,0.4,0,0.6,0c-0.1-0.6-0.6-1.1-0.8-1.8c-0.3-0.3-0.1-0.8-0.2-1.2C305.5,63.2,305.2,63.2,305.3,63.4"/>
				<path fill-rule="evenodd" clip-rule="evenodd" fill="#231F20" d="M309.5,65.1l0.4,0.4c0.1-0.1,0.2-0.2,0.3-0.3
					C310,65,309.6,64.7,309.5,65.1"/>
				<path fill-rule="evenodd" clip-rule="evenodd" fill="#231F20" d="M308.3,66.7c-0.5,0.2-0.9-0.3-1.4-0.5
					c-0.4,0.4,0.1,0.6,0.3,0.9c0.4-0.2,0.6,0.3,1.1,0.2c0.3,0,0.5-0.2,0.7-0.5c0.5,0.1,0.3-0.5,0.7-0.7l-0.2-0.7
					C309.1,65.9,308.9,66.6,308.3,66.7"/>
			</g>
		</g>
		<g clip-path="url(#SVGID_2_)">
			<path fill="#FFFFFF" d="M385.4,33.8c-1.5,0.4-3.1,1.4-4.7,0.8c-0.3-0.1-0.6-0.9-0.7-1.1c1.5-1.3,3.7-1.4,5.5-2.1
				c2-0.8,5.8-4.1,6.6-6c0.5-1.4-0.3-2.7-1.6-3.2c-3.1-1.2-4,0.3-6.8,0.5c1.2-2,3.7-3.6,6-3.7c1,0,2,0.2,3,0.6c3,1.2,4.2,3.7,3,6.8
				C393.8,31,389.9,32.6,385.4,33.8z M395.8,37.9c-1.9,0.4-4,1.4-5.9,0.6c-0.1-0.1-0.3-0.2-0.5-0.3c4.2-1.5,8.6-3.8,10.3-8.2
				c2.5-6.1-1.7-13.7-7.6-16.1c-1-0.4-2.3-0.7-3.3-0.2c-0.1,0-0.3,0.1-0.3,0.3c-0.1,0.2-0.7,0.2-0.8,0.2c-0.1-0.1-1.1-0.6-1.1-0.7
				c-0.5-0.6-0.2-0.8-0.1-1.5c0.2-0.1,0.9-0.6,1.1-0.8c1.1-0.9,2.4-1.3,3.9-1.1c0.4,0.1,0.8,0.2,1.2,0.3c1.7,0.7,3.8,2.2,5.1,3.4
				c5.8,5.3,7.5,9.6,5.9,17.6c-0.1,0.3-0.1,0.5-0.2,0.8C402.2,34.8,398.6,37.3,395.8,37.9z"/>
			<path fill="#FFFFFF" d="M424.7,36.1c-0.5,1.3-1.6,3.9-2.4,4.9c-1.5,1.7-7,6-9.4,5.1c-0.5-0.2-0.8-0.6-1.2-0.8
				c3.4-3.5,7.9-3.7,9.9-8.9c1.3-3.2,0.7-5.6-2.1-7.6c-0.4-0.3-0.9-0.5-1.4-0.8c-1.5-0.6-4.2-0.6-5.8-0.1c-0.2-0.2-0.5-0.2-0.7-0.3
				c-0.3-0.1-0.2-0.5-0.1-0.7c0.9-2.3,3.6-2.9,5.7-2.6c0.7,0.1,1.4,0.1,2.1,0.4c0.3,0.1,0.7,0.4,1,0.6c2.5,1.6,5.1,4,5.3,7.1
				c0,0.4,0,1.3-0.1,1.6L424.7,36.1z"/>
			<path fill="#FFFFFF" d="M437.6,46.9c-0.1,0.3-0.1,0.4-0.2,0.7c-0.3,0.6-0.6,1.3-0.8,1.9c-0.8,2-1.7,1.9-3.3,2.7
				c-1.3,0.6-4.7,1.8-5.9,1.3c-0.4-0.2-0.7-0.4-1.1-0.7l3.4-1.6c2-0.9,3.7-1.7,4.6-3.9l0.1-0.4c-0.1-0.1-0.2-0.2-0.4-0.3
				c-1.8-0.7-3.7-1.3-5.5-2.1c-0.4-0.2-0.8-0.2-1.2-0.4c-0.8-0.3-0.7-1.6-0.4-2.2c1.1-2.7,4.8-1,6.7-0.2c1.7,0.7,2.2,1,3.2,2.6
				c1.8,0,5.7,0.4,6.5-1.6c0.4-1.1-2.3-4-3.1-4.7c-0.8-0.5-1.6-1-2.4-1.3c-1.7-0.7-3-1.2-4.8-1c-0.9,0-2.1,0.5-3.1,0.1
				c-0.5-0.2-0.4-0.9-0.2-1.3c0.5-1.2,2.9-1.7,4-1.8c1.8-0.1,2.9,0.2,4.6,0.7c0.3,0.1,0.7,0.2,1.1,0.4c2.8,1.1,5.9,4.4,7,7.4
				c0.3,0.9-0.1,1.9-0.4,2.7C445.2,45.3,439.2,47.2,437.6,46.9z"/>
			<path fill="#FFFFFF" d="M461.5,67c-3.2-0.2-10.7-1.3-13.2-3c-0.9-0.6-1.8-1-2.7-1.6c-2.2-1.5-1.9-4.9-0.5-6.8
				c2.2-3.2,7.6-1.9,10.9-2.5c-1.8-2.2-2.8-4.8-3-7.6c0-0.1,0-1.1,0-1.3c0.2-0.3,0.2-0.6,0.5-0.8c0.6-0.9,3.2-2.6,4.3-1.8
				c0.4,0.3,0.6,0.8,0.5,1.4c-0.8-0.1-1.3,0.7-1.7,1.3c-1.9,2.7,1.8,7.1,3.9,8.6c1.5,1,3.6,1,5.2,2c0.9,0.7,1.2,1.7,1.1,2.7
				c-0.6,0.9-1.4,1-2.4,0.7c-2.4-0.8-4.1-2-6.8-2.1c-2.8,0-8.2-0.7-10,1.9c-0.6,0.9,0.1,1.7,0.8,2.3c2.2,1.5,7.7,2.8,10.6,3.2
				c2.6,0.4,5,1.2,7.6,1.7c0.3,0,0.7,0,1,0.3c0.2,0.1,0.2,0.3,0.1,0.5C467,67.1,462.8,67.2,461.5,67z"/>
		</g>
		<g clip-path="url(#SVGID_2_)">
			<path fill="#F1E436" d="M72.6,31.7c1.5-2.7,3.4-5.1,5.8-7.1c1.9,1.4,3.6,3.2,4.8,5.3c2.5-1.7,5-3.3,7.5-5c0.8,2,1.8,4.1,3.7,5
				c1.8,0.8,3.9,0.3,5.8-0.3c2.2-0.7,4.4-1.3,6.7-2c-1.5,1.8-1.7,4.6-0.5,6.6c0.2,0.4,0.5,0.7,0.9,0.9c0.4,0.1,0.8,0,1.2-0.1
				c3.2-0.9,6.7-0.3,9.3,1.7c-1.3,1.9-1.3,4.6-0.1,6.5c1.7,0,3,1.5,3.9,3c0.9,1.5,1.6,3.2,3.1,4c-0.7,0.9-1.3,1.9-1.8,2.9
				c-0.2,0.3-0.3,0.7-0.2,1.1c0.1,0.4,0.5,0.6,0.9,0.7c2.1,1,4.3,2,6.4,3c-1.2,1.2-2.1,2.7-2.5,4.4c-0.1,0.4-0.1,0.8,0,1.2
				c0.1,0.4,0.4,0.8,0.7,1.1c1.3,1.5,2.6,3,3.9,4.5c-1.4,2.1-4.6,2.7-5.4,5.2c-0.3,1-0.1,2.1,0.2,3.1c0.4,1.6,0.7,3.1,1.1,4.7
				c-5.3,1.8-8.7,8.1-7.3,13.5c-1.7,0.8-3.6,1.2-5.5,1c-0.9,2.8-1.9,5.5-3,8.3c-1.4-0.5-2.8-1.1-4.3-1.6c-0.9-0.3-1.8-0.7-2.7-0.5
				c-0.9,0.2-1.6,1.2-1.2,2c1.3,2.6-1.8,5.9-4.6,6.7c-2.8-2.1-6.2-3.4-9.7-3.7c-1.4,2.4-3.5,4.5-6,5.9c-1.1-2.7-3.9-4.6-6.8-4.6
				c0.2,1.2-0.6,2.4-1.6,3.1c-1,0.7-2.2,1-3.4,1.4c-0.7-2.4-1.8-4.7-3.2-6.7c-2.9,1-6.1,1.4-9.2,1.2c-0.4-2.9-0.8-5.8-1.3-8.7
				c-2.2,0.8-4.6,0.9-6.9,0.4c-0.5-0.1-1.1-0.4-1.4-0.9c-0.2-0.4-0.1-0.8,0-1.2c0.6-2.2,1.1-4.6-0.1-6.5c-1.5-2.3-5.1-2.6-6.4-5.1
				c-0.7-1.3-0.4-3,0.3-4.4c0.7-1.3,1.8-2.4,2.9-3.5c-1.6-0.7-3.2-1.4-4.4-2.7s-1.7-3.3-0.9-4.8c0.8-1.5,2.8-2.1,3.4-3.7
				c0.5-1.2,0-2.6-0.5-3.8c-0.8-1.9-1.5-3.9-2.3-5.8c2.4-0.6,4.5-2.4,5.6-4.6c1.1-2.3,1.1-5,0.1-7.3c0.6-0.6,1.6-0.6,2.4-0.5
				s1.8,0.2,2.5-0.1s1.2-1.5,0.6-2.1c0.8-1.9,1.5-4,2-6c-0.3,0.4,0.3,0.9,0.8,1c1.7,0.4,3.6,0.6,4.9-0.6c1-0.9,1.3-2.5,1.4-3.8
				c0.2-1.3,0.3-2.5,0.5-3.8C66.3,31,69.5,31.4,72.6,31.7z"/>
			<radialGradient id="SVGID_13_" cx="85.6582" cy="68.6924" r="36.7804" gradientUnits="userSpaceOnUse">
				<stop  offset="0" style="stop-color:#F3CD0F"/>
				<stop  offset="1" style="stop-color:#F1A52F"/>
			</radialGradient>
			<circle fill="url(#SVGID_13_)" cx="85.7" cy="68.7" r="36.8"/>
			<g>
				
					<ellipse transform="matrix(0.9806 0.1961 -0.1961 0.9806 15.9005 -15.8475)" fill="#FFFFFF" cx="88" cy="72.4" rx="3.9" ry="5.9"/>
				<g>
					<defs>
						
							<ellipse id="SVGID_14_" transform="matrix(0.9806 0.1961 -0.1961 0.9806 15.9005 -15.8475)" cx="88" cy="72.4" rx="3.9" ry="5.9"/>
					</defs>
					<clipPath id="SVGID_15_">
						<use xlink:href="#SVGID_14_"  overflow="visible"/>
					</clipPath>
					<ellipse clip-path="url(#SVGID_15_)" fill="#BD3231" cx="88.3" cy="77.7" rx="4.2" ry="6.3"/>
					<ellipse clip-path="url(#SVGID_15_)" fill="#020202" cx="88.3" cy="77.7" rx="2.8" ry="4.2"/>
				</g>
				
					<ellipse transform="matrix(0.9521 0.3058 -0.3058 0.9521 26.8555 -23.0619)" fill="#FFFFFF" cx="87" cy="74.2" rx="1" ry="1.3"/>
			</g>
			<g>
				
					<ellipse transform="matrix(0.9673 0.2536 -0.2536 0.9673 24.356 -25.6289)" fill="#FFFFFF" cx="111.6" cy="81.7" rx="3.9" ry="5.9"/>
				<g>
					<defs>
						
							<ellipse id="SVGID_16_" transform="matrix(0.9673 0.2536 -0.2536 0.9673 24.356 -25.6289)" cx="111.6" cy="81.7" rx="3.9" ry="5.9"/>
					</defs>
					<clipPath id="SVGID_17_">
						<use xlink:href="#SVGID_16_"  overflow="visible"/>
					</clipPath>
					
						<ellipse transform="matrix(0.9983 5.891756e-002 -5.891756e-002 0.9983 5.3223 -6.4272)" clip-path="url(#SVGID_17_)" fill="#BD3231" cx="111.7" cy="87" rx="4.2" ry="6.3"/>
					
						<ellipse transform="matrix(0.9983 5.891756e-002 -5.891756e-002 0.9983 5.3223 -6.4272)" clip-path="url(#SVGID_17_)" fill="#020202" cx="111.7" cy="87" rx="2.8" ry="4.2"/>
				</g>
				
					<ellipse transform="matrix(0.9324 0.3614 -0.3614 0.9324 37.6232 -34.3163)" fill="#FFFFFF" cx="110.6" cy="83.4" rx="1" ry="1.3"/>
			</g>
			<path fill="none" stroke="#BD3231" stroke-width="2" stroke-linecap="round" stroke-linejoin="round" stroke-miterlimit="10" d="
				M92,83.1c0,0-1.1,5.5,5.3,6.5c5.2,0.8,5.6-2.6,5.6-2.6"/>
			<path fill="none" stroke="#BD3231" stroke-width="2" stroke-linecap="round" stroke-linejoin="round" stroke-miterlimit="10" d="
				M81.9,60.9c0,0,2.1-3.6,6-2"/>
			<path fill="none" stroke="#BD3231" stroke-width="2" stroke-linecap="round" stroke-linejoin="round" stroke-miterlimit="10" d="
				M114,68.1c0,0,2.6-0.5,3.6,2.1"/>
			<path fill="none" stroke="#BD3231" stroke-width="2" stroke-linecap="round" stroke-linejoin="round" stroke-miterlimit="10" d="
				M69.1,86.4c2.1,2.2,4.4,2.1,7-0.4"/>
			<radialGradient id="SVGID_18_" cx="69.4451" cy="74.9739" r="7.0428" gradientUnits="userSpaceOnUse">
				<stop  offset="0" style="stop-color:#FFFFFF"/>
				<stop  offset="5.471269e-002" style="stop-color:#FFEDD8"/>
				<stop  offset="0.1338" style="stop-color:#FFD5A7"/>
				<stop  offset="0.2151" style="stop-color:#FFC17D"/>
				<stop  offset="0.297" style="stop-color:#FFB05B"/>
				<stop  offset="0.38" style="stop-color:#FFA340"/>
				<stop  offset="0.4643" style="stop-color:#FF9A2D"/>
				<stop  offset="0.5508" style="stop-color:#FF9522"/>
				<stop  offset="0.6429" style="stop-color:#FF931E"/>
				<stop  offset="1" style="stop-color:#FF931E;stop-opacity:0"/>
			</radialGradient>
			<circle fill="url(#SVGID_18_)" cx="69.4" cy="75" r="7"/>
			
				<radialGradient id="SVGID_19_" cx="144.0539" cy="584.0667" r="7.0428" gradientTransform="matrix(0.4846 0.6083 -0.7822 0.623 461.5098 -401.6216)" gradientUnits="userSpaceOnUse">
				<stop  offset="0" style="stop-color:#FFFFFF"/>
				<stop  offset="1" style="stop-color:#FFFFFF;stop-opacity:0"/>
			</radialGradient>
			<path fill="url(#SVGID_19_)" d="M77.9,54.2c-3,2.4-7,2.5-8.9,0.1S68,48,71,45.6s7-2.5,8.9-0.1S80.9,51.8,77.9,54.2z"/>
			<g>
				<defs>
					<circle id="SVGID_20_" cx="85.7" cy="68.7" r="36.8"/>
				</defs>
				<clipPath id="SVGID_21_">
					<use xlink:href="#SVGID_20_"  overflow="visible"/>
				</clipPath>
				
					<path clip-path="url(#SVGID_21_)" fill="none" stroke="#BD3231" stroke-width="2" stroke-linecap="round" stroke-linejoin="round" stroke-miterlimit="10" d="
					M72,88c0,0-3.5,8.2,2,16.9"/>
			</g>
		</g>
		<g clip-path="url(#SVGID_2_)">
			<path fill="#C1D42E" d="M479.3,3v192.3H3L3,3H479.3 M482.3,0H0l0,198.3h482.3V0L482.3,0z"/>
		</g>
	</g>
</g>
</svg>
