<?xml version="1.0" encoding="utf-8"?>
<!-- Generator: Adobe Illustrator 19.1.0, SVG Export Plug-In . SVG Version: 6.00 Build 0)  -->
<svg version="1.1" id="Layer_1" xmlns="http://www.w3.org/2000/svg" xmlns:xlink="http://www.w3.org/1999/xlink" x="0px" y="0px"
	 viewBox="0 0 640 150" style="enable-background:new 0 0 640 150;" xml:space="preserve">
<style type="text/css">
	.st0{clip-path:url(#SVGID_2_);fill:url(#SVGID_3_);}
	.st1{clip-path:url(#SVGID_2_);fill:url(#SVGID_4_);}
	.st2{clip-path:url(#SVGID_2_);fill:url(#SVGID_5_);}
	.st3{clip-path:url(#SVGID_2_);fill:#85BE41;}
	.st4{clip-path:url(#SVGID_2_);fill:#C1D42E;}
	.st5{clip-path:url(#SVGID_2_);}
	.st6{fill:#FFFFFF;}
	.st7{fill:#00ADEF;}
	.st8{fill:#9A408B;}
	.st9{fill:#23408E;}
	.st10{fill:#40AF49;}
	.st11{fill:#FFF200;}
	.st12{fill:#F68220;}
	.st13{fill:#D2232A;}
</style>
<g>
	<defs>
		<rect id="SVGID_1_" x="0" y="0" width="640" height="150"/>
	</defs>
	<clipPath id="SVGID_2_">
		<use xlink:href="#SVGID_1_"  style="overflow:visible;"/>
	</clipPath>
	
		<linearGradient id="SVGID_3_" gradientUnits="userSpaceOnUse" x1="-181.8875" y1="-4.2303" x2="-31.8875" y2="-4.2303" gradientTransform="matrix(0 -1 -1 0 315.7697 -31.8875)">
		<stop  offset="0" style="stop-color:#FFFFFF"/>
		<stop  offset="9.451630e-002" style="stop-color:#F9FDFE"/>
		<stop  offset="0.2191" style="stop-color:#E9F7FC"/>
		<stop  offset="0.3607" style="stop-color:#CDECF9"/>
		<stop  offset="0.5146" style="stop-color:#A7DEF4"/>
		<stop  offset="0.6787" style="stop-color:#76CBEE"/>
		<stop  offset="0.8485" style="stop-color:#3BB5E7"/>
		<stop  offset="1" style="stop-color:#009FE0"/>
	</linearGradient>
	<rect x="0" y="0" class="st0" width="640" height="150"/>
	
		<linearGradient id="SVGID_4_" gradientUnits="userSpaceOnUse" x1="328.2545" y1="145.7966" x2="328.2545" y2="-37.3163" gradientTransform="matrix(1 6.760758e-003 6.760758e-003 -1 -2.0645 100.3835)">
		<stop  offset="0" style="stop-color:#FFFFFF"/>
		<stop  offset="0.2517" style="stop-color:#F8F9FD"/>
		<stop  offset="0.6208" style="stop-color:#E4EAF8"/>
		<stop  offset="1" style="stop-color:#C9D4F0"/>
	</linearGradient>
	<path class="st1" d="M476.7,69.1c-9.7-0.1-18.5,3.8-25.1,10c-0.4-0.2-0.7-0.4-1.1-0.6c0.1-0.8,0.2-1.6,0.2-2.5
		c0-7.9-5.3-14.5-12.4-16.5c-3.2-5.2-8.8-8.7-15.2-8.7c-2,0-3.9,0.4-5.7,0.9c0-0.6-0.1-1.2-0.1-1.8c6.3-2.1,10.9-8,10.9-15
		c0.1-8.8-7-16-15.8-16c-6,0-11.3,3.3-14,8.1c-0.9-0.2-1.8-0.5-2.7-0.7c5.9-3.6,9.7-10.1,9.7-17.5c0.1-11.5-9.1-20.9-20.6-21
		c-5.9,0-11.3,2.3-15,6.3c-6-21.6-25.6-37.4-49-37.5c-27.3-0.2-49.7,21-51.5,48c-11.3,2.1-20.1,11.1-21.9,22.5
		c-3.9,1.5-7.4,3.6-10.4,6.3c-1.5-0.5-3.2-0.8-4.8-0.8c-8.2,0-14.9,6.6-14.9,14.8c0,2.2,0.5,4.3,1.3,6.2c-2.6-0.8-5.2-1.3-8-1.3
		c-14.1-0.1-25.7,10.6-27.2,24.2c-2-5.6-7.3-9.6-13.5-9.6c-8,0-14.5,6.3-14.5,14.3c0,2,0.4,3.9,1.1,5.5c-0.9-0.2-2-0.4-3-0.4
		c-7.2,0-13,5.7-13,12.8c0,7.2,5.7,13,12.8,13c7.2,0,13-5.7,13-12.8c0-1.5-0.2-2.9-0.7-4.2c0.2,0.1,0.5,0.1,0.7,0.2
		c0,0.1,0,0.4,0,0.5c-0.1,9.3,7.4,16.8,16.5,16.8c6.6,0,12.3-3.8,15-9.1c3.8,2,8,3,12.4,3.2c5.5,0,10.8-1.6,15-4.5
		c0.8,9.5,8.8,17.1,18.5,17.1c4.2,0,8.1-1.3,11.3-3.6c3.3,1.9,7,2.9,11,3c6,0,11.4-2.2,15.4-6c2.9,4.2,7.7,6.9,13.3,7
		c3.2,0,6.2-0.9,8.7-2.5c3.9,10.2,13.7,17.6,25.3,17.6c14.3,0.1,26-10.8,27.3-24.8c2.1,0.8,4.5,1.4,6.8,1.4c2.1,0,4.1-0.4,6-0.9
		c2.6,4.1,7.2,6.9,12.4,6.9c6.3,0,11.7-3.9,13.8-9.5c3.9-0.4,7.4-2,10.1-4.6c0.2,1.9,0.8,3.8,1.6,5.4c1.5,15.4,14.4,27.3,30.1,27.4
		c5.9,0,11.4-1.6,16.1-4.5c6.2,5.5,14.4,8.8,23.3,8.9c19.8,0.1,35.9-15.8,36.1-35.5C512.5,85.4,496.5,69.3,476.7,69.1z M409.8,88.7
		c-0.8-4.6-3.5-8.6-7.3-11c1.3-0.7,2.6-1.4,3.8-2.3c1.6,4.1,4.7,7.4,8.6,9.4c-0.1,0.1-0.4,0.4-0.5,0.5
		C412.8,86.2,411.2,87.3,409.8,88.7z M325.4,78.5c0.6,0.7,1.1,1.3,1.8,2c-1.1,0.1-2,0.2-3,0.4C324.5,80.1,324.9,79.3,325.4,78.5z
		 M371.1,73.2c3,2.9,6.9,5.2,11,6.3c-1.3,1.3-2.5,2.8-3.3,4.5c-1.8-3.2-4.6-5.7-7.9-7.4c0-0.6,0.1-1.2,0.1-1.9
		C371.1,74.3,371.1,73.8,371.1,73.2z"/>
	
		<linearGradient id="SVGID_5_" gradientUnits="userSpaceOnUse" x1="385.781" y1="112.6739" x2="411.2127" y2="-31.5565" gradientTransform="matrix(1 0 0 -1 0 108)">
		<stop  offset="0" style="stop-color:#FFFFFF"/>
		<stop  offset="0.1828" style="stop-color:#EDF6FB"/>
		<stop  offset="0.4829" style="stop-color:#D5EAF5"/>
		<stop  offset="0.7627" style="stop-color:#C7E3F1"/>
		<stop  offset="1" style="stop-color:#C2E0F0"/>
	</linearGradient>
	<path class="st2" d="M509,71.8c-6.8,0-13,2.7-17.6,7.1c-0.3-0.1-0.5-0.3-0.8-0.4c0.1-0.6,0.1-1.2,0.1-1.7c0-5.5-3.8-10.2-8.8-11.5
		c-2.2-3.6-6.2-6-10.8-6c-1.4,0-2.7,0.2-4,0.7c0-0.4-0.1-0.8-0.1-1.3c4.5-1.5,7.6-5.6,7.6-10.6c0-6.1-4.9-11.2-11.2-11.2
		c-4.2,0-7.9,2.3-9.8,5.8c-0.6-0.2-1.3-0.4-1.9-0.5c4.1-2.6,6.8-7.2,6.8-12.3c0-8.1-6.5-14.7-14.7-14.7c-4.2,0-7.9,1.7-10.6,4.5
		c-4.3-15-18.1-26.1-34.5-26.1c-19.1,0-34.8,15-35.9,33.9c-7.9,1.6-14.1,8-15.3,15.9c-2.7,1.1-5.1,2.6-7.3,4.5
		c-1.1-0.4-2.2-0.6-3.4-0.6c-5.7,0-10.4,4.7-10.4,10.4c0,1.6,0.4,3.1,1,4.4c-1.7-0.6-3.7-0.9-5.6-0.9c-9.9,0-18,7.5-18.9,17.1
		c-1.5-3.9-5.1-6.7-9.5-6.7c-5.6,0-10.2,4.6-10.2,10.2c0,1.4,0.3,2.7,0.8,3.9c-0.7-0.2-1.5-0.3-2.1-0.3c-5,0-9.1,4.1-9.1,9.1
		s4.1,9,9.1,9s9-4.1,9-9c0-1.1-0.2-2-0.5-3c0.2,0.1,0.4,0.1,0.5,0.1c0,0.1,0,0.2,0,0.4c0,6.5,5.2,11.7,11.7,11.7
		c4.6,0,8.5-2.6,10.5-6.5c2.6,1.4,5.6,2.1,8.7,2.1c3.9,0,7.6-1.2,10.6-3.2c0.6,6.7,6.2,11.9,13.1,11.9c3,0,5.7-1,7.9-2.6
		c2.3,1.3,4.9,2,7.8,2c4.2,0,8-1.6,10.8-4.3c2,2.9,5.4,4.9,9.3,4.9c2.2,0,4.4-0.7,6.1-1.7c2.8,7.2,9.7,12.2,17.9,12.2
		c10,0,18.2-7.7,19.1-17.5c1.5,0.6,3.1,1,4.8,1c1.5,0,2.8-0.3,4.2-0.7c1.8,2.9,5,4.9,8.7,4.9c4.5,0,8.2-2.8,9.7-6.8
		c2.7-0.3,5.1-1.5,7-3.2c0.2,1.4,0.6,2.6,1.2,3.8c1.2,10.8,10.3,19.1,21.3,19.1c4.2,0,8-1.2,11.3-3.2c4.4,3.8,10.2,6.1,16.4,6.1
		c13.9,0,25.1-11.3,25.1-25.1C534.2,83.1,522.9,71.8,509,71.8z M462.3,85.9c-0.6-3.2-2.5-5.9-5.1-7.7c0.9-0.5,1.7-1.1,2.6-1.6
		c1.2,2.8,3.3,5.1,6.1,6.5c-0.1,0.1-0.2,0.2-0.3,0.3C464.3,84,463.1,84.9,462.3,85.9z M402.9,79.1c0.4,0.5,0.8,1,1.2,1.4
		c-0.7,0.1-1.5,0.1-2.1,0.3C402.3,80.2,402.6,79.7,402.9,79.1z M434.9,75.2c2.1,2,4.9,3.6,7.8,4.5c-1,0.9-1.7,1.9-2.3,3.1
		c-1.3-2.2-3.2-4-5.5-5.1c0-0.4,0.1-0.9,0.1-1.3C435,76,435,75.6,434.9,75.2z"/>
	<path class="st3" d="M0,88.1V150h640v-9.6c0,0-58.5-21.9-304.4-42.9S0,88.1,0,88.1z"/>
	<path class="st4" d="M640,88.1V150H0v-9.6c0,0,58.5-21.9,304.4-42.9S640,88.1,640,88.1z"/>
	<g class="st5">
		<path class="st6" d="M556.7,60.2c-1.3-4.4-3.8-4.4-8.6-4.7c-0.6,0-1.1-0.2-1.3-0.4c-0.3-0.3-0.3-0.6-0.2-1.1
			c1.1-3.4-3.4-7.9-9.3-4c-0.9,0.6-2.2,0.2-2.1-1.1c0.4-3.7-3.6-5.3-5.6-5c-3.5,0.5-5.1,3.1-5.3,5.2c-0.2,2.1-1.9,2.2-2.7,0.6
			c-1-2.1-3.5-5-7-4c-3.9,1.1-5.2,3.9-5.6,5.8c-0.5,1.9-1.8,2-2.6,0.7c-0.8-1.2-3.7-2.2-5.8-1.1c-2.5,1.3-4.3,4.1-4,7
			c0.1,0.9-0.2,1.8-1.7,1.5c-3.3-0.6-4.7,0.6-4.8,2.6c22.1,0,44.3,0.1,66.7-1.2C556.8,60.7,556.8,60.5,556.7,60.2z"/>
	</g>
	<g class="st5">
		<path class="st6" d="M631,36.6c-1.6-5.3-4.6-5.3-10.4-5.6c-0.7-0.1-1.3-0.2-1.6-0.5s-0.4-0.8-0.2-1.3c1.4-4.1-4.1-9.5-11.2-4.9
			c-1.1,0.7-2.7,0.3-2.5-1.3c0.4-4.4-4.4-6.4-6.7-6c-4.2,0.6-6.1,3.8-6.4,6.3c-0.3,2.6-2.3,2.7-3.3,0.7c-1.3-2.5-4.3-6.1-8.4-4.8
			c-4.7,1.4-6.3,4.7-6.8,7c-0.6,2.3-2.2,2.4-3.1,0.9c-1-1.5-4.4-2.7-7-1.4c-3,1.5-5.2,4.9-4.8,8.5c0.1,1.1-0.2,2.2-2.1,1.8
			c-3.9-0.7-5.7,0.7-5.8,3.1c26.6,0,53.4,0.1,80.5-1.5C631.2,37.2,631.1,36.9,631,36.6z"/>
	</g>
</g>
<g>
	<path class="st7" d="M291.6,36.5c0,2.6-0.8,4.7-2.4,6.4c-1.6,1.6-3.7,2.5-6.3,2.5c-2.1,0-4.2-0.9-6-2.7c-0.4,0.5-0.9,1.1-1.3,1.6
		c-0.6,0.7-1.2,1-1.7,1c-0.4,0-0.7-0.2-1.1-0.5c-0.3-0.3-0.5-0.7-0.5-1.1l0.2-7.9c0.1-2.6,1-4.8,2.7-6.7s3.9-2.8,6.4-2.8
		c3.1,0,5.5,0.9,7.3,2.8C290.7,30.9,291.6,33.4,291.6,36.5z M284.3,35.7c0-3.6-0.7-5.4-2.2-5.4c-0.9,0-1.5,0.7-2,2.2
		c-0.3,1-0.5,2.2-0.5,3.4c0,1.1,0.2,2.2,0.5,3.1c0.4,1.4,1.1,2.1,1.9,2.1c0.8,0,1.4-0.7,1.8-2.2C284.2,38,284.3,36.9,284.3,35.7z"/>
	<path class="st7" d="M302.2,34.4c0,1-0.4,1.9-1.1,2.6c-0.7,0.7-1.6,1-2.6,1c-1,0-1.9-0.3-2.6-1s-1.1-1.5-1.1-2.6v-4.5
		c0-1,0.4-1.9,1.1-2.6c0.7-0.7,1.6-1.1,2.6-1.1s1.9,0.4,2.6,1.1c0.7,0.7,1.1,1.6,1.1,2.6V34.4z"/>
	<path class="st7" d="M322.2,32.4c0,1.4-0.6,2.5-1.7,3.4c-1,0.8-2.2,1.3-3.6,1.5c1.1,1,1.7,2.2,1.7,3.7c0,1.2-0.3,2.2-0.9,2.9
		c-0.6,0.8-1.5,1.2-2.7,1.2c-1,0-1.9-0.4-2.6-1.1c-0.7-0.7-1.1-1.6-1.1-2.6c0-0.8-0.4-1.4-1.1-2c-0.8-0.5-1.1-1.1-1.1-1.8
		c0-1,0.4-1.5,1.1-1.7c3.2-0.6,4.8-1.8,4.8-3.5c0-0.7-0.3-1.3-1-1.6c-0.5-0.4-1.2-0.5-1.9-0.5c-0.6,0-1.4,0.2-2.2,0.5
		s-1.5,0.7-2,1.1c-0.4,0.4-0.8,0.6-1.2,0.6c-0.8,0-1.2-0.4-1.2-1.3c0-0.3,0.1-0.6,0.2-0.9c1.6-2.8,4.2-4.2,8-4.2
		c2.2,0,4.1,0.5,5.7,1.4C321.3,28.7,322.2,30.4,322.2,32.4z"/>
	<path class="st7" d="M340.8,15.2c0,2-0.5,3.7-1.6,5.1c-0.4,0.6-1,0.8-1.8,0.8c-0.9,0-1.3-0.4-1.3-1.2c0-0.3,0.1-0.7,0.3-1.1
		c0.4-1,0.6-2,0.6-2.9c0-1.3-0.5-2-1.6-2c-0.7,0-1.3,0.4-1.7,1.3c-0.3,0.7-0.5,1.4-0.5,2.3v23.9c0,1-0.4,1.9-1.1,2.6
		c-0.7,0.7-1.6,1.1-2.6,1.1s-1.9-0.4-2.6-1.1c-0.7-0.7-1.1-1.6-1.1-2.6V17.7c0-2.5,0.6-4.6,1.8-6.3c1.4-1.9,3.3-2.8,5.7-2.8
		c2.2,0,4,0.6,5.3,1.7C340.1,11.4,340.8,13.1,340.8,15.2z"/>
	<path class="st7" d="M344,34.4c0,1-0.4,1.9-1.1,2.6c-0.7,0.7-1.6,1-2.6,1c-1,0-1.9-0.3-2.6-1s-1.1-1.5-1.1-2.6v-4.5
		c0-1,0.4-1.9,1.1-2.6c0.7-0.7,1.6-1.1,2.6-1.1s1.9,0.4,2.6,1.1c0.7,0.7,1.1,1.6,1.1,2.6V34.4z"/>
	<path class="st7" d="M364.4,50.8c0,1-0.4,1.9-1.1,2.6c-0.7,0.7-1.6,1.1-2.6,1.1c-1,0-1.9-0.4-2.6-1.1c-0.7-0.7-1.1-1.6-1.1-2.6v-21
		c0-1,0.4-1.9,1.1-2.6c0.7-0.7,1.6-1.1,2.6-1.1s1.9,0.4,2.6,1.1c0.7,0.7,1.1,1.6,1.1,2.6V50.8z"/>
	<path class="st7" d="M385,34.7c0,0.9-0.5,1.3-1.6,1.3c-0.5,0-1.4-0.4-2.5-1.2c-1.1-0.8-2.1-1.2-3.1-1.2c-0.9,0-1.7,0.3-2.2,0.9
		c-0.5,0.6-0.7,1.4-0.7,2.3c0,1.3,0.4,2.4,1.1,3.4c0.8,1,1.8,1.5,3.1,1.5c0.5,0,1.2-0.1,2-0.4c0.8-0.2,1.4-0.4,1.9-0.4
		c1.1,0,1.6,0.4,1.6,1.3c0,0.3-0.2,0.8-0.7,1.3c-1.4,1.6-3.4,2.3-6.1,2.3c-2.8,0-5.1-0.9-7-2.6c-2-1.8-3-4.1-3-6.8
		c0-2.2,0.7-4,2.2-5.4c1.5-1.5,3.3-2.2,5.5-2.2c1.2,0,2.2,0.4,3,1.2c0.1,0.1,0.1,0.1,0.2,0.1c0.1,0,0.1-0.1,0.1-0.2
		c-0.2-0.4-0.2-0.8-0.2-1.1c0-0.8,0.3-1.4,1-1.9c0.6-0.5,1.3-0.7,2.1-0.7c1.8,0,2.8,0.8,2.8,2.5c0,0.3,0,0.8-0.1,1.4
		c-0.1,0.6-0.1,1.1-0.1,1.5c0,0.9,0.2,1.6,0.5,2.3C384.9,34.2,385,34.5,385,34.7z"/>
</g>
<g>
	<g>
		<path class="st8" d="M235.2,139.1c-0.3,0-0.5,0-0.8,0c-2.2-0.2-4.1-1.2-5.6-2.9l-4-4.8c-1.5-1.7-2.1-3.8-1.9-6s1.2-4.1,2.9-5.5
			c1.5-1.3,3.3-2,5.2-2c0.2,0,0.5,0,0.8,0c2.2,0.2,4.1,1.2,5.5,2.9l4,4.7c1.4,1.7,2.1,3.7,1.9,6c-0.2,2.3-1.2,4.1-2.9,5.6
			C238.9,138.5,237.2,139.1,235.2,139.1z M251.3,125.6c-0.3,0-0.5,0-0.8,0c-2.2-0.2-4.1-1.2-5.6-2.9l-8.9-10.5
			c-2.5-2.9-4.8-4.4-6.9-4.4c-1.2,0-2.4,0.5-3.6,1.5c-1.2,1-2.4,2.8-3.5,5.3c-1.6,3.6-2.2,4.3-2.5,4.6c-0.9,0.8-1.8,1.2-2.7,1.2
			c-0.9,0-1.7-0.4-2.5-1.3c-0.4-0.5-0.7-1.2-0.8-2c-0.4-3,0.4-6.4,2.2-9.9c1.6-3.1,3.7-5.8,6.3-7.9c4.1-3.4,8.2-5.2,12.3-5.2
			c0.5,0,1,0,1.5,0.1c4.6,0.5,8.9,3.1,12.8,7.7l8.6,10.3c1.5,1.7,2.1,3.8,1.9,6c-0.2,2.2-1.2,4.1-3,5.6
			C255,125,253.2,125.6,251.3,125.6z"/>
		<path d="M234.6,94.7c0.5,0,1,0,1.5,0.1c4.5,0.5,8.6,2.9,12.4,7.5l8.6,10.3c1.4,1.6,1.9,3.5,1.7,5.5c-0.2,2.1-1.1,3.8-2.7,5.2
			c-1.4,1.2-3,1.8-4.8,1.8c-0.2,0-0.5,0-0.7,0c-2.1-0.2-3.8-1.1-5.1-2.6l-8.9-10.5c-2.6-3.1-5.1-4.6-7.4-4.6c-1.4,0-2.7,0.5-4,1.6
			c-1.3,1.1-2.5,2.9-3.7,5.5c-1.1,2.6-1.9,4.1-2.3,4.4c-0.8,0.7-1.6,1-2.3,1c-0.7,0-1.4-0.4-2-1.1c-0.3-0.4-0.6-1-0.6-1.6
			c-0.4-2.9,0.3-6.1,2.2-9.5c1.6-3.1,3.6-5.6,6.1-7.8C226.6,96.4,230.6,94.7,234.6,94.7 M231.1,118.6c0.2,0,0.5,0,0.7,0
			c2.1,0.2,3.8,1.1,5.1,2.7l4,4.7c1.3,1.6,1.9,3.4,1.7,5.5c-0.2,2.1-1.1,3.8-2.6,5.1c-1.4,1.2-3,1.8-4.8,1.8c-0.2,0-0.5,0-0.7,0
			c-2.1-0.2-3.8-1.1-5.1-2.6l-4-4.7c-1.4-1.6-2-3.5-1.8-5.5c0.2-2.1,1.1-3.8,2.7-5.1C227.7,119.2,229.3,118.6,231.1,118.6
			 M234.6,93.5c-4.3,0-8.5,1.8-12.7,5.3c-2.6,2.2-4.8,4.9-6.5,8.1c-1.9,3.6-2.7,7.1-2.3,10.2c0.1,0.9,0.4,1.7,0.9,2.3
			c0.8,1,1.8,1.5,2.9,1.5c1,0,2-0.4,3.1-1.3c0.4-0.4,1.1-1.2,2.7-4.8c1.1-2.4,2.2-4.1,3.3-5.1c1.1-0.9,2.1-1.3,3.2-1.3
			c1.9,0,4.1,1.4,6.4,4.2l8.9,10.5c1.5,1.8,3.6,2.9,6,3.1c0.3,0,0.6,0,0.9,0c2.1,0,3.9-0.7,5.6-2c1.9-1.6,2.9-3.6,3.2-6
			c0.2-2.4-0.5-4.6-2-6.5l-8.6-10.3c-4-4.7-8.4-7.4-13.2-7.9C235.6,93.5,235.1,93.5,234.6,93.5L234.6,93.5z M231.1,117.4
			C231.1,117.4,231.1,117.4,231.1,117.4c-2.1,0-4,0.7-5.6,2.1c-1.9,1.6-2.9,3.6-3.1,6c-0.2,2.4,0.5,4.5,2.1,6.4l4,4.7
			c1.5,1.8,3.6,2.9,6,3.1c0.3,0,0.6,0,0.9,0c2.1,0,3.9-0.7,5.6-2c1.8-1.5,2.9-3.6,3.1-6c0.2-2.4-0.5-4.6-2-6.4l-4-4.7
			c-1.6-1.9-3.6-2.9-6-3.1C231.7,117.4,231.4,117.4,231.1,117.4L231.1,117.4z"/>
	</g>
	<g>
		<path class="st9" d="M262.3,101.7c-0.8,0-1.6-0.1-2.4-0.4c-2.1-0.7-3.7-2-4.7-4.1l-4.2-8.3c-1-2-1.2-4.1-0.5-6.2
			c0.7-2.1,2.1-3.8,4-4.8c1.2-0.6,2.4-0.9,3.6-0.9c0.8,0,1.7,0.1,2.6,0.4c2.2,0.7,3.8,2.1,4.8,4l4.2,8.3c1,2,1.2,4.1,0.5,6.2
			c-0.7,2.1-2.1,3.7-4.1,4.7C264.9,101.4,263.6,101.7,262.3,101.7z"/>
		<path d="M258.1,77.7c0.8,0,1.6,0.1,2.4,0.4c2,0.6,3.5,1.9,4.4,3.7l4.2,8.3c1,1.9,1.1,3.8,0.5,5.7c-0.6,1.9-1.9,3.4-3.8,4.4
			c-1.2,0.6-2.3,0.9-3.5,0.9c-0.7,0-1.5-0.1-2.3-0.4c-2-0.6-3.4-1.9-4.4-3.7l-4.2-8.3c-0.9-1.8-1.1-3.8-0.4-5.8
			c0.6-2,1.9-3.5,3.7-4.4C255.8,78,257,77.7,258.1,77.7 M258.1,76.5L258.1,76.5c-1.3,0-2.7,0.3-3.9,1c-2.1,1.1-3.6,2.8-4.3,5.1
			c-0.7,2.3-0.6,4.6,0.5,6.7l4.2,8.3c1.1,2.2,2.8,3.7,5.1,4.4c0.9,0.3,1.8,0.4,2.6,0.4c1.4,0,2.7-0.3,4.1-1c2.2-1.1,3.7-2.8,4.4-5.1
			c0.8-2.3,0.6-4.5-0.6-6.7l-4.2-8.3c-1.1-2.1-2.8-3.6-5.1-4.3C260,76.6,259,76.5,258.1,76.5L258.1,76.5z"/>
	</g>
	<g>
		<path class="st7" d="M283.6,121c-0.2,0-0.4,0-0.6,0c-2.8-0.1-4.5-1.1-5.1-2.9c-0.2-0.6-0.2-1.3,0.1-2.1c0.3-0.8,0.8-1.3,1.4-1.5
			c0.3-0.1,0.9-0.2,1.6-0.3c0.7-0.1,1.2-0.2,1.5-0.3c0.9-0.3,1.3-0.8,1.5-1.6c0.2-0.9,0.1-2.2-0.5-3.8l-9.9-30.1
			c-0.7-2.1-0.5-4.3,0.6-6.3c1.1-2.1,2.7-3.5,4.8-4.2c0.9-0.3,1.8-0.4,2.6-0.4c1.3,0,2.5,0.3,3.6,1c1.9,1.1,3.2,2.7,4,4.9l10.1,30.7
			c1.2,3.7,0.6,7.2-1.9,10.4c-2.2,2.7-5.2,4.7-8.9,6C287,120.8,285.3,121,283.6,121z"/>
		<path d="M281.8,67.9c1.2,0,2.3,0.3,3.3,0.9c1.8,1,3,2.5,3.7,4.6l10.1,30.7c1.2,3.5,0.6,6.8-1.8,9.8c-2.1,2.6-5,4.6-8.6,5.8
			c-1.6,0.5-3.2,0.8-4.8,0.8c-0.2,0-0.4,0-0.6,0c-2.5-0.1-4-0.9-4.5-2.5c-0.2-0.5-0.1-1.1,0.1-1.7c0.2-0.6,0.6-1,1-1.2
			c0.3-0.1,0.8-0.2,1.5-0.3c0.7-0.1,1.3-0.2,1.6-0.3c2.1-0.7,2.6-2.8,1.5-6.3l-9.9-30.1c-0.6-2-0.5-3.9,0.5-5.9
			c1-1.9,2.5-3.2,4.5-3.9C280.2,68,281,67.9,281.8,67.9 M281.8,66.6C281.8,66.6,281.8,66.6,281.8,66.6c-0.9,0-1.9,0.2-2.8,0.5
			c-2.3,0.7-4,2.3-5.2,4.5c-1.2,2.2-1.4,4.5-0.6,6.8l9.9,30.1c0.6,1.9,0.6,2.9,0.5,3.5c-0.1,0.6-0.5,1-1.1,1.2
			c-0.2,0.1-0.6,0.2-1.4,0.3c-0.8,0.1-1.4,0.2-1.8,0.3c-0.6,0.2-1.3,0.7-1.8,1.9c-0.3,0.9-0.4,1.8-0.1,2.5c0.5,1.4,1.8,3.2,5.6,3.3
			c0.2,0,0.4,0,0.6,0c1.7,0,3.5-0.3,5.2-0.9c3.9-1.3,7-3.4,9.2-6.2c2.6-3.3,3.3-7,2-11L290,73c-0.8-2.4-2.2-4.1-4.3-5.3
			C284.5,67,283.1,66.6,281.8,66.6L281.8,66.6z"/>
	</g>
	<g>
		<path class="st10" d="M310,101.7c-1.7,0-3.2-0.5-4.7-1.6c-1.8-1.3-2.9-3.1-3.3-5.3l-3.9-24c-0.4-2.2,0.1-4.2,1.4-6.1
			c1.3-1.8,3.1-2.9,5.3-3.3c0.5-0.1,0.9-0.1,1.4-0.1c1.7,0,3.2,0.5,4.7,1.6c1.8,1.3,2.9,3.1,3.3,5.3l3.9,24c0.4,2.2-0.1,4.2-1.4,6.1
			c-1.3,1.8-3.1,2.9-5.3,3.3C310.9,101.7,310.5,101.7,310,101.7z"/>
		<path d="M306.2,61.9c1.5,0,3,0.5,4.3,1.4c1.7,1.2,2.7,2.9,3.1,4.9l3.9,24c0.3,2-0.1,3.9-1.3,5.6c-1.2,1.7-2.9,2.7-4.9,3.1
			c-0.4,0.1-0.9,0.1-1.3,0.1c-1.5,0-3-0.5-4.3-1.4c-1.7-1.2-2.7-2.9-3.1-4.9l-3.9-24c-0.3-2,0.1-3.9,1.3-5.6
			c1.2-1.7,2.9-2.7,4.9-3.1C305.4,62,305.8,61.9,306.2,61.9 M306.2,60.7c-0.5,0-1,0-1.5,0.1c-2.4,0.4-4.3,1.6-5.7,3.6
			c-1.4,2-1.9,4.2-1.6,6.5l3.9,24c0.4,2.4,1.6,4.3,3.6,5.7c1.5,1.1,3.2,1.7,5,1.7c0.5,0,1,0,1.5-0.1c2.4-0.4,4.3-1.6,5.7-3.6
			c1.4-2,1.9-4.2,1.6-6.5l-3.9-24c-0.4-2.4-1.6-4.3-3.6-5.7C309.7,61.3,308,60.7,306.2,60.7L306.2,60.7z"/>
	</g>
	<g>
		<path class="st11" d="M354.7,101c-0.2,0-0.3,0-0.5,0c-2.8-0.2-5.1-1.7-7-4.6l-7.4-11.8c-0.4-0.7-0.9-1.5-1.4-2.6l-1.4,5.5
			c-0.6,2.4-1.8,4.8-3.5,7.2c-2.1,3-4.1,4.4-6.2,4.4c-0.1,0-0.2,0-0.3,0c-3.7-0.2-4.4-2.3-4.3-3.9c0.1-1.6,0.5-4.1,1.3-7.4
			c0.8-3.2,1.2-5.7,1.3-7.4c0.2-3.5,0-8.4-0.8-14.7c-0.1-0.6-0.1-1.2-0.1-1.8c0.2-2.4,1.4-5.4,6.3-5.4c0.3,0,0.6,0,0.9,0
			c3.3,0.2,5.8,1.8,7.4,4.7l8.4,15.3c0-0.6,0-1.1,0.1-1.7c0.4-6.2,2.4-10.8,5.9-13.7c1.8-1.5,3.7-2.3,5.6-2.3c0.2,0,0.3,0,0.5,0
			c1.3,0.1,2.3,0.5,2.9,1.2c0.7,0.7,0.9,1.7,0.9,3c0,0.4-0.1,0.9-0.3,1.4c-1.3,4.4-2.1,8.9-2.4,13.2c-0.1,1.6,0,4,0.3,7.2
			c0.3,3.3,0.4,5.7,0.3,7.2c-0.1,2-0.8,3.7-2,5C358.1,100.3,356.5,101,354.7,101z"/>
		<path d="M330.8,59.1c0.3,0,0.6,0,0.9,0c3.1,0.2,5.4,1.7,6.9,4.4l9.6,17.4c-0.1-1.3-0.1-2.7,0-4.1c0.4-6.1,2.3-10.5,5.7-13.3
			c1.7-1.4,3.4-2.1,5.2-2.1c0.1,0,0.3,0,0.4,0c2.3,0.1,3.3,1.3,3.2,3.5c0,0.4-0.1,0.8-0.2,1.3c-1.3,4.5-2.1,8.9-2.4,13.3
			c-0.1,1.6,0,4.1,0.3,7.3c0.3,3.2,0.4,5.6,0.3,7.2c-0.1,1.9-0.7,3.4-1.8,4.6c-1.1,1.2-2.5,1.8-4.1,1.8c-0.2,0-0.3,0-0.5,0
			c-2.6-0.2-4.8-1.6-6.5-4.3l-7.4-11.8c-0.6-0.9-1.3-2.3-2.1-4.1l-1.8,7.2c-0.6,2.3-1.7,4.6-3.4,7c-2,2.8-3.9,4.2-5.7,4.2
			c-0.1,0-0.2,0-0.2,0c-2.6-0.2-3.8-1.3-3.7-3.3c0.1-1.6,0.5-4,1.3-7.3c0.8-3.3,1.2-5.8,1.3-7.5c0.2-3.5,0-8.5-0.8-14.8
			c-0.1-0.6-0.1-1.1,0-1.7C325.4,60.7,327.2,59.1,330.8,59.1 M330.8,57.9c-4.2,0-6.6,2.1-6.9,5.9c0,0.6,0,1.2,0.1,1.9
			c0.7,6.2,1,11.1,0.8,14.6c-0.1,1.6-0.5,4.1-1.3,7.3c-0.8,3.4-1.2,5.9-1.3,7.5c-0.1,1.7,0.6,2.8,1.2,3.3c0.8,0.7,2,1.1,3.6,1.3
			c0.1,0,0.2,0,0.3,0c2.3,0,4.5-1.5,6.7-4.7c1.8-2.5,3-5,3.6-7.4l1-3.9c0.3,0.5,0.5,0.9,0.7,1.2l7.4,11.8c2,3.1,4.5,4.7,7.5,4.9
			c0.2,0,0.4,0,0.5,0c2,0,3.7-0.7,5-2.2c1.3-1.4,2-3.1,2.1-5.3c0.1-1.6,0-4-0.3-7.3c-0.3-3.2-0.4-5.5-0.3-7.1
			c0.3-4.3,1.1-8.7,2.3-13c0.2-0.6,0.3-1.1,0.3-1.5c0.1-1.4-0.2-2.6-1-3.4c-0.8-0.8-1.9-1.3-3.3-1.4c-0.2,0-0.3,0-0.5,0
			c-2,0-4.1,0.8-6,2.4c-3.5,2.9-5.6,7.5-6.1,13.7l-7.4-13.4c-1.7-3.1-4.3-4.8-7.9-5C331.4,57.9,331.1,57.9,330.8,57.9L330.8,57.9z"
			/>
	</g>
	<g>
		<path class="st12" d="M389,111.3c-0.9,0-1.9-0.2-2.8-0.5c-2.1-0.8-3.6-2.2-4.6-4.2c-0.9-2-1-4.1-0.3-6.2l5.7-15.5
			c0.8-2.1,1-3.7,0.9-4.9c-0.2-1.1-0.7-1.8-1.7-2.1c-1-0.4-2.3-0.6-3.9-0.6c-0.8,0-1.7,0-2.6,0.1c-2,0.2-3.4,0.3-4.3,0.3
			c-0.4,0-0.7,0-0.9-0.1c-0.9-0.3-1.6-1-2.1-1.8c-0.5-0.9-0.5-1.8-0.2-2.8c1-2.8,4.4-4.3,10.2-4.4c0.4,0,0.7,0,1.1,0
			c4.1,0,7.6,0.5,10.5,1.6c9.2,3.4,11.9,10.3,8.2,20.6l-5.6,15.2c-0.8,2.1-2.2,3.6-4.2,4.6C391.3,111.1,390.2,111.3,389,111.3z"/>
		<path d="M383.6,69.2c4,0,7.5,0.5,10.3,1.6c8.9,3.3,11.5,9.9,7.8,19.8l-5.6,15.2c-0.7,1.9-2,3.4-3.9,4.2c-1.1,0.5-2.1,0.7-3.2,0.7
			c-0.9,0-1.7-0.2-2.6-0.5c-1.9-0.7-3.4-2-4.2-3.9c-0.9-1.9-1-3.8-0.3-5.8l5.7-15.5c1.6-4.3,1.2-6.9-1.2-7.8
			c-1.1-0.4-2.4-0.6-4.1-0.6c-0.8,0-1.7,0-2.7,0.1c-2,0.2-3.4,0.3-4.2,0.3c-0.3,0-0.6,0-0.7-0.1c-0.8-0.3-1.4-0.8-1.8-1.5
			c-0.4-0.7-0.4-1.5-0.1-2.3c0.9-2.5,4.1-3.9,9.6-4C382.9,69.2,383.2,69.2,383.6,69.2 M383.6,68C383.6,68,383.6,68,383.6,68
			c-0.4,0-0.7,0-1.1,0c-6.1,0.2-9.6,1.7-10.7,4.8c-0.4,1.1-0.3,2.3,0.2,3.3c0.5,1,1.3,1.7,2.4,2.1c0.3,0.1,0.6,0.1,1.1,0.1
			c0.8,0,2.2-0.1,4.3-0.3c0.9-0.1,1.8-0.1,2.5-0.1c1.5,0,2.7,0.2,3.7,0.5c0.8,0.3,1.2,0.8,1.3,1.6c0.2,1.1-0.1,2.6-0.8,4.6
			l-5.7,15.5c-0.8,2.3-0.7,4.5,0.3,6.7c1,2.2,2.7,3.7,4.9,4.6c1,0.4,2,0.6,3,0.6c1.2,0,2.5-0.3,3.7-0.8c2.2-1,3.7-2.7,4.6-4.9
			l5.6-15.2c1.9-5.2,2.2-9.7,0.8-13.3c-1.4-3.6-4.6-6.4-9.3-8.1C391.4,68.5,387.7,68,383.6,68L383.6,68z"/>
	</g>
	<g>
		<path class="st13" d="M424.5,133.5c-1.7,0-3.4-0.6-4.9-1.7c-1.8-1.3-2.9-3.1-3.2-5.4c-0.3-2.2,0.2-4.3,1.5-6.1l8.2-11.1
			c1.8-2.5,2.8-4.6,2.8-6.5c0-1.8-0.7-3.2-2.4-4.4c-1.3-0.9-3.3-1.7-6-2.2c-3.8-0.7-4.7-1.1-5.1-1.3c-2.7-2-1.9-4-1.1-5
			c0.4-0.5,1-0.9,1.7-1.2c1.5-0.6,3.1-0.9,4.9-0.9c1.6,0,3.4,0.2,5.2,0.7c3.4,0.8,6.5,2.3,9.2,4.3c4.8,3.5,7.6,7.7,8.2,12.3
			c0.6,4.6-0.9,9.4-4.5,14.2l-8,10.8c-1.4,1.8-3.2,2.9-5.4,3.2C425.3,133.5,424.9,133.5,424.5,133.5z M407.4,121
			c-1.7,0-3.3-0.5-4.7-1.6c-1.8-1.3-2.9-3.1-3.2-5.4c-0.3-2.2,0.2-4.3,1.5-6.1l3.7-5c1.4-1.8,3.2-2.9,5.4-3.3
			c0.4-0.1,0.9-0.1,1.3-0.1c1.7,0,3.3,0.6,4.8,1.6c1.8,1.4,2.9,3.2,3.3,5.4c0.3,2.2-0.2,4.2-1.5,6.1l-3.7,5
			c-1.3,1.8-3.1,2.9-5.4,3.2C408.3,121,407.9,121,407.4,121z"/>
		<path d="M420.9,88.5c1.6,0,3.3,0.2,5.1,0.7c3.3,0.8,6.3,2.2,9,4.2c4.7,3.5,7.3,7.4,7.9,11.9c0.6,4.5-0.9,9.1-4.3,13.8l-8,10.8
			c-1.3,1.7-2.9,2.7-5,3c-0.4,0.1-0.8,0.1-1.1,0.1c-1.6,0-3.1-0.5-4.5-1.5c-1.7-1.2-2.7-2.9-3-5c-0.3-2.1,0.1-3.9,1.4-5.6l8.2-11.1
			c3.8-5.2,3.9-9.1,0.3-11.8c-1.4-1-3.4-1.8-6.2-2.3c-2.8-0.5-4.4-0.9-4.8-1.2c-1.7-1.3-2.1-2.7-1-4.2c0.3-0.4,0.8-0.8,1.4-1
			C417.7,88.8,419.2,88.5,420.9,88.5 M411.3,100.3c1.6,0,3.1,0.5,4.4,1.5c1.7,1.3,2.7,2.9,3,4.9c0.3,2-0.2,3.9-1.4,5.6l-3.7,5
			c-1.2,1.7-2.9,2.7-5,3c-0.4,0.1-0.8,0.1-1.2,0.1c-1.6,0-3-0.5-4.4-1.5c-1.7-1.2-2.7-2.9-3-5c-0.3-2.1,0.1-3.9,1.4-5.6l3.7-5
			c1.3-1.7,2.9-2.7,4.9-3C410.5,100.3,410.9,100.3,411.3,100.3 M420.9,87.2L420.9,87.2c-1.8,0-3.6,0.3-5.1,0.9
			c-0.9,0.3-1.5,0.8-2,1.4c-1.5,2.1-1.1,4.2,1.2,5.9c0.5,0.3,1.4,0.7,5.3,1.5c2.6,0.5,4.5,1.2,5.7,2.1c1.9,1.4,3.9,4-0.5,10
			l-8.2,11.1c-1.4,1.9-2,4.1-1.6,6.5c0.4,2.4,1.5,4.3,3.5,5.8c1.6,1.2,3.4,1.8,5.2,1.8c0.4,0,0.9,0,1.3-0.1c2.4-0.3,4.3-1.5,5.8-3.5
			l8-10.8c3.7-5,5.2-9.9,4.6-14.7c-0.6-4.8-3.5-9.1-8.4-12.7c-2.8-2-5.9-3.5-9.4-4.4C424.4,87.5,422.6,87.2,420.9,87.2L420.9,87.2z
			 M411.3,99c-0.4,0-0.9,0-1.4,0.1c-2.4,0.4-4.3,1.5-5.8,3.5l-3.7,5c-1.4,1.9-2,4.1-1.6,6.5c0.4,2.4,1.5,4.3,3.5,5.8
			c1.5,1.1,3.3,1.7,5.1,1.7c0.5,0,0.9,0,1.4-0.1c2.4-0.4,4.3-1.5,5.8-3.5l3.7-5c1.5-2,2-4.2,1.7-6.5c-0.4-2.4-1.5-4.3-3.5-5.8
			C414.9,99.6,413.1,99,411.3,99L411.3,99z"/>
	</g>
</g>
</svg>
