<?xml version="1.0" encoding="utf-8"?>
<!-- Generator: Adobe Illustrator 18.1.1, SVG Export Plug-In . SVG Version: 6.00 Build 0)  -->
<svg version="1.1" id="Layer_1" xmlns="http://www.w3.org/2000/svg" xmlns:xlink="http://www.w3.org/1999/xlink" x="0px" y="0px"
	 viewBox="0 0 640 150" enable-background="new 0 0 640 150" xml:space="preserve">
<g>
	<g>
		<linearGradient id="SVGID_1_" gradientUnits="userSpaceOnUse" x1="320" y1="149.9999" x2="320" y2="-6.016353e-005">
			<stop  offset="0" style="stop-color:#FFFFFF"/>
			<stop  offset="9.451629e-002" style="stop-color:#F9FDFE"/>
			<stop  offset="0.2191" style="stop-color:#E9F7FC"/>
			<stop  offset="0.3607" style="stop-color:#CDECF9"/>
			<stop  offset="0.5146" style="stop-color:#A7DEF4"/>
			<stop  offset="0.6787" style="stop-color:#76CBEE"/>
			<stop  offset="0.8485" style="stop-color:#3BB5E7"/>
			<stop  offset="1" style="stop-color:#009FE0"/>
		</linearGradient>
		<rect y="0" fill="url(#SVGID_1_)" width="640" height="150"/>
	</g>
	
		<linearGradient id="SVGID_2_" gradientUnits="userSpaceOnUse" x1="455.2278" y1="13.8491" x2="455.2278" y2="87.6925" gradientTransform="matrix(1 6.760758e-003 -6.760758e-003 1 2.720458e-002 -9.1645)">
		<stop  offset="0" style="stop-color:#FFFFFF"/>
		<stop  offset="0.2517" style="stop-color:#F8F9FD"/>
		<stop  offset="0.6208" style="stop-color:#E4EAF8"/>
		<stop  offset="1" style="stop-color:#C9D4F0"/>
	</linearGradient>
	<path fill="url(#SVGID_2_)" d="M515.5,53.1c-3.9,0-7.5,1.5-10.1,4c-0.1-0.1-0.3-0.2-0.4-0.2c0.1-0.3,0.1-0.7,0.1-1
		c0-3.2-2.1-5.8-5-6.7c-1.3-2.1-3.5-3.5-6.1-3.5c-0.8,0-1.6,0.1-2.3,0.4c0-0.2,0-0.5-0.1-0.7c2.5-0.8,4.4-3.2,4.4-6
		c0-3.5-2.8-6.4-6.4-6.5c-2.4,0-4.5,1.3-5.6,3.3c-0.4-0.1-0.7-0.2-1.1-0.3c2.3-1.5,3.9-4.1,3.9-7.1c0-4.6-3.7-8.4-8.3-8.5
		c-2.4,0-4.5,1-6.1,2.5c-2.4-8.7-10.3-15.1-19.8-15.2c-11-0.1-20.1,8.5-20.8,19.3c-4.5,0.9-8.1,4.5-8.9,9.1c-1.6,0.6-3,1.5-4.2,2.6
		c-0.6-0.2-1.3-0.3-1.9-0.3c-3.3,0-6,2.6-6,5.9c0,0.9,0.2,1.8,0.5,2.5c-1-0.3-2.1-0.5-3.2-0.5c-5.7,0-10.4,4.2-11,9.8
		c-0.8-2.2-2.9-3.9-5.5-3.9c-3.2,0-5.9,2.6-5.9,5.8c0,0.8,0.1,1.5,0.4,2.2c-0.4-0.1-0.8-0.2-1.2-0.2c-2.9,0-5.2,2.3-5.3,5.2
		c0,2.9,2.3,5.2,5.2,5.2c2.9,0,5.2-2.3,5.3-5.2c0-0.6-0.1-1.2-0.3-1.7c0.1,0,0.2,0.1,0.3,0.1c0,0.1,0,0.1,0,0.2c0,3.7,3,6.8,6.7,6.8
		c2.6,0,4.9-1.5,6.1-3.7c1.5,0.8,3.2,1.3,5,1.3c2.2,0,4.3-0.6,6.1-1.8c0.3,3.9,3.5,6.9,7.5,6.9c1.7,0,3.3-0.5,4.5-1.5
		c1.3,0.8,2.8,1.2,4.5,1.2c2.4,0,4.6-0.9,6.2-2.4c1.2,1.7,3.1,2.8,5.3,2.8c1.3,0,2.5-0.4,3.5-1c1.6,4.1,5.5,7.1,10.2,7.1
		c5.8,0,10.5-4.4,11-10c0.9,0.3,1.8,0.5,2.8,0.6c0.8,0,1.6-0.1,2.4-0.4c1,1.7,2.9,2.8,5,2.8c2.6,0,4.7-1.6,5.6-3.8
		c1.6-0.1,3-0.8,4-1.8c0.1,0.8,0.3,1.5,0.7,2.2c0.6,6.2,5.8,11,12.2,11.1c2.4,0,4.6-0.6,6.5-1.8c2.5,2.2,5.8,3.5,9.4,3.6
		c8,0.1,14.5-6.4,14.5-14.4C529.9,59.7,523.4,53.2,515.5,53.1z M488.5,61c-0.3-1.8-1.4-3.4-2.9-4.4c0.5-0.3,1-0.6,1.5-0.9
		c0.7,1.6,1.9,3,3.5,3.8c-0.1,0.1-0.1,0.1-0.2,0.2C489.7,60,489,60.4,488.5,61z M454.4,56.9c0.2,0.3,0.4,0.5,0.7,0.8
		c-0.4,0-0.8,0.1-1.2,0.1C454.1,57.5,454.2,57.2,454.4,56.9z M472.8,54.8c1.2,1.2,2.8,2.1,4.5,2.6c-0.5,0.5-1,1.1-1.3,1.8
		c-0.7-1.3-1.8-2.3-3.1-3c0-0.2,0-0.5,0-0.7C472.9,55.2,472.9,55,472.8,54.8z"/>
	<path fill="#85BE41" d="M0,85.5L0,150h640l0-22.6c0,0-58.5-17.5-304.4-34.3S0,85.5,0,85.5z"/>
	<path fill="#C1D42E" d="M640,102.1V150H0l0-16.8c0,0,58.5-13,304.4-25.5S640,102.1,640,102.1z"/>
	<linearGradient id="SVGID_3_" gradientUnits="userSpaceOnUse" x1="106.1232" y1="6.7381" x2="115.5691" y2="60.3088">
		<stop  offset="0" style="stop-color:#FFFFFF"/>
		<stop  offset="0.2316" style="stop-color:#F8FBFD"/>
		<stop  offset="0.5714" style="stop-color:#E4F1F8"/>
		<stop  offset="0.9762" style="stop-color:#C4E1F1"/>
		<stop  offset="1" style="stop-color:#C2E0F0"/>
	</linearGradient>
	<path fill="url(#SVGID_3_)" d="M151.8,35.1c-2.5,0-4.8,1-6.5,2.6c-0.1,0-0.2-0.1-0.3-0.1c0-0.2,0-0.4,0-0.7c0-2-1.4-3.8-3.3-4.3
		c-0.8-1.3-2.3-2.2-4-2.2c-0.5,0-1,0.1-1.5,0.2c0-0.2,0-0.3,0-0.5c1.6-0.6,2.8-2.1,2.8-3.9c0-2.3-1.9-4.1-4.1-4.1
		c-1.6,0-2.9,0.9-3.6,2.1c-0.2-0.1-0.5-0.1-0.7-0.2c1.5-1,2.5-2.7,2.5-4.6c0-3-2.4-5.4-5.4-5.4c-1.5,0-2.9,0.6-3.9,1.7
		c-1.6-5.6-6.7-9.7-12.8-9.7c-7.1,0-12.9,5.6-13.3,12.6c-2.9,0.6-5.2,2.9-5.7,5.9c-1,0.4-1.9,1-2.7,1.7c-0.4-0.1-0.8-0.2-1.2-0.2
		c-2.1,0-3.9,1.7-3.9,3.9c0,0.6,0.1,1.1,0.4,1.6c-0.7-0.2-1.4-0.3-2.1-0.3c-3.7,0-6.7,2.8-7,6.4c-0.5-1.4-1.9-2.5-3.5-2.5
		c-2.1,0-3.8,1.7-3.8,3.8c0,0.5,0.1,1,0.3,1.4c-0.3-0.1-0.5-0.1-0.8-0.1c-1.9,0-3.4,1.5-3.4,3.4c0,1.9,1.5,3.4,3.4,3.4
		c1.9,0,3.4-1.5,3.4-3.4c0-0.4-0.1-0.8-0.2-1.1c0.1,0,0.1,0,0.2,0.1c0,0,0,0.1,0,0.1c0,2.4,1.9,4.3,4.3,4.3c1.7,0,3.2-1,3.9-2.4
		c1,0.5,2.1,0.8,3.3,0.8c1.4,0,2.8-0.4,3.9-1.2c0.2,2.5,2.3,4.4,4.9,4.4c1.1,0,2.1-0.4,2.9-1c0.8,0.5,1.8,0.8,2.9,0.8
		c1.5,0,2.9-0.6,4-1.6c0.8,1.1,2,1.8,3.5,1.8c0.8,0,1.6-0.2,2.3-0.7c1,2.7,3.6,4.6,6.6,4.6c3.7,0,6.8-2.9,7.1-6.5
		c0.6,0.2,1.2,0.3,1.8,0.3c0.5,0,1.1-0.1,1.5-0.3c0.7,1.1,1.9,1.8,3.2,1.8c1.7,0,3.1-1,3.6-2.5c1-0.1,1.9-0.5,2.6-1.2
		c0.1,0.5,0.2,1,0.4,1.4c0.4,4,3.8,7.1,7.9,7.1c1.5,0,3-0.4,4.2-1.2c1.6,1.4,3.8,2.3,6.1,2.3c5.2,0,9.3-4.2,9.3-9.3
		C161.1,39.3,156.9,35.1,151.8,35.1z M134.4,40.3c-0.2-1.2-0.9-2.2-1.9-2.8c0.3-0.2,0.7-0.4,1-0.6c0.4,1.1,1.2,1.9,2.3,2.4
		c0,0-0.1,0.1-0.1,0.1C135.2,39.7,134.8,40,134.4,40.3z M112.4,37.8c0.1,0.2,0.3,0.3,0.4,0.5c-0.3,0-0.5,0.1-0.8,0.1
		C112.2,38.2,112.3,38,112.4,37.8z M124.3,36.4c0.8,0.8,1.8,1.3,2.9,1.6c-0.3,0.3-0.6,0.7-0.8,1.2c-0.5-0.8-1.2-1.5-2-1.9
		c0-0.2,0-0.3,0-0.5C124.3,36.7,124.3,36.5,124.3,36.4z"/>
	<g>
		<path fill="#FFFFFF" d="M246.5,40.7c-1.3-4.4-3.8-4.4-8.6-4.7c-0.6,0-1.1-0.2-1.3-0.4c-0.3-0.3-0.3-0.6-0.2-1.1
			c1.1-3.4-3.4-7.9-9.3-4c-0.9,0.6-2.2,0.2-2.1-1.1c0.4-3.7-3.6-5.3-5.6-5c-3.5,0.5-5.1,3.1-5.3,5.2c-0.2,2.1-1.9,2.2-2.7,0.6
			c-1-2.1-3.5-5-7-4c-3.9,1.1-5.2,3.9-5.6,5.8c-0.5,1.9-1.8,2-2.6,0.7c-0.8-1.2-3.7-2.2-5.8-1.1c-2.5,1.3-4.3,4.1-4,7
			c0.1,0.9-0.2,1.8-1.7,1.5c-3.3-0.6-4.7,0.6-4.8,2.6c22.1,0,44.3,0.1,66.7-1.2C246.6,41.2,246.6,41,246.5,40.7z"/>
	</g>
	<g>
		<path fill="#FFFFFF" d="M338.3,26.3c-1.6-5.3-4.6-5.3-10.4-5.6c-0.7-0.1-1.3-0.2-1.6-0.5c-0.3-0.3-0.4-0.8-0.2-1.3
			c1.4-4.1-4.1-9.5-11.2-4.9c-1.1,0.7-2.7,0.3-2.5-1.3c0.4-4.4-4.4-6.4-6.7-6c-4.2,0.6-6.1,3.8-6.4,6.3c-0.3,2.6-2.3,2.7-3.3,0.7
			c-1.3-2.5-4.3-6.1-8.4-4.8c-4.7,1.4-6.3,4.7-6.8,7c-0.6,2.3-2.2,2.4-3.1,0.9c-1-1.5-4.4-2.7-7-1.4c-3,1.5-5.2,4.9-4.8,8.5
			c0.1,1.1-0.2,2.2-2.1,1.8c-3.9-0.7-5.7,0.7-5.8,3.1c26.6,0,53.4,0.1,80.5-1.5C338.5,26.9,338.4,26.6,338.3,26.3z"/>
	</g>
	<rect y="0" opacity="0.3" fill="#FFFFFF" width="640" height="150"/>
	<polygon fill="#001F5B" points="640,150 442.3,0 640,0 	"/>
</g>
<g>
	<g>
		<path fill-rule="evenodd" clip-rule="evenodd" fill="#001F5B" d="M315,47.2c-0.1,0.4-0.4,1.1-0.4,1.1c0,3.2,2.1,2.9,4,3.8l4.7,0.2
			c2.8,0.2,6.4-0.9,10-0.9v1.3c0,3.9-1,21.7-2,23.3c-0.1,1-0.4,1.1-0.4,2.2v2c0,1.1,0.3,1.4,0.7,2h0.4c6.5,0,6.1-6.1,7-11.9
			c0.7-4.6,1-13.2,1-18.1l0-0.9l2.9,0.3h2.2c0.6,0,0.6-0.1,1.1-0.2l1.2-3l-0.6-0.8c-1.7-2.3-13.7-1.6-15.3-2.7
			C324.5,44.9,319.3,44.3,315,47.2"/>
		<path fill-rule="evenodd" clip-rule="evenodd" fill="#001F5B" d="M248.6,49.4l0.9,8.4c1.5,2.4,0.3,3.6,4.9,3.6
			c1.8-0.5,1.7-1.7,2-3.1l-0.7-10c-0.6-2.5-1.5-4.4-4.7-4.4c-0.9,0.6-2.7,0.9-2.7,2.7v1.3C248.4,48.6,248.5,48.7,248.6,49.4"/>
		<path fill-rule="evenodd" clip-rule="evenodd" fill="#001F5B" d="M384.8,44.3c-1.4,1.2-2.5,2.5-1.3,4.9c2.6,3.7-1.4,12.2,5.1,12.2
			c3.8,0,2.9-5.2,2.9-8.9l-1.1-6.2c-0.9-1-1.6-2.4-3.6-2.4h-0.4C385.5,43.8,385.3,43.9,384.8,44.3"/>
		<path fill-rule="evenodd" clip-rule="evenodd" fill="#001F5B" d="M301,48.5c-0.5,2.2,1.6,5.3,1.8,7.6c1.2,1.7,1.6,6.3,1.6,9.1
			l0.1,6.7l-0.5,5.1c-0.3,3,2.9,4.2,3.8,5.3c0.6,0.1,1.1,0.4,1.8,0.4c1.7,0,1.2-1.2,2.2-1.6c0-6.7-1.2-10.5-1.8-16.2
			c-0.5-5-1.2-11.5-2.2-16l-0.2-0.9c-0.6-1.1-1.4-2-3.1-2h-0.2C302.7,46.1,301.6,47.5,301,48.5"/>
		<path fill-rule="evenodd" clip-rule="evenodd" fill="#001F5B" d="M443.5,67.4c-1,1.6-3.8,5.3-5.3,7.1c-0.7,1.1-2.2,2.8-2.2,4.4
			v0.4c0,1.6,1,2.7,2.7,2.7c2.1,0,2.8-1.6,3.6-2c1.3-0.9,4-4.4,4.9-5.8c1.2-1.8,2.8-5.4,4.2-6.4c2.1,1.4,3.3,3.7,4,6.6
			c0.2,0.8,0.7,3.6,1,4.3c0.3,0.7,0.9,2.1,1.8,3.7c7.7,0,2.5-11.9,0.8-15.5l-6.8-10.8l-5.7-8.2c-2.6-2.9-4.9-3.3-8.4-3.6
			c-1.7-0.1-3.3,1.9-3.3,3.4v0.4c0,1.7,1.8,2.9,3.6,2.9c2.3,0,3.2,1,3.8,2.6c0,0,2.4,3.7,2.6,3.9c0.9,1.1,1.4,3.6,2.7,3.7v0.9
			C447.2,62.4,443.8,66.9,443.5,67.4"/>
		<path fill-rule="evenodd" clip-rule="evenodd" fill="#001F5B" d="M276.6,45.2h-0.7l-11.1,0.7l-1.3,2c0,2.4,0.9,4.7,2.9,4.7h3.8
			l0.7,1.3c1.1,4.6,5.3,8,5.3,14.4c0,2.9-2.1,5.3-4.7,5.6c-2.3,0.5-5.8,0.5-8.2,0.9c-2.3,0.4-4.9,2.2-3.5,5.1l0.7,1.6
			c1,0,1.7,0.4,2.7,0.4h2.4c2.9,0,6.1-0.5,8.5-1.1c6-1.5,8.8-6.2,8.8-12.3c0-5.5-3-8.5-3.3-12v-0.4c-0.3-0.5-0.7-1.9-0.7-2.7v-0.2
			c0-1.7,0.5-3.1,2.2-3.1c2.8,0,6.7,0.1,7.8,1.8c1.7,1.1,4,8.8,2.4,11.3l-0.7,7.6c0,4.7-1.5,12.2,3.5,10.8c3.2-0.9,4.1-6.8,4.1-11
			l0.1-8.9l-0.5-5.5c-0.4-0.7-1.1-4.6-2.3-6.6c-1.5-2.5-3-2.6-4.8-4.1c-1.7,0-2.7-0.9-5.1-0.9h-0.2L276.6,45.2z"/>
		<path fill-rule="evenodd" clip-rule="evenodd" fill="#001F5B" d="M350.4,26.7l-0.7,2.7l0.7,2.2c3.5,5-1.2,18.4,5.6,18.4h2l5.8-0.5
			l1.3,0.1c4.7,0,9.8,1.8,9.8,6.2v4.2c0,1-0.7,4.6-1,5.4c-1.7,4.3-2.6,8.3-8.8,8.3h-1.6c-3.1,0-7.5-5.6-9.8-5.6h-0.4
			c-0.5,0-1.3,1.1-1.3,1.6v0.7c0,1.1,0.2,1.6,0.4,2.4l5.3,7.6c1.4,0.3,1.1,1.3,3.1,1.3h0.7c1.5,0,3.8-0.2,5.1-0.5
			c1.1-0.2,3.5-1.3,4.4-1.4c4.4-2.9,7.5-5.8,9.2-11.6c1.2-4,1.1-8.7,1.1-14c-0.2-2.8-2.3-4.9-3.9-6.5c-2-2-5.5-2.5-6.7-3.5l-3.6-0.9
			l-3.6-0.4l-6,0.3l0-1l1.2-9.5l-0.1-1.8c0-1.2-2.1-3.9-2.9-4.7c-0.6-0.5-1.6-0.9-2.7-0.9C351.9,25.4,351,26.3,350.4,26.7"/>
		<path fill-rule="evenodd" clip-rule="evenodd" fill="#001F5B" d="M422.1,46.3c-0.7,2.9,1.5,21.9,2.1,25.9c0.9,6.4-1,22.8,1.6,26.6
			c2.1,2.4,5.4,0.7,5.5-0.5l0.6-17.5l0-3.1l-1.3-14.4l-0.4-15.6c-0.6-0.9-1.6-3.3-3.1-3.3h-2.2C423.4,44.3,422.4,45.2,422.1,46.3"/>
		<path fill-rule="evenodd" clip-rule="evenodd" fill="#001F5B" d="M301.8,60.4c1,0,1.7,0.8,1.7,1.7c0,1-0.8,1.7-1.7,1.7
			c-1,0-1.7-0.8-1.7-1.7C300,61.2,300.8,60.4,301.8,60.4"/>
		<path fill-rule="evenodd" clip-rule="evenodd" fill="#001F5B" d="M364.3,84.7c1,0,1.7,0.8,1.7,1.7c0,1-0.8,1.7-1.7,1.7
			c-1,0-1.7-0.8-1.7-1.7C362.6,85.5,363.4,84.7,364.3,84.7"/>
		<path fill-rule="evenodd" clip-rule="evenodd" fill="#001F5B" d="M364.3,90.3c1,0,1.7,0.8,1.7,1.7c0,1-0.8,1.7-1.7,1.7
			c-1,0-1.7-0.8-1.7-1.7C362.6,91.1,363.4,90.3,364.3,90.3"/>
		<rect x="441.8" y="85.6" fill-rule="evenodd" clip-rule="evenodd" fill="#001F5B" width="12.9" height="2.6"/>
		<rect x="380.8" y="85.6" fill-rule="evenodd" clip-rule="evenodd" fill="#001F5B" width="12.9" height="2.6"/>
		<path fill-rule="evenodd" clip-rule="evenodd" fill="#001F5B" d="M441.9,60.8c1,0,1.7,0.8,1.7,1.7c0,1-0.8,1.7-1.7,1.7
			c-1,0-1.7-0.8-1.7-1.7C440.2,61.6,440.9,60.8,441.9,60.8"/>
		<path fill-rule="evenodd" clip-rule="evenodd" fill="#001F5B" d="M282.9,84.7c1,0,1.7,0.8,1.7,1.7c0,1-0.8,1.7-1.7,1.7
			c-1,0-1.7-0.8-1.7-1.7C281.1,85.5,281.9,84.7,282.9,84.7"/>
		<g>
			<defs>
				<path id="SVGID_4_" d="M416.4,17.8c-2.2,0.8-3.3,3.2-5.6,4c-0.5,0.2-0.7,0.7-1,0.8c-0.7,0.4-0.5,1.1-0.6,1.5
					c-0.2,0.3,0.2,0.6,0,0.9c-0.3,0.4-0.4,0.8-0.7,1.1c-0.4,0.4-0.7,0.9-0.8,1.3c-0.2,0.8-0.4,1.6-0.8,2.3c-0.5,0.5-1.2,1.2-2,1.5
					c-0.2,1.2-0.8,2.3-1.2,3.4c-0.1,0.2-0.4,0.5-0.5,0.8c-0.1,0.8-0.5,1.6-0.4,2.3c0.2,0.6,0.4,1.2,0.7,1.8c0.6,1,1.6,1.5,2.1,2.5
					c2.1,0.6,3,0.8,5.1,1.1c1,0.2,2.6-0.6,2.9-1.5c1.3-5.7,1.6-3.7-0.1-9.1c-0.4-1-1.4-1.7-1.7-2.8c0-0.1,0.3-0.9,0.5-1
					c0.5-0.1,0.9,0,1.3,0.2c0.4,0.2,0.8,0.3,1.2,0.2c0,0.1,0.1-0.2,0.1-0.3c2.1-1.4,5.2-2,6.3-4.6c0.1-0.2,0.6-0.3,0.7-0.5
					c0.2-0.5,0-1,0.2-1.5c0-0.1,0.3,0,0.3,0c0.2-0.7,0.4-1.5,0.4-2.1c-0.1-0.2-0.3-0.4-0.4-0.6c-0.3-0.6-1.2-1.1-1.6-1.3
					C419.4,18.4,417.9,17.8,416.4,17.8C416.5,17.9,416.4,17.9,416.4,17.8"/>
			</defs>
			<clipPath id="SVGID_5_">
				<use xlink:href="#SVGID_4_"  overflow="visible"/>
			</clipPath>
			
				<linearGradient id="SVGID_6_" gradientUnits="userSpaceOnUse" x1="208.5394" y1="144.1649" x2="209.678" y2="144.1649" gradientTransform="matrix(-16.0771 -2.1067 -2.6867 20.5037 4162.085 -2484.7632)">
				<stop  offset="0" style="stop-color:#FFCA05"/>
				<stop  offset="0.5" style="stop-color:#FFE190"/>
				<stop  offset="1" style="stop-color:#FFFFFF"/>
			</linearGradient>
			<polygon clip-path="url(#SVGID_5_)" fill="url(#SVGID_6_)" points="422.6,46 399.4,43 403,15.2 426.2,18.2 			"/>
		</g>
		<g>
			<defs>
				<path id="SVGID_7_" d="M399,8.5c-0.6,0.2-1,0.5-1.4,1c-0.7,0.9-0.5,2.1-0.4,2.9c0.1,2.1,0.1,2.5,0.7,4.4
					c0.2,0.8,0.2,1.5,0.3,2.3c0,0.3,0,0.6,0.2,0.9c0,0.1-0.1,0.2,0,0.3c0.2,0.5,0.3,1.2-0.1,1.6c-0.2,0.3-0.6,0.6-1,0.8
					c-1.2,0.4-2.1,0-3.1,0.7c-0.9,0.6-1.4,1-2.4,1.5c-0.7,0.4-1.6,1.9-2.3,2.3c-0.7,0.4,0.1,0.9,0,1.7c0,0.2,0.1,1.2,0.2,1.3
					c0.8,0.7,0.5,0.8,1.1,1.6c0,0.1,0.2,0,0.3,0.1c0.6,0.8,1.2,1.6,2.2,2c0.9,0.3,1.9,0.4,2.9,0.5c1,0.1,2-0.1,3-0.1
					c1-2.2,2-4.3,3.2-6.3c0.5-0.8,1.1-1.5,1.9-2.2c0.1,0,0.2,0,0.2-0.1c0.5-0.5,0.8-1.1,1.1-1.7c0.7-1.6,1-1.7,2.2-3.1
					c0.3-0.3,0.7-0.5,0.8-0.9l0.1-0.5c-0.1-0.7-0.3-1.3-0.5-1.9c-0.2-0.4-0.4-0.8-0.5-1.2c-0.2-0.3-0.5-0.6-0.7-1
					c-0.6-1.5-0.5-3-1.1-4.5c-0.8-2-3.1-2.8-5.2-2.9c-0.2,0-0.3,0-0.5,0C399.5,8.2,399.3,8.4,399,8.5"/>
			</defs>
			<clipPath id="SVGID_8_">
				<use xlink:href="#SVGID_7_"  overflow="visible"/>
			</clipPath>
			
				<linearGradient id="SVGID_9_" gradientUnits="userSpaceOnUse" x1="213.1665" y1="145.921" x2="214.3052" y2="145.921" gradientTransform="matrix(16.0271 2.6034 3.3586 -20.676 -3517.2385 2481.9128)">
				<stop  offset="0" style="stop-color:#FFCA05"/>
				<stop  offset="0.41" style="stop-color:#FFDD7F"/>
				<stop  offset="1" style="stop-color:#FFFFFF"/>
			</linearGradient>
			<polygon clip-path="url(#SVGID_8_)" fill="url(#SVGID_9_)" points="389.1,5 412.6,8.8 407.9,37.6 384.4,33.8 			"/>
		</g>
		<g>
			<path fill-rule="evenodd" clip-rule="evenodd" fill="#F8A770" d="M404.4,33.8c0.1,0.5-0.6,0.6-0.8,1.1c-0.1,0.6-0.8,0.6-1.3,0.6
				c-0.3-0.1-0.7-0.1-1-0.1c-0.7-0.1-1.2-0.2-1.9-0.3c0-0.4-0.1-0.9,0-1.3c0.3-0.9,1-1.6,1.8-2.1c0.1,0,0.2,0,0.3,0.1
				c0.4,0.2,0.6,0.5,1,0.6c0.4,0.2,0.6,0.4,0.9,0.7c0,0.1,0.1,0.1,0,0.2L404.4,33.8z"/>
			<path fill-rule="evenodd" clip-rule="evenodd" fill="#F8A770" d="M406.6,27.6c0,0.1,0,0.3,0.2,0.3c-0.1,0.6,0,1.4-0.3,1.9
				c-0.6,0.9-2.2,1.1-3.1,0c0.1,0-0.1,0-0.2-0.1c-0.3-0.5-0.6-1.2-0.2-1.7c0.3-0.3,0.7-0.6,1-1c0.4-0.2,0.9-0.2,1.4,0.1
				c0.3,0.1,0.5,0,0.8,0.1C406.3,27.2,406.5,27.3,406.6,27.6"/>
			<path fill-rule="evenodd" clip-rule="evenodd" fill="#F8A770" d="M409.3,21.4c0.2,0,0.8,0.5,0.8,0.6c0.1,0.8-0.7,1.3-0.9,2.1
				c-0.1,0.4-0.6,0.4-0.8,0.4c-0.4,0.1-0.7,0-1.1-0.1c-0.4-0.1-0.6-0.5-0.7-0.9c0-0.1,0-0.3,0.2-0.4c0-0.2,0-0.6,0.1-0.9
				c0.1-0.2,0.3-0.2,0.4-0.3c0.4-0.1,0.6-0.4,1-0.4C408.6,21.5,408.9,21.4,409.3,21.4"/>
			<path fill-rule="evenodd" clip-rule="evenodd" fill="#F8A770" d="M401,35.5c0.4,0,0.8,0.3,0.8,0.6c0.1,0.3,0.1,0.6,0.1,1
				c0,0.5-0.4,0.8-0.8,1.2c-0.7,0.7-1.8,0.9-2.5,0.3c-0.9-0.8-1.2-2.2-0.7-3.3c0.2-0.6,0.8-0.9,1.3-1.1c0.5-0.1,1,0.2,1.1,0.7
				c0.1,0.1,0.2,0.3,0.5,0.3c0,0.1-0.1,0-0.1,0.1L401,35.5z"/>
			<path fill-rule="evenodd" clip-rule="evenodd" fill="#F8A770" d="M403.4,29.5c0.8,0.2,1.2,1.1,1.5,1.8c0.2,0.4,0.1,0.7,0.2,1
				c0,0.2-0.2,0.4-0.3,0.6c-0.2,0.2-0.6,0.3-0.9,0.4c-0.5,0.1-0.9-0.1-1.4-0.3c-0.5-0.2-0.9-1-1.2-1.6c-0.5-0.8-0.4-1.7,0.6-2.2
				C402.5,29,403,29.1,403.4,29.5"/>
			<path fill-rule="evenodd" clip-rule="evenodd" fill="#F8A770" d="M408.7,25.4c-0.1,0.8-0.3,1.6-0.9,2.1c-0.1,0-0.2-0.1-0.2-0.1
				c-0.4,0.4-1,0.5-1.5,0.4c-0.3-0.1-0.4-0.3-0.5-0.5c-0.1-0.1-0.2-0.1-0.3-0.2c-0.1-0.1-0.2-0.3-0.3-0.4c0-0.1-0.1-0.3-0.2-0.4
				c-0.4-0.5-0.3-0.8-0.1-1.3c0.2-0.4,0.6-0.9,1.1-1c0.5-0.1,0.9,0.2,1.2,0.5c0.1,0,0.1,0,0.2-0.1c0.1,0.1,0,0.2,0.1,0.2
				c0.4,0.4,0.9,0.6,1.1,1L408.7,25.4z"/>
			<path fill-rule="evenodd" clip-rule="evenodd" fill="#FFFFFF" d="M412.5,15.8c0.1,0,0.2,0,0.2,0.1c0.5,0.9,0.5,1.9,0.2,2.9
				c-0.3,0.9-1,1.8-1.9,2c-0.6,0.2-1.3,0.3-1.9,0c-0.1-0.1-0.1-0.5-0.2-0.7c0-0.9,0.2-1.8,0.4-2.7c0.2-0.7,0.7-1.3,1.5-1.6
				c0.5-0.1,1.1,0,1.5,0L412.5,15.8z"/>
			<path fill-rule="evenodd" clip-rule="evenodd" fill="#231F20" d="M419.2,26c0.4-0.3,0.8-0.7,1-1c0.4-0.2,0.7-0.9,1.1-0.6l0.2-0.7
				c0.2,0,0.4,0,0.5,0.2c0.2,0.2-0.1,0.4-0.2,0.5c-0.5-0.3-0.5,0.3-0.7,0.5c-0.3,0.3-0.6,0.8-0.9,1.2L419.2,26z"/>
			<path fill-rule="evenodd" clip-rule="evenodd" fill="#231F20" d="M405.4,23.7c0.2-0.1,0.3-0.2,0.5-0.4c0-0.6,0.7-0.8,0.8-1.3
				c0.5-0.4,0.9-0.9,1.4-1.3c0.2-0.5-0.3-1,0.1-1.5c0-0.7,0.4-1.4,0.7-2c0.4-0.1,0.3-0.8,0.8-0.5c0,0.7-0.8,1.3-0.6,2
				c-0.5,0.4-0.2,1.1-0.1,1.6c0.2,0.5,0.6,1.2,1.3,1.1c0.6-0.2,1.1-0.6,1.5-1.1c1.1-0.8,1.8-2.2,1.5-3.7c-0.2-0.8-0.8-1-1.6-1.1
				c-0.5,0.3-1.3,0.6-1.7,1.1c-0.1-0.1-0.2-0.2-0.1-0.4c0.3-0.4,0.8-0.6,1.2-0.9c1.2,0.2,0.5-1.3,1.2-1.7c-0.3-0.5,0.1-1,0.2-1.5
				c0-0.5,0.3-1.2,0.3-1.7c-0.3-0.8,0.1-1.6-0.1-2.5c-0.1-0.9-0.9-0.5-1.3-1.1c-0.2-0.4-0.3-0.9-0.1-1.4c0.3-0.4,0.9,0,1.3-0.1
				c0.4,0.5,0.3,1.1,0.4,1.7c-0.3,0.4,0.4,0.7,0.1,1.1c0.4,0.6-0.3,1.2,0.3,1.8c-0.4,0.7-0.1,1.5-0.4,2.2c-0.5,0.5,0.1,1.3-0.7,1.6
				c0.1,0.5,0,1-0.2,1.5c0.3,0.1,0.6,0.2,0.6,0.5c0.1-0.2,0.4,0,0.6-0.2c0.2-0.5,0.4-1.1,1-1.3c0-0.1,0.1-0.2,0-0.2
				c0.8-1,1.5-2.1,2.6-2.9c0.2-0.3,0.5-0.3,0.7-0.6c0.9-0.2,0.4-1.5,1.4-1.7c0.4,0.3,0.9,0.3,1.1,0.8c0.1,0.6-0.2,1.1-0.8,1.3
				c-0.2,0.1-0.6,0-0.8-0.2c-0.8,0.3-1.2,1-1.9,1.4c-1,1.4-2.5,2.3-3.2,3.9c0.1,0.3,0.5,0.6,0.3,1c0.2,0.4-0.2,0.9,0.2,1.4
				c0.5-0.2,0.9-0.8,1.5-0.5c0.1,0.5-0.5,0.3-0.7,0.6c-0.7,0.4-1.5,1-2,1.7c-0.2,0.9-1.3,1-1.8,1.5c-0.3,0.3-0.1,0.9-0.6,1.2
				c0,0.5-0.2,1-0.5,1.4l-0.5-0.1c0.3-0.5,0.3-1.1,0.6-1.7c0.2-0.1,0.3-0.2,0.3-0.5l-0.7-0.2c-0.1-0.4-0.5-0.5-0.8-0.7
				c-0.4,0.1-0.7,0.5-0.9,0.7c-0.4,0.3-0.7,0.7-0.9,1.1l0.3,0.2c-0.1,0.3,0.1,0.5,0.2,0.8l-0.5-0.1c-0.1-0.2-0.1-0.3-0.3-0.4
				c-0.1,0.1-0.2,0.2-0.3,0.3L405.4,23.7z"/>
			<path fill-rule="evenodd" clip-rule="evenodd" fill="#231F20" d="M415.5,35.1c0,0.1,0,0.3-0.1,0.5c-0.1,0.3,0.2,0.4,0.3,0.7
				c-0.1,0.6-0.4,1.2-0.2,1.8c-0.1,0.5-0.7,0.9-0.2,1.5c0.2,0.7-1.1,1.2-0.9,1.9c-0.2,0.4-0.6,0.5-0.7,0.9c-0.5,0.1-0.6,0.7-1.2,0.8
				c0,0.5-1.4,0.6-1.7,0.7c0-0.1-0.2-0.1-0.2-0.1c-0.2,0.6-0.5-0.3-0.8,0.1c-0.4-0.5-0.8,0.5-1.1-0.2c-0.8,0-1.9-0.3-2.6-0.7
				c-0.4-0.7-1.4-0.7-1.5-1.6c0,0-0.4-0.3-0.8-0.8c-0.3-0.5-0.9-1.4-0.9-1.4l-0.1-1.4c0,0-0.9,0.8-1.4,0.9c-0.5,0.1-1.4,0.4-1.8,0.4
				c-0.4,0-1.5-0.2-2-0.7c-0.2-0.2-0.5-1.4-0.5-1.4l-0.2-0.8l0.6-1.1c0,0-0.8-0.5-1.1-0.2c-0.3,0.3-0.4,0.4-0.7,0.3
				c-0.3-0.1-0.3-0.1-0.6-0.2c-0.2-0.1-0.6-0.2-0.6-0.2s-0.2,0.1-0.7,0c-0.6-0.2-0.5-0.3-0.9-0.4l-1.3-1c0-0.3-0.4-0.2-0.5-0.3
				c-0.3-0.4-0.9-0.5-0.9-1.1c-0.5-0.2-0.4-0.8-0.3-1.3l0.3,0.1c0.2,0.3,0.1,0.9,0.6,0.9c0.2,0.8,1.2,0.5,1.5,1.3
				c0.2,0.4,0.6-0.2,0.8,0.3c0.6-0.1,0.8,0.5,1.4,0.2c0.3,0.6,1.1,0.1,1.4,0.5c0.1-0.2,0.2-0.2,0.4-0.2c0.3,0.3,0.7-0.2,1.1,0
				c0.6,0.3,0.8-0.5,1.3-0.2c0.1-0.5,0.5-0.9,0.7-1.4l0.6,0.1c0,0.1,0,0.3,0,0.4c-0.3,0.2-0.5,0.3-0.3,0.7c0.1,0.5,1,0.9,0.6,1.3
				c-0.8,0.3-0.5-0.8-1-1c-0.3,0.5-0.7,1-1.1,1.4c0,0.6-0.6,1.2-0.1,1.8c0,0.4,0.4,0.5,0.5,0.8c0.7,0.2,1.5,0.5,2.1-0.1
				c0.7,0.1,0.6-0.8,1.2-0.8c0.1-0.5,0.6-0.4,0.7-0.9c-0.1-0.2-0.3-0.2-0.4-0.3c-0.6-0.2-1-0.1-1.5-0.5c0-0.2-0.4-0.4,0-0.5
				c0.7,0.3,1.5,0.8,2.2,0.7c0.2-0.3,0.6-0.5,0.8-0.9c0-0.4,0.6-0.6,0.5-1c-0.2,0.1-0.5-0.3-0.7,0c-0.3-0.2-0.6-0.2-0.7-0.6l0.9,0.1
				c0.1,0.1,0.2,0.1,0.3,0.1c0.2,0.2,0.4,0.1,0.5,0l0.6,0.1c0,0.1-0.1,0.2-0.1,0.3c-0.4,0.4-0.5,1-0.7,1.6c-0.7,0.4-0.3,1.1-0.5,1.6
				c-0.2,0.8,0.3,1.6,0.6,2.4c0.3,0.3,0.5,0.9,0.9,1c0.1,0.8,1.1,0.9,1.5,1.6c0.7,0.4,1.4,0.7,2.2,0.6c0.3,0.6,0.7-0.3,1.1,0.2
				c0.3-0.4,0.6,0.5,0.8-0.1c0.1,0,0.2,0,0.2,0.1c0.3-0.1,0.9-0.1,0.9-0.6c0.5,0,0.7-0.7,1.2-0.8c0.1-0.4,0.5-0.5,0.7-0.9
				c-0.2-0.7,0.7-1,0.5-1.7c-0.5-0.5,0.2-0.9,0.2-1.5c-0.2-0.7-0.2-1.3-0.2-1.9c-0.1-0.3-0.3-0.4-0.3-0.6L415.5,35.1z"/>
			<path fill-rule="evenodd" clip-rule="evenodd" fill="#231F20" d="M414,34.8c0,0,0-0.1,0-0.1c0.1-0.4,0-0.8,0.1-1.1
				c-0.4-0.2-0.3-0.7-0.5-1c0.2-0.7-0.4-0.9-0.3-1.5c-0.3-0.4-0.4-1-0.7-1.4c0.2-0.5-0.3-0.6-0.4-1c0.2-0.5,1-0.1,1.4-0.4
				c0.9,0.4,1.6-0.5,2.4-0.6c0.5-0.3,1.2-0.6,1.6-0.9c0.5-0.2,1.1-0.5,1.6-0.9l1,0.2c-0.5,0.6-1,1.1-1.5,1.3
				c-0.4,0.4-1.2,0.7-1.6,0.9c-0.8,0.1-1.2,1.3-2.1,0.9c-0.4,0.3-1.2,0-1.4,0.4c0.2,0.4,0.6,0.5,0.4,1c0.3,0.3,0.3,0.9,0.7,1.4
				c0,0.6,0.6,0.8,0.3,1.5c0.2,0.3,0.1,0.7,0.5,1c0,0.2,0,0.4,0,0.7L414,34.8z"/>
			<path fill-rule="evenodd" clip-rule="evenodd" fill="#231F20" d="M404.4,33.3c0.1-0.1,0.3-0.3,0.4-0.4l0.3,0.2
				c0,0.1,0,0.2-0.1,0.3L404.4,33.3z"/>
			<path fill-rule="evenodd" clip-rule="evenodd" fill="#231F20" d="M402.8,33c0,0,0-0.1,0-0.1c0.3-0.3,0.5,0.1,0.9,0.3L402.8,33z"
				/>
			<path fill-rule="evenodd" clip-rule="evenodd" fill="#231F20" d="M399.5,32.5c0.1-0.2,0.2-0.4,0.3-0.6c0.4-0.2,0.5-0.5,0.5-0.9
				c1-0.2,0.3-1.7,1.4-1.9c0-0.7,0.8-1,0.9-1.6c1-0.2,0.7-1.6,1.7-1.7l-0.1-0.1c0-0.3,0.1-0.7,0.4-0.9c0-0.5,0.4-0.7,0.7-1l0.7,0.1
				c-0.4,0.4-0.9,0.7-1.1,1.3c-0.2,0.5,0.3,0.9,0.4,1.3c0.1,0.2,0.4,0.2,0.3,0.5c-0.4,0.1-0.6-0.3-0.8-0.4c-0.1-0.2-0.1-0.6-0.4-0.6
				c0,0.4-0.6,0.5-0.5,1c-0.6,0.5-0.8,1.4-0.6,2c0,0.3,0.4,0.3,0.2,0.6c-0.4,0-0.6-0.5-1-0.8c0,0.2-0.3,0.2-0.3,0.3
				c-0.2,0.7-0.9,1.2-0.8,2c0.1,0.5,0.9,0.6,0.7,1.2c-0.5,0.2-0.6-0.5-0.9-0.7c-0.2-0.1,0.1-0.4-0.2-0.4c-0.4,0.4-0.7,0.8-0.9,1.3
				L399.5,32.5z"/>
			<path fill-rule="evenodd" clip-rule="evenodd" fill="#231F20" d="M389.9,30.9C389.9,30.9,389.9,30.9,389.9,30.9
				c0.2-0.1,0.3,0,0.3,0.1L389.9,30.9z"/>
			<path fill-rule="evenodd" clip-rule="evenodd" fill="#231F20" d="M409.8,24.4c-0.2,0.4-0.4,0.7-0.4,1.1c-0.7,0.5-0.7,1.5-1.4,2.1
				c-0.1,0-0.2-0.1-0.3-0.2c0.1-0.7,0.9-1.2,0.8-1.9c-0.6-0.1-0.9-0.6-1.1-1c0.5-0.1,0.8,0.4,1.2,0.5c0.3-0.2,0.5-0.4,0.6-0.7
				L409.8,24.4z"/>
			<path fill-rule="evenodd" clip-rule="evenodd" fill="#231F20" d="M407.2,24c0.1,0.1,0.1,0.2,0.1,0.3c-0.4,0.1-0.5-0.1-0.6-0.4
				L407.2,24z"/>
			<path fill-rule="evenodd" clip-rule="evenodd" fill="#FFFFFF" d="M411.7,6.4c0.2,0.1,0.4,0.3,0.6,0.2c0.1-0.1,0.3-0.2,0.2-0.4
				c-0.1-0.2-0.3-0.5-0.5-0.2C411.8,6.1,411.8,6.3,411.7,6.4"/>
			<path fill-rule="evenodd" clip-rule="evenodd" fill="#FFFFFF" d="M418.8,9.9L418.8,9.9c0.2,0.2,0.1,0.8,0.6,0.5
				c0.3-0.1,0.1-0.5,0-0.6C419.1,9.7,418.8,9.7,418.8,9.9"/>
			<path fill-rule="evenodd" clip-rule="evenodd" fill="#231F20" d="M400,7.8c-0.1,0.1-0.1,0.3,0.1,0.3c0.3-0.2,0.8-0.1,1.1-0.1
				c0.2,0.1,0.7,0.1,0.8,0.4c0.6-0.3,0.7,0.7,1.2,0.4c0.2-0.5-0.5-0.5-0.5-0.9c-0.5,0.1-0.7-0.5-1.1-0.4c-0.2-0.4-0.6,0.1-0.9-0.2
				L400,7.8z"/>
			<path fill-rule="evenodd" clip-rule="evenodd" fill="#231F20" d="M399.1,8.1l0,0.3c0.3,0.2,0.5,0.1,0.7-0.2
				C399.9,7.9,399.2,7.8,399.1,8.1"/>
			<path fill-rule="evenodd" clip-rule="evenodd" fill="#231F20" d="M406.6,12.3c-0.1-0.6-0.7-1.1-0.7-1.7c-0.9-0.4-1-1.6-2-1.8
				l-0.4,0c-0.3,0.5,0.3,0.5,0.5,0.8c0.1,0.5,0.7,0.4,0.7,0.9c0.8,0.9,1.4,2,1.9,3.1l0.4,0.3c-0.1,0.1-0.2,0.2-0.2,0.4
				c0.5,0.7,0.4,1.5,0.7,2.2c0.1,0,0.2,0.1,0.2,0.2c-0.4,0.2-0.1,0.6-0.2,1c0.2,0.2,0,0.8,0.5,0.7c0.3-0.4,0.1-0.9,0.2-1.4l-0.4-0.4
				c0.2,0,0.2-0.4,0.2-0.6c-0.3-0.5-0.2-1.1-0.3-1.6c-0.2-0.4-0.1-0.9-0.5-1.2L406.6,12.3z"/>
			<path fill-rule="evenodd" clip-rule="evenodd" fill="#231F20" d="M398.4,8.5c-0.1,0.2,0,0.4,0.1,0.6c0.3,0,0.4-0.4,0.5-0.6
				C398.8,8.4,398.5,8.3,398.4,8.5"/>
			<path fill-rule="evenodd" clip-rule="evenodd" fill="#231F20" d="M396.8,12.1c0.1,0.4-0.1,1.1,0.4,1.3c-0.2,0.5-0.5,1.2-0.3,1.7
				c0.2,0.3-0.2,0.8,0.1,1c-0.5,0.7,0.6,1,0.2,1.7c0.1,0.2,0.1,0.5,0.4,0.6c0.2,0.1,0.4,0,0.5-0.1c0.1-0.7-0.6-1.1-0.2-1.7
				c-0.5-0.5-0.3-1.2-0.4-1.7c0.3-0.5-0.4-0.9,0-1.4c-0.4-0.2,0-0.5-0.2-0.8c0.2-1,0.2-1.9,0.7-2.8c0.2-0.1,0.4-0.3,0.2-0.5
				c-0.9-0.2-0.8,0.8-1,1.3c0,0.2-0.1,0.5-0.3,0.5L396.8,12.1z"/>
			<path fill-rule="evenodd" clip-rule="evenodd" fill="#231F20" d="M401.8,11.7c-0.2,0.2-0.7,0-0.7,0.5c-0.8,0.2-0.7,1.1-0.7,1.7
				c0,0.2,0.2,0.4,0.4,0.3c0.2-0.4-0.1-0.9,0.3-1.2c0.2-0.4,0.7-0.6,1.2-0.8c0.2,0.3,0.6,0.1,0.8,0.4c0.6,0,1.1,0.6,1.4,1
				c0.1-0.2,0.3-0.4,0.2-0.6C403.8,12.3,402.9,11.5,401.8,11.7"/>
			<path fill-rule="evenodd" clip-rule="evenodd" fill="#231F20" d="M404.5,13.8c0,0.3,0.5,0.5,0.3,0.9c0.3,0.4,0.4,0.9,0.3,1.3
				l0.2,0.3c0.1-0.3,0.5-0.4,0.4-0.8c-0.3-0.2-0.2-0.5-0.2-0.8c-0.3-0.3-0.1-1.2-0.9-1.1L404.5,13.8z"/>
			<path fill-rule="evenodd" clip-rule="evenodd" fill="#231F20" d="M402.5,14.8c-0.1,0.2,0,0.4,0.2,0.6c0.2,0,0.4,0,0.6,0
				c0.3,0.3-0.1,0.7-0.1,1c-0.6,0.1-1,0.1-1.4-0.4c-0.4,0-0.4-0.5-0.7-0.6c-0.3-0.2,0.1-0.8-0.4-0.7c-0.2,0.8,0.2,1.6,0.9,2.1
				c0.3,0,0.6,0.7,1,0.2c0.2,0.1,0.3,0.2,0.4,0.2c0.2-0.5,1.2-0.5,0.8-1.2c0.2-0.3-0.2-0.6-0.2-0.9
				C403.2,14.6,402.8,14.4,402.5,14.8"/>
			<path fill-rule="evenodd" clip-rule="evenodd" fill="#231F20" d="M418.7,17.4c-0.1,0.1-0.3,0.1-0.5,0.1c-0.3,0.3-1-0.1-1,0.5
				c0.8,0,1.5,0.1,2.2,0.4c0.4-0.1,0.8,0.2,1.2,0c0.2-0.8-0.6-0.5-0.9-1C419.3,17.2,419.1,17.6,418.7,17.4"/>
			<path fill-rule="evenodd" clip-rule="evenodd" fill="#231F20" d="M420.9,18.2c-0.1,0.4,0.5,0.4,0.8,0.7c0.6,0.2,1.2,0.6,1.2,1.3
				c0,0.8,0,1.7-0.7,2.1c0.3,0.6-1,0.8-0.1,1.1c0.9-0.8,1.7-1.8,1.6-3.1c-0.1-0.1-0.1-0.4-0.1-0.6c-0.5-0.3-0.8-1-1.4-1.1
				C421.9,18.3,421.3,18.2,420.9,18.2"/>
			<path fill-rule="evenodd" clip-rule="evenodd" fill="#231F20" d="M416.4,17.8c0,0.1,0,0.2,0.1,0.2c0.2,0.1,0.5-0.1,0.4-0.3
				C416.8,17.5,416.5,17.6,416.4,17.8"/>
			<path fill-rule="evenodd" clip-rule="evenodd" fill="#231F20" d="M410.6,16.9c-0.3,0.4,0.2,0.6,0.4,0.7c0.2,0.1,0.3-0.2,0.4-0.2
				c0.1-0.2,0-0.5-0.2-0.6C411,16.6,410.7,16.7,410.6,16.9"/>
			<path fill-rule="evenodd" clip-rule="evenodd" fill="#231F20" d="M415.6,18c0,0.1,0,0.1,0.1,0.2c0.2,0.1,0.3,0,0.4-0.1
				C416.4,17.7,415.6,17.7,415.6,18"/>
			<path fill-rule="evenodd" clip-rule="evenodd" fill="#231F20" d="M412,18.1c0.1,0.2,0.4,0.1,0.6,0.2c0.2-0.2,0.2-0.4,0.1-0.6
				C412.5,17.2,411.7,17.6,412,18.1"/>
			<path fill-rule="evenodd" clip-rule="evenodd" fill="#231F20" d="M405.2,16.7c-0.1,0.2,0.1,0.2,0.2,0.2c0.2,0.1,0.3-0.1,0.4-0.2
				C405.8,16.4,405.2,16.4,405.2,16.7"/>
			<path fill-rule="evenodd" clip-rule="evenodd" fill="#231F20" d="M409.7,18.5c0,0.6,0.2,1.2,0.6,1.5c0.5,0,1.2,0.2,1.6-0.3
				c-0.1-0.2-0.5,0-0.7,0c-0.5,0-0.9-0.1-1.1-0.6C410,18.9,410.1,18.3,409.7,18.5"/>
			<path fill-rule="evenodd" clip-rule="evenodd" fill="#231F20" d="M405.2,17.9c0.2,0.2-0.3,0.5,0,0.7c0.2,0.5-0.2,1,0.1,1.5
				c-0.2,0.3-0.3,0.5-0.1,0.8l0.1,0.1c0.4-0.3,0.5-0.9,0.4-1.4c0.4-0.7-0.1-1.3,0.2-2l-0.3-0.5C405.2,17.3,405.2,17.7,405.2,17.9"/>
			<path fill-rule="evenodd" clip-rule="evenodd" fill="#231F20" d="M416.2,20.4c-0.3-0.2-0.8-0.2-1.1,0c-0.1,0.5-1,0.6-0.7,1.2
				c0.4,0,0.4-0.7,0.9-0.4c0.7-0.6,1.4-0.3,2.2-0.6c0.4,0.2,1.2,0.3,1.3,0.9c0.2-0.1,0.2-0.1,0.3-0.3c-0.1-0.6-0.6-0.8-1.2-1.1
				C417.3,20.3,416.8,20,416.2,20.4"/>
			<path fill-rule="evenodd" clip-rule="evenodd" fill="#231F20" d="M418.4,22.5c-0.7,0.4-1.4,1.1-2.2,0.5c-0.3-0.3,0.3-0.6,0.4-0.8
				c0.3,0.1,0.2-0.5,0.6-0.2c0.1,0.2,0.2,0.4,0.4,0.2c0.2-0.3,0-0.5-0.3-0.6c-0.7-0.2-1.1,0.5-1.4,0.9c-0.2,0.2-0.3,0.5-0.3,0.8
				c0.4,0.3,0.5,0.6,1,0.6c0.7-0.2,1.7-0.1,2-1c0.4,0.1,0.5-0.2,0.7-0.4c0-0.3,0-0.5-0.3-0.7C418.7,21.8,418.5,22.2,418.4,22.5"/>
			<path fill-rule="evenodd" clip-rule="evenodd" fill="#231F20" d="M397.9,18.6c-0.1,0.6,0.5,1.1,0.3,1.7c0.2,0.2,0.7,0.4,0.5,0.8
				c-0.4,0.2-1,0-1.3,0.5c-1-0.8-1.2,0.8-2.2,0.2c-0.2,1.2-1.7,0-1.6,1.2c0.2,0.9,0.7-0.2,1.2,0.1c0-0.2,0.3-0.3,0.4-0.4
				c0.7,0.2,1-0.8,1.7-0.4c0.5-0.4,1.1-0.1,1.7-0.4c0.4,0,0.9,0.4,1.2-0.1c0.5-0.7-0.8-0.6-0.4-1.3c-0.6-0.2-0.3-1-0.9-1.2
				c0.1-0.3,0.1-0.5-0.2-0.7C398.1,18.5,398,18.5,397.9,18.6"/>
			<path fill-rule="evenodd" clip-rule="evenodd" fill="#231F20" d="M412.9,22c0.2,0.6-0.8,0.6-0.4,1.3c0.1,0.1,0,0.3,0.1,0.3l0.1,0
				c0.1-0.7,0.6-1.2,1.2-1.6c0.1-0.2,0.3-0.3,0.2-0.5c-0.1-0.1-0.3-0.1-0.4-0.1C413.6,21.7,413.1,21.8,412.9,22"/>
			<path fill-rule="evenodd" clip-rule="evenodd" fill="#231F20" d="M405,21.4c0,0.2,0,0.3,0.1,0.4c0.2,0.1,0.2-0.2,0.4-0.3
				C405.4,21.2,405.2,21.2,405,21.4"/>
			<path fill-rule="evenodd" clip-rule="evenodd" fill="#231F20" d="M404.9,22.3c0,0.1,0,0.2,0.1,0.3c0.1,0.1,0.2-0.1,0.3-0.1
				C405.6,22.1,405,22,404.9,22.3"/>
			<path fill-rule="evenodd" clip-rule="evenodd" fill="#231F20" d="M391,24.4c-0.1,0.4,0.1,0.6,0.3,0.9c0.3-0.1,0.4-0.4,0.5-0.6
				c0.5-0.3,1-0.7,1.4-0.9c0.1-0.2,0.3-0.3,0-0.5C392.3,23.2,391.8,24.1,391,24.4"/>
			<path fill-rule="evenodd" clip-rule="evenodd" fill="#231F20" d="M397.8,25.1c-0.4-0.1-0.7,0.1-0.9,0.4c0,0.1,0,0.2,0.1,0.2
				c0.5-0.1,1.3-0.4,1.8-0.2c0.2,0,0.6-0.1,0.8,0c0.1-0.2-0.2-0.3-0.3-0.4C398.6,25.4,398.3,24.6,397.8,25.1"/>
			<path fill-rule="evenodd" clip-rule="evenodd" fill="#231F20" d="M400.2,25.5c0.1,0.4,0.7,0.3,1,0.7c0.1,0.2,0.3,0.4,0.5,0.3
				c0.1-0.5-0.3-0.7-0.6-1.1C400.8,25.4,400.5,25.4,400.2,25.5"/>
			<path fill-rule="evenodd" clip-rule="evenodd" fill="#231F20" d="M399.7,25.4l0,0.1l0.4,0.1c0-0.1,0.1-0.3-0.1-0.3
				C399.8,25.2,399.8,25.3,399.7,25.4"/>
			<path fill-rule="evenodd" clip-rule="evenodd" fill="#231F20" d="M405.8,27.3c0.1,0.5,0.6,0.5,1,0.6c0.5-0.2,0.6,0.9,0.9,0.2
				c0-0.8-1.2-0.4-1.6-1C406,27.1,405.9,27.1,405.8,27.3"/>
			<path fill-rule="evenodd" clip-rule="evenodd" fill="#231F20" d="M395.4,25.8c-0.1,0.7-1.3,1-0.8,1.8c0.1,0.3-0.5,0.3-0.3,0.7
				c0,0.6,0.7,0.7,0.8,1.2l1.1,0.5c0.5-0.2,1.2-0.1,1.5-0.6c-0.1,0,0-0.1,0-0.2c-0.4-0.2-0.4,0.4-0.8,0.3c-0.6-0.2-1.3-0.2-1.7-0.8
				c0-0.3-0.4-0.6-0.2-1l-0.1-0.2c0.4-0.3,0.4-0.9,1-1c0-0.5,0.8-0.1,0.6-0.6C396.1,25.5,395.7,25.9,395.4,25.8"/>
			<path fill-rule="evenodd" clip-rule="evenodd" fill="#231F20" d="M390.2,25.5c-0.2,0.4,0.3,0.5,0.5,0.6c0.2-0.1,0.2-0.4,0.3-0.6
				C390.8,25.2,390.4,25.1,390.2,25.5"/>
			<path fill-rule="evenodd" clip-rule="evenodd" fill="#231F20" d="M406.4,29.5c0,0.5-0.4,0.8-0.7,1.2c-0.9,0-1.3-0.7-1.9-0.9
				c-0.3,0.7,0.7,0.7,0.9,1.2c0.3,0.2,1.2-0.1,0.9,0.5c0.3,0,0.6-0.1,0.7-0.3c-0.2-0.7,0.7-0.7,0.6-1.3c0.5-0.2,0.5-0.7,0.5-1.2
				c-0.1-0.2-0.2-0.2-0.4-0.1C406.9,28.9,406.6,29.2,406.4,29.5"/>
			<path fill-rule="evenodd" clip-rule="evenodd" fill="#231F20" d="M389.4,26.7c0,1.2-1,3,0.4,3.9c0.3-0.1,0.1-0.3,0.1-0.5
				c-0.2-0.1,0.1-0.3-0.1-0.5c-0.2-0.6-0.1-1.1-0.1-1.7c0.5-0.2-0.1-0.9,0.5-1c0.1-0.2,0.2-0.5-0.1-0.6
				C389.9,26,389.7,26.5,389.4,26.7"/>
			<path fill-rule="evenodd" clip-rule="evenodd" fill="#231F20" d="M396.6,28c0,0.1-0.1,0.3,0.1,0.4c0.5,0.3,0.4-0.9,0.9-0.2
				c0.3,0.2,0.1,0.5,0.2,0.7l0.2,0c0.2-0.3,0.1-0.8-0.3-1.1C397.3,27.9,396.9,27.5,396.6,28"/>
			<path fill-rule="evenodd" clip-rule="evenodd" fill="#231F20" d="M408.1,30.5c0,0.1,0,0.1,0.1,0.1c0.1,0,0.2,0.1,0.2-0.1
				c0-0.1,0-0.2-0.1-0.2C408.2,30.4,408.2,30.4,408.1,30.5"/>
			<path fill-rule="evenodd" clip-rule="evenodd" fill="#231F20" d="M407.7,30.8c0,0.1-0.1,0.2,0,0.2l0.2,0l0.1-0.4
				C407.9,30.7,407.7,30.7,407.7,30.8"/>
			<path fill-rule="evenodd" clip-rule="evenodd" fill="#231F20" d="M408.9,32c0,0.3-0.1,0.5-0.4,0.5c-0.1,0.8-0.5,1.7,0.3,2.2
				c0.1,0.2,0.5,0.2,0.7,0.2c0.3-0.1,0.3-0.3,0.3-0.6c-0.3-0.3-0.8,0.3-1-0.2c-0.1-0.6,0-1.3,0.4-1.8c0.2-0.2,0.5-0.2,0.8-0.1
				c0.1,0.6,0.9,0.7,0.8,1.3c0.3,0.1,0.2-0.3,0.4-0.4c-0.4-0.5-0.6-1.9-1.6-1.5C409.4,31.8,409.1,31.8,408.9,32"/>
			<path fill-rule="evenodd" clip-rule="evenodd" fill="#231F20" d="M406.8,32.3c-0.5,0.2,0.2,0.7-0.3,0.9c0,0.5-0.5,1.3,0.3,1.6
				c0-1,0.3-2.1,0.6-3c0.2-0.1,0.2-0.3,0.2-0.4C407.2,31.4,407,32,406.8,32.3"/>
			<path fill-rule="evenodd" clip-rule="evenodd" fill="#231F20" d="M405.3,31.7c-0.1,0.1,0,0.2,0.1,0.3c0.2,0.1,0.3-0.1,0.3-0.2
				C405.8,31.5,405.3,31.4,405.3,31.7"/>
			<path fill-rule="evenodd" clip-rule="evenodd" fill="#231F20" d="M405.1,32.3c-0.1,0.2,0,0.4,0.2,0.3c0.1-0.1,0.3-0.3,0.1-0.4
				C405.3,32.2,405.1,32.2,405.1,32.3"/>
			<path fill-rule="evenodd" clip-rule="evenodd" fill="#231F20" d="M410.9,33.8c0.2,0.4,0,0.9,0.3,1.3c-0.1,0.4-0.3,0.8-0.1,1.2
				c0.2,0.1,0.3-0.1,0.4-0.2c0.5-0.8-0.4-1.5-0.2-2.4C411.3,33.6,410.9,33.5,410.9,33.8"/>
			<path fill-rule="evenodd" clip-rule="evenodd" fill="#231F20" d="M402.3,32.5c0,0.1,0,0.2,0.1,0.2l0.2,0
				C402.8,32.6,402.5,32.3,402.3,32.5"/>
			<path fill-rule="evenodd" clip-rule="evenodd" fill="#231F20" d="M406.5,35.2c0.3,0.4-0.5,0.9,0.2,1.2c0,0.6,0.1,1.2,0.6,1.5
				c0.2,0.2,0.4,0,0.6,0c-0.1-0.6-0.6-1.1-0.8-1.8c-0.3-0.3-0.1-0.8-0.2-1.2C406.7,35,406.5,35,406.5,35.2"/>
			<path fill-rule="evenodd" clip-rule="evenodd" fill="#231F20" d="M410.7,36.9l0.4,0.4c0.1-0.1,0.2-0.2,0.3-0.3
				C411.3,36.8,410.8,36.4,410.7,36.9"/>
			<path fill-rule="evenodd" clip-rule="evenodd" fill="#231F20" d="M409.5,38.5c-0.5,0.2-0.9-0.3-1.4-0.5c-0.4,0.4,0.1,0.6,0.3,0.9
				c0.4-0.2,0.6,0.3,1.1,0.2c0.3,0,0.5-0.2,0.7-0.5c0.5,0.1,0.3-0.5,0.7-0.7l-0.2-0.7C410.4,37.7,410.2,38.4,409.5,38.5"/>
		</g>
	</g>
	<g>
		<path fill="#001F5B" d="M244.5,120.8c0-1.5-0.8-2.2-2.4-2.2c-0.2,0-0.5,0-0.8,0.1c-1.8,0.3-3.2,0.6-4.2,1.1
			c0.3,1.2,0.8,2.3,1.4,3.5c0.9,1.5,1.8,2.3,2.7,2.3c0.9,0,1.6-0.6,2.3-1.8C244.2,122.7,244.5,121.7,244.5,120.8 M242.2,116.4
			c1.5,0,2.7,0.5,3.4,1.3c0.7,0.7,1,1.7,1,2.9c0,1.6-0.5,3.2-1.6,4.6c-1.1,1.5-2.4,2.2-3.8,2.2c-0.4,0-0.7-0.1-1.1-0.2
			c-0.8-0.3-1.5-1.2-2.4-2.8c-0.9-1.9-1.6-3-2-3.3c-0.1,0.4-0.3,1.9-0.7,4.6c-0.2,1.8-0.5,3.3-0.9,4.6c-0.2,0-0.4-0.1-0.5-0.1
			c0,0-0.1-0.2-0.2-0.4c-0.1-0.3-0.3-0.8-0.5-1.5c0,0.1,0,0-0.1-0.2v-0.3c0,0,0-0.1,0.1-0.1c-0.1-0.2-0.1-0.2-0.1-0.2
			c0.1-0.7,0.1-1.8,0.3-3.4c0.1-1.8,0.3-3,0.4-3.8c0.3-1.8,0.7-2.7,1.2-2.8c0.2,0,0.5,0,0.7,0.1c0.3,0.1,0.5,0.2,0.7,0.2
			c0.1,0,0.2,0,0.3,0c0.2-0.1,0.4-0.3,0.7-0.5C239.2,116.7,240.8,116.4,242.2,116.4"/>
		<path fill="#001F5B" d="M251.9,115.1c0,0.2,0,0.5,0,0.9c0,1.2-0.1,2.5-0.4,3.7c-0.3,1.5-0.7,2.3-1.1,2.3c-0.2,0-0.3,0-0.5-0.1
			c-0.1-0.1-0.1-0.1-0.1-0.2c0,0,0.1,0,0.1-0.2c0-0.1,0-0.3,0-0.5c0-0.1,0-0.2,0-0.3c0-0.7-0.1-2-0.3-3.8c0-0.1-0.1-0.3-0.2-0.8
			c-0.1-0.4-0.2-0.7-0.2-1c0-0.2,0-0.3,0.1-0.5c0-0.1,0.2-0.3,0.3-0.5c0.2-0.2,0.4-0.3,0.6-0.3c0.3,0,0.7,0.1,1.1,0.4
			C251.6,114.5,251.8,114.8,251.9,115.1"/>
		<path fill="#001F5B" d="M258.1,115.1c0,0.2,0,0.5,0,0.9c0,1.2-0.1,2.5-0.4,3.7c-0.3,1.5-0.7,2.3-1.1,2.3c-0.2,0-0.3,0-0.5-0.1
			c-0.1-0.1-0.1-0.1-0.1-0.2c0,0,0.1,0,0.1-0.2c0-0.1,0-0.3,0-0.5c0-0.1,0-0.2,0-0.3c0-0.7-0.1-2-0.3-3.8c0-0.1-0.1-0.3-0.2-0.8
			c-0.1-0.4-0.2-0.7-0.2-1c0-0.2,0-0.3,0.1-0.5c0-0.1,0.2-0.3,0.3-0.5c0.2-0.2,0.4-0.3,0.6-0.3c0.3,0,0.7,0.1,1.1,0.4
			S258.1,114.8,258.1,115.1"/>
		<path fill="#001F5B" d="M270.5,128.3c-0.1,0.2-0.2,0.6-0.4,1.1c-0.2,0-0.4-0.1-0.8-0.2c0-0.2,0-0.3,0.1-0.3
			c0.9-3.9,1.3-6.6,1.3-8.4c0-1.7-0.3-2.8-1-3.5c-0.3-0.3-0.8-0.4-1.4-0.4c-0.4,0-0.8,0.1-1.3,0.2c-0.5,0.2-1,0.4-1.3,0.7
			c-0.3,0.3-0.7,0.6-1,0.9c-0.2,0-0.4,0.2-0.7,0.4c-0.2,0.3-0.3,0.7-0.3,1.2c-0.1,0.9-0.1,1.4-0.1,1.4c-0.2,1-0.5,2.4-0.9,4.2
			c0,0.8-0.2,2.1-0.6,3.9c-0.4-0.1-0.5-0.2-0.6-0.2c0-0.2-0.1-0.4-0.1-0.7c-0.1-0.3-0.3-0.8-0.5-1.4c0-0.2-0.1-0.5-0.1-0.7
			c0-0.4,0-0.8,0.1-1.4c0.1-0.7,0.2-1.1,0.2-1.2c0.1-0.9,0.2-2.4,0.4-4.4c0-0.2,0-0.9,0-2.3c0-0.9,0.1-1.6,0.4-2.1
			c0.4,0,0.8,0.1,1.2,0.3c0.5,0.2,0.8,0.2,1,0.2c0.3,0,0.9-0.3,1.7-0.7c0.7-0.4,1.4-0.6,1.9-0.5c3,0.1,4.6,2,4.6,5.7
			c0,1.4-0.2,2.9-0.7,4.6C271.5,126,271.1,127.2,270.5,128.3"/>
		<path fill="#001F5B" d="M285.6,127.2c-0.1,0.9-1,1.4-2.5,1.6c-0.8,0.1-1.6,0.2-2.4,0.4c-1,0.2-1.8,0.2-2.4,0.2
			c-1.1,0-2-0.2-2.6-0.6c-0.5-0.3-0.9-0.9-1.1-1.9c0.6-0.7,1.5-1.5,2.8-2.6c1.4-0.8,2.7-1.6,4.1-2.4c1.8-1.1,3-2.1,3.3-2.8
			c-0.3-0.2-0.9-0.5-1.7-0.7c-1-0.2-2-0.4-2.9-0.4c-0.8,0-1.8,0.1-3.2,0.3c0,0,0,0-0.2,0.1c-0.1,0-0.3,0-0.3,0
			c-0.4-0.7-0.7-1.3-0.7-1.7c0-0.5,0.3-0.8,0.8-0.9c0.2,0,0.4-0.1,0.5-0.1c0.2,0,0.5,0,0.8,0.1c0.4,0.1,0.7,0.1,1,0.1
			c2.2,0,4,0.2,5.5,0.7c1.7,0.6,2.6,1.4,2.6,2.4c0,0.9-0.8,2-2.5,3.2c-0.6,0.4-1.7,1.1-3.2,2c-1.4,0.8-2.4,1.5-3.2,2.1
			c-0.2,0.2-0.5,0.5-0.7,0.9c1.4,0.2,2.5,0.3,3.2,0.3c0.2,0,0.8-0.1,1.8-0.2c0.9-0.1,1.5-0.2,2-0.2
			C284.9,127.1,285.3,127.1,285.6,127.2"/>
		<path fill="#001F5B" d="M313.1,128.1l-0.3,0.1c-0.5,0-0.8,0-1-0.2c-0.7-0.5-1.4-1.4-2.4-2.8c-0.8-1.1-1.4-2.2-1.9-3.2
			c-0.2-0.6-0.5-1.4-1-2.6c-0.2-0.3-0.6-0.8-1-1.5h-0.4c-0.1,0.3-0.2,0.9-0.4,1.7c-0.7,2.8-1.8,5.3-3.3,7.5
			c-1.7,2.6-3.7,4.2-5.8,4.9c-0.5,0.1-0.9,0.2-1.3,0.2c-1.1,0-1.9-0.4-2.4-1.1c0.2-0.1,0.6-0.1,1.3-0.2c0.7,0,1.2-0.1,1.5-0.3
			c1.5-0.7,2.9-1.9,4.4-3.8c1.4-1.7,2.4-3.5,2.9-5.1c0.3-1.1,0.6-2.8,1.1-5c0.1-0.5,0.2-1.1,0.4-1.6c0.2-0.6,0.5-0.9,1-1
			c0.3,0,0.5,0,0.7,0.1c0.2,0.2,0.4,0.3,0.4,0.3c0.2,0,0.5,0,0.8,0c0.5,0.1,0.8,0.4,1,1c0.1,0.3,0.3,0.8,0.4,1.6
			c0.3,1.4,0.9,2.9,1.9,4.6c0.5,0.9,1.3,2.2,2.6,4.1c0.3,0.5,0.5,0.8,0.6,0.9C313,127.1,313.1,127.5,313.1,128.1"/>
		<path fill="#001F5B" d="M316.7,116c0,0.2,0.1,0.5,0.1,0.7c0,0.2,0,0.6-0.1,1c-0.1,0.4-0.1,0.7-0.1,0.9c0,0.3,0,1.3,0.1,2.8
			c0.1,1.1,0.1,2.1,0.1,2.8c0,2.1-0.2,3.9-0.7,5.5c-0.2-0.1-0.5-0.1-0.7-0.3c0.1-0.4,0.2-1,0.2-1.6c0-0.8-0.1-1.8-0.4-3
			c-0.3-1.5-0.4-2.5-0.4-3c0-0.5,0-1.3-0.1-2.3c0-0.1-0.1-0.6-0.3-1.4c-0.1-0.6-0.2-1.1-0.2-1.5c0-1,0.4-1.5,1.2-1.5
			C316.1,115,316.6,115.3,316.7,116"/>
		<path fill="#001F5B" d="M330.6,127.2c-0.1,0.9-1,1.4-2.5,1.6c-0.8,0.1-1.6,0.2-2.4,0.4c-1,0.2-1.8,0.2-2.4,0.2
			c-1.1,0-2-0.2-2.6-0.6c-0.5-0.3-0.9-0.9-1.1-1.9c0.6-0.7,1.5-1.5,2.8-2.6c1.4-0.8,2.7-1.6,4.1-2.4c1.8-1.1,3-2.1,3.3-2.8
			c-0.3-0.2-0.9-0.5-1.7-0.7c-1-0.2-2-0.4-2.9-0.4c-0.8,0-1.8,0.1-3.2,0.3c0,0,0,0-0.2,0.1c-0.1,0-0.3,0-0.3,0
			c-0.4-0.7-0.7-1.3-0.7-1.7c0-0.5,0.3-0.8,0.8-0.9c0.2,0,0.4-0.1,0.5-0.1c0.2,0,0.5,0,0.8,0.1c0.4,0.1,0.7,0.1,1,0.1
			c2.2,0,4,0.2,5.5,0.7c1.7,0.6,2.6,1.4,2.6,2.4c0,0.9-0.8,2-2.5,3.2c-0.6,0.4-1.7,1.1-3.2,2c-1.4,0.8-2.4,1.5-3.2,2.1
			c-0.2,0.2-0.5,0.5-0.7,0.9c1.4,0.2,2.5,0.3,3.2,0.3c0.2,0,0.8-0.1,1.8-0.2c0.9-0.1,1.5-0.2,2-0.2
			C330,127.1,330.3,127.1,330.6,127.2"/>
		<path fill="#001F5B" d="M337.1,116c0,0.2,0.1,0.5,0.1,0.7c0,0.2,0,0.6-0.1,1c-0.1,0.4-0.1,0.7-0.1,0.9c0,0.3,0,1.3,0.1,2.8
			c0.1,1.1,0.1,2.1,0.1,2.8c0,2.1-0.2,3.9-0.7,5.5c-0.2-0.1-0.5-0.1-0.7-0.3c0.1-0.4,0.2-1,0.2-1.6c0-0.8-0.1-1.8-0.4-3
			c-0.3-1.5-0.4-2.5-0.4-3c0-0.5,0-1.3-0.1-2.3c0-0.1-0.1-0.6-0.3-1.4c-0.1-0.6-0.2-1.1-0.2-1.5c0-1,0.4-1.5,1.2-1.5
			C336.5,115,336.9,115.3,337.1,116"/>
		<path fill="#001F5B" d="M353.5,119.4c0,0.1,0,0.2,0,0.4c0,0.2,0,0.6-0.1,1.2c-0.1,0.6-0.1,1-0.1,1.3c0,0.3,0,0.5,0,0.7
			c-0.1,0.4-0.4,1.3-1.1,2.8c-1,2.1-2.2,3.5-3.6,4c-0.3,0.1-0.9,0.2-1.8,0.2c-0.3,0-0.4,0-0.3,0.1c-1-0.1-1.7-0.3-2.1-0.5
			c-1.2-0.7-2.2-2-3-3.9c-0.8-1.9-1.2-3.8-1.2-5.8c0-0.8,0.1-1.5,0.2-2.1c0.2-1.1,1-2.2,2.3-3.3c0.8-0.6,1.5-0.9,2.1-0.9
			c0.4,0,0.9,0.2,1.6,0.7c0.1,0,0.3,0,0.5,0.1c0.4,0.2,0.8,0.7,1.1,1.4c0.3,0.6,0.5,1.2,0.6,1.8c0.1,0.4,0,0.9-0.2,1.5
			c-0.2,0.5-0.4,1-0.5,1.4c-0.6,1.8-1.1,3-1.4,3.7c-0.7,1.3-1.5,2.2-2.6,2.7c0.3-0.9,0.7-2,1.4-3.5c0.7-1.5,1.1-2.6,1.4-3.4
			c0-0.1,0-0.3,0-0.4c0-0.2,0.1-0.4,0.1-0.7c0-0.9-0.2-1.6-0.6-2.3c-0.4-0.7-0.9-1-1.5-1c-0.4,0-0.8,0.1-1.3,0.4
			c-1.2,0.8-1.8,2.3-1.8,4.4c0,1.1,0.1,2.2,0.4,3.3c0,0.4,0.1,0.9,0.3,1.5c0.7,1.2,1.5,2.2,2.6,2.9c0.2,0.1,0.4,0.2,0.6,0.2
			c0.2,0,0.4,0,0.6,0c0.2,0,0.3,0,0.5,0c1.2,0,2.2-0.6,3.2-1.7c0.9-1,1.4-2.2,1.7-3.5c0-0.2,0-0.7-0.1-1.5c-0.1-1-0.1-1.6-0.1-1.9
			c0-0.4,0-0.6,0.1-0.7c0.2-0.1,0.5-0.2,0.8-0.3c0,0,0,0,0.1,0c0.1,0,0.2,0,0.2,0c0.1,0,0.3,0.1,0.6,0.4S353.4,119.3,353.5,119.4"/>
		<path fill="#001F5B" d="M365,128.3c-0.1,0.2-0.2,0.6-0.4,1.1c-0.2,0-0.4-0.1-0.8-0.2c0-0.2,0-0.3,0.1-0.3c0.9-3.9,1.3-6.6,1.3-8.4
			c0-1.7-0.3-2.8-1-3.5c-0.3-0.3-0.8-0.4-1.4-0.4c-0.4,0-0.8,0.1-1.3,0.2c-0.5,0.2-1,0.4-1.3,0.7c-0.3,0.3-0.7,0.6-1,0.9
			c-0.2,0-0.4,0.2-0.7,0.4c-0.2,0.3-0.3,0.7-0.3,1.2c-0.1,0.9-0.1,1.4-0.1,1.4c-0.2,1-0.5,2.4-0.9,4.2c0,0.8-0.2,2.1-0.6,3.9
			c-0.4-0.1-0.5-0.2-0.6-0.2c0-0.2-0.1-0.4-0.1-0.7c-0.1-0.3-0.3-0.8-0.5-1.4c0-0.2-0.1-0.5-0.1-0.7c0-0.4,0-0.8,0.1-1.4
			c0.1-0.7,0.2-1.1,0.2-1.2c0.1-0.9,0.2-2.4,0.4-4.4c0-0.2,0-0.9,0-2.3c0-0.9,0.1-1.6,0.4-2.1c0.4,0,0.8,0.1,1.2,0.3
			c0.5,0.2,0.8,0.2,1,0.2c0.3,0,0.9-0.3,1.7-0.7c0.7-0.4,1.4-0.6,1.9-0.5c3,0.1,4.6,2,4.6,5.7c0,1.4-0.2,2.9-0.7,4.6
			C366,126,365.6,127.2,365,128.3"/>
		<path fill="#001F5B" d="M381.1,115.1c0,0.2,0,0.5,0,0.9c0,1.2-0.1,2.5-0.4,3.7c-0.3,1.5-0.7,2.3-1.1,2.3c-0.2,0-0.3,0-0.5-0.1
			c-0.1-0.1-0.1-0.1-0.1-0.2c0,0,0.1,0,0.1-0.2c0-0.1,0-0.3,0-0.5c0-0.1,0-0.2,0-0.3c0-0.7-0.1-2-0.3-3.8c0-0.1-0.1-0.3-0.2-0.8
			c-0.1-0.4-0.2-0.7-0.2-1c0-0.2,0-0.3,0.1-0.5c0-0.1,0.2-0.3,0.3-0.5c0.2-0.2,0.4-0.3,0.6-0.3c0.3,0,0.7,0.1,1.1,0.4
			C380.8,114.5,381,114.8,381.1,115.1"/>
		<path fill="#001F5B" d="M394.2,123.8c0.7-1,1.1-1.8,1.1-2.5c0-1.2-1.1-2-3.3-2.5c-1.1-0.2-1.7-0.3-2-0.3c-0.3,0-0.8,0.2-1.4,0.5
			c-0.6,0.3-1.1,0.4-1.3,0.4c-0.3,0-0.7-0.2-1-0.5c-0.3-0.3-0.5-0.6-0.5-1c0-0.8,1.3-1.3,4-1.6c0.2,0,0.4,0,0.7,0c1,0,2.2,0.3,3.6,1
			c2,1,3.1,2.3,3.1,3.9c0,1.9-1.1,3.8-3.4,5.5c-2.3,1.8-4.6,2.7-7,2.7c-1,0-1.8-0.2-2.6-0.6c-0.5-0.3-0.9-0.7-1-1.4
			c0.7,0.2,1.5,0.4,2.3,0.4c1.7,0,3.4-0.4,5.2-1.3C392.3,125.6,393.5,124.8,394.2,123.8"/>
		<path fill="#001F5B" d="M402.5,120.9c0.4,0.3,0.6,0.7,0.6,1c0,0.2-0.1,0.6-0.4,1c-0.3,0.5-0.5,0.9-0.6,1.1
			c-0.1,0.3-0.2,0.7-0.3,1.3c-0.1,0.6-0.2,1-0.3,1.3c-0.1,0.2-0.8,1.2-2.1,3c-0.2-0.1-0.4-0.3-0.6-0.6c-0.1-0.4,0.1-1.3,0.6-2.7
			c0.5-1.6,0.8-2.6,0.8-2.9c0-0.4,0-1.1,0.1-2c0.1-0.6,0.4-0.9,0.8-1c0.1,0,0.3-0.1,0.4-0.1c0.2,0,0.4,0.1,0.5,0.2
			C402.3,120.7,402.4,120.8,402.5,120.9 M408.9,117.4c0.9,1.1,1.3,2.3,1.3,3.6c0,1.3-0.5,2.8-1.4,4.4c-0.9,1.3-1.7,2.6-2.6,3.9h-0.6
			c0.1-0.1,0.1-0.2-0.1-0.4l1.2-2.5c0.1-0.1,0.4-1.1,0.9-2.7c0.2-0.3,0.4-0.7,0.7-1.3c0.1-0.3,0.1-0.7,0.1-1c0-1.1-0.3-1.9-1-2.5
			c-0.7-0.6-1.6-0.9-2.7-0.9c-0.4,0-1,0.1-2.1,0.2c-0.9,0.1-1.6,0.2-2.2,0.1c-0.2-0.5-0.4-0.9-0.4-1.3c0-0.5,0.4-0.9,1.1-1
			c0.1,0,0.9-0.1,2.4-0.2c0.4,0,0.7,0,1,0C406.6,115.7,408,116.3,408.9,117.4"/>
		<path fill="#001F5B" d="M433.8,120.8c0-1.5-0.8-2.2-2.4-2.2c-0.2,0-0.5,0-0.8,0.1c-1.8,0.3-3.2,0.6-4.2,1.1
			c0.3,1.2,0.8,2.3,1.4,3.5c0.9,1.5,1.8,2.3,2.7,2.3c0.9,0,1.6-0.6,2.3-1.8C433.5,122.7,433.8,121.7,433.8,120.8 M431.4,116.4
			c1.5,0,2.7,0.5,3.4,1.3c0.7,0.7,1,1.7,1,2.9c0,1.6-0.5,3.2-1.6,4.6c-1.1,1.5-2.4,2.2-3.8,2.2c-0.4,0-0.7-0.1-1.1-0.2
			c-0.8-0.3-1.5-1.2-2.4-2.8c-0.9-1.9-1.6-3-2-3.3c-0.1,0.4-0.3,1.9-0.7,4.6c-0.2,1.8-0.5,3.3-0.9,4.6c-0.2,0-0.4-0.1-0.5-0.1
			c0,0-0.1-0.2-0.2-0.4c-0.1-0.3-0.3-0.8-0.5-1.5c0,0.1,0,0-0.1-0.2v-0.3c0,0,0-0.1,0.1-0.1c-0.1-0.2-0.1-0.2-0.1-0.2
			c0.1-0.7,0.1-1.8,0.3-3.4c0.1-1.8,0.3-3,0.4-3.8c0.3-1.8,0.7-2.7,1.2-2.8c0.2,0,0.5,0,0.7,0.1c0.3,0.1,0.5,0.2,0.7,0.2
			c0.1,0,0.2,0,0.3,0c0.2-0.1,0.4-0.3,0.7-0.5C428.4,116.7,430.1,116.4,431.4,116.4"/>
		<path fill="#001F5B" d="M441.1,115.1c0,0.2,0,0.5,0,0.9c0,1.2-0.1,2.5-0.4,3.7c-0.3,1.5-0.7,2.3-1.1,2.3c-0.2,0-0.3,0-0.5-0.1
			c-0.1-0.1-0.1-0.1-0.1-0.2c0,0,0.1,0,0.1-0.2c0-0.1,0-0.3,0-0.5c0-0.1,0-0.2,0-0.3c0-0.7-0.1-2-0.3-3.8c0-0.1-0.1-0.3-0.2-0.8
			c-0.1-0.4-0.2-0.7-0.2-1c0-0.2,0-0.3,0.1-0.5c0-0.1,0.2-0.3,0.3-0.5c0.2-0.2,0.4-0.3,0.6-0.3c0.3,0,0.7,0.1,1.1,0.4
			S441.1,114.8,441.1,115.1"/>
		<path fill="#001F5B" d="M448.5,114.9c0.1,0.2,0.1,0.4,0.1,0.7c0,0.6-0.1,1.4-0.3,2.5c-0.1,0.6-0.2,1.3-0.3,1.9
			c0,1.1-0.1,2.6-0.4,4.7c-0.5,2.6-1.2,5-2.3,6.9c-1.3,2.4-2.8,4-4.6,4.5c-0.8,0.2-1.5,0.4-2.2,0.4c-0.7,0-1.3-0.1-1.8-0.4
			c-1-0.4-1.7-1.2-2.2-2.2c0.4,0.1,0.9,0.2,1.4,0.4c0.5,0.2,1,0.4,1.2,0.4c0.3,0,0.6,0.1,0.9,0.1c1.5,0,2.8-0.7,4.1-2.1
			c1-1.1,1.7-2.5,2.4-4.1c1.1-2.9,1.6-6,1.6-9.4c0-1.3-0.1-2.5-0.3-3.7c-0.1-0.7,0.1-1.1,0.4-1.4c0.1-0.1,0.3-0.2,0.5-0.4
			c0.2-0.1,0.3-0.1,0.4-0.1c0.1,0,0.2,0.1,0.4,0.2C448.1,114.5,448.5,114.8,448.5,114.9"/>
		<path fill="#001F5B" d="M464.4,119.4c0,0.1,0,0.2,0,0.4c0,0.2,0,0.6-0.1,1.2c-0.1,0.6-0.1,1-0.1,1.3c0,0.3,0,0.5,0,0.7
			c-0.1,0.4-0.4,1.3-1.1,2.8c-1,2.1-2.2,3.5-3.6,4c-0.3,0.1-0.9,0.2-1.8,0.2c-0.3,0-0.4,0-0.3,0.1c-1-0.1-1.7-0.3-2.1-0.5
			c-1.2-0.7-2.2-2-3-3.9c-0.8-1.9-1.2-3.8-1.2-5.8c0-0.8,0.1-1.5,0.2-2.1c0.2-1.1,1-2.2,2.3-3.3c0.8-0.6,1.5-0.9,2.1-0.9
			c0.4,0,0.9,0.2,1.6,0.7c0.1,0,0.3,0,0.5,0.1c0.4,0.2,0.8,0.7,1.1,1.4c0.3,0.6,0.5,1.2,0.6,1.8c0.1,0.4,0,0.9-0.2,1.5
			c-0.2,0.5-0.4,1-0.5,1.4c-0.6,1.8-1.1,3-1.4,3.7c-0.7,1.3-1.5,2.2-2.6,2.7c0.3-0.9,0.7-2,1.4-3.5c0.7-1.5,1.1-2.6,1.4-3.4
			c0-0.1,0-0.3,0-0.4c0-0.2,0.1-0.4,0.1-0.7c0-0.9-0.2-1.6-0.6-2.3c-0.4-0.7-0.9-1-1.5-1c-0.4,0-0.8,0.1-1.3,0.4
			c-1.2,0.8-1.8,2.3-1.8,4.4c0,1.1,0.1,2.2,0.4,3.3c0,0.4,0.1,0.9,0.3,1.5c0.7,1.2,1.5,2.2,2.6,2.9c0.2,0.1,0.4,0.2,0.6,0.2
			c0.2,0,0.4,0,0.6,0c0.2,0,0.3,0,0.5,0c1.2,0,2.2-0.6,3.2-1.7c0.9-1,1.4-2.2,1.7-3.5c0-0.2,0-0.7-0.1-1.5c-0.1-1-0.1-1.6-0.1-1.9
			c0-0.4,0-0.6,0.1-0.7c0.2-0.1,0.5-0.2,0.8-0.3c0,0,0,0,0.1,0c0.1,0,0.2,0,0.2,0c0.1,0,0.3,0.1,0.6,0.4
			C464.3,119.1,464.4,119.3,464.4,119.4"/>
		<path fill="#001F5B" d="M477.6,107.4c0.1,0.2,0,0.3-0.1,0.4c-0.3,0.1-0.7,0.2-1.3,0.2c-0.7,0-1.2,0-1.3,0c-1.6,0.2-2.9,0.7-4,1.5
			c-1.3,0.9-2,2-2.1,3.3c-0.1,1,0,2.1,0.3,3.3c0.2,0.9,0.5,1.8,0.7,2.7c0,0.4,0.1,1.2,0.2,2.2c0.1,0.2,0.3,0.4,0.4,0.7
			c0.4,1.1,0.6,2.2,0.6,3.2c0,0.3,0,0.5-0.1,0.7c0.1,0,0.1,0,0.1,0.1c0,0.1,0,0.1,0.1,0.1c-0.1,0.2-0.1,0.3-0.2,0.6
			c-0.1,0.6-0.3,1.2-0.4,1.8c-0.2,0.7-0.5,1.1-1,1.2c-0.8,0.1-1.2-0.4-1.2-1.5c0-0.3,0-0.5,0.1-0.7c0.3-0.9,0.4-1.8,0.4-2.8
			c0-1.3-0.3-3.2-1-5.8c-0.7-2.6-1-4.4-1-5.5c0-2.3,1-4,2.9-5.2c0.7-0.5,1.3-0.8,1.8-1c0.8-0.4,1.5-0.6,2.1-0.6
			c1.7-0.1,3,0.2,3.8,0.7C477.5,107.2,477.6,107.3,477.6,107.4"/>
	</g>
</g>
<g>
	<path fill="#FFFFFF" d="M527,40c-2,0.4-4.2,1.5-6.1,0.6c-0.4-0.2-0.7-1.2-0.8-1.5c2-1.5,4.9-1.3,7.2-2.1c2.7-0.8,7.9-4.6,9.1-7
		c0.8-1.7-0.2-3.5-1.7-4.3c-3.8-1.9-5.1,0-8.8-0.1c1.7-2.5,5.1-4.2,8.1-4c1.3,0.1,2.6,0.4,3.8,1.1c3.7,1.9,5,5.2,3.1,9
		C538,37.3,532.8,38.9,527,40z M539.8,46.3c-2.5,0.3-5.3,1.3-7.6,0.1c-0.2-0.1-0.4-0.3-0.6-0.4c5.5-1.5,11.4-4,14.1-9.4
		c3.8-7.6-0.7-17.7-8.1-21.4c-1.2-0.6-2.9-1.2-4.2-0.6c-0.1,0-0.4,0.1-0.5,0.3c-0.1,0.2-0.9,0.2-1.1,0.1c-0.1-0.1-1.3-0.8-1.4-1.1
		c-0.6-0.8-0.2-1,0.1-1.9c0.2-0.1,1.2-0.7,1.4-0.9c1.5-1,3.2-1.5,5-1c0.5,0.1,1,0.3,1.5,0.6c2,1,4.6,3.2,6.2,4.9
		c6.9,7.3,8.6,13.1,5.7,23.1c-0.1,0.4-0.2,0.6-0.4,1C548.3,43,543.5,45.8,539.8,46.3z"/>
	<path fill="#FFFFFF" d="M576.9,47c-0.8,1.6-2.5,4.8-3.6,6c-2.1,2-9.6,6.9-12.5,5.5c-0.6-0.3-0.9-0.9-1.5-1.2
		c4.7-4.1,10.4-4,13.6-10.3c2-3.9,1.4-7.1-1.9-9.9c-0.5-0.4-1.1-0.8-1.7-1.1c-1.9-0.9-5.4-1.2-7.4-0.7c-0.2-0.3-0.6-0.3-0.8-0.5
		c-0.4-0.2-0.2-0.6-0.1-0.9c1.4-2.8,4.9-3.3,7.6-2.7c0.9,0.2,1.8,0.3,2.6,0.7c0.4,0.2,0.8,0.6,1.2,0.8c3,2.4,6.1,5.7,6.1,9.6
		c0,0.5-0.1,1.7-0.3,2.1L576.9,47z"/>
	<path fill="#FFFFFF" d="M592.4,62.1c-0.2,0.4-0.2,0.6-0.4,0.9c-0.4,0.8-0.8,1.5-1.2,2.3c-1.2,2.4-2.3,2.3-4.5,3.1
		c-1.7,0.7-6.2,1.8-7.7,1c-0.5-0.2-0.9-0.6-1.3-1l4.5-1.7c2.7-1,5-1.8,6.3-4.5l0.2-0.5c-0.1-0.2-0.3-0.3-0.5-0.4
		c-2.3-1.1-4.6-2.1-6.9-3.2c-0.5-0.2-1-0.4-1.5-0.6c-1-0.5-0.7-2.1-0.3-2.9c1.7-3.4,6.2-0.8,8.5,0.4c2.2,1.1,2.7,1.5,3.8,3.7
		c2.4,0.1,7.2,1.1,8.5-1.4c0.7-1.3-2.5-5.4-3.5-6.3c-0.9-0.7-1.9-1.4-3-1.9c-2-1-3.7-1.8-6-1.8c-1.2-0.1-2.8,0.4-4-0.2
		c-0.6-0.3-0.4-1.2-0.2-1.7c0.8-1.5,3.9-1.8,5.3-1.9c2.3,0.1,3.7,0.5,5.8,1.4c0.4,0.2,0.9,0.4,1.3,0.6c3.5,1.7,7.1,6.2,8.2,10.1
		c0.3,1.2-0.3,2.4-0.8,3.4C602.2,61,594.3,62.8,592.4,62.1z"/>
	<path fill="#FFFFFF" d="M620.8,90.4c-4.1-0.6-13.5-2.8-16.5-5.2c-1.1-0.9-2.2-1.4-3.3-2.3c-2.6-2.2-2-6.4,0.1-8.8
		c3.2-3.9,9.9-1.7,14.2-2.1c-2.1-3-3.1-6.4-3-10.1c0-0.2,0.1-1.5,0.2-1.6c0.2-0.3,0.4-0.7,0.7-1c0.9-1.1,4.4-3,5.7-1.8
		c0.5,0.4,0.7,1.1,0.6,1.8c-1-0.2-1.7,0.8-2.3,1.5c-2.6,3.2,1.5,9.3,4.1,11.4c1.8,1.4,4.5,1.7,6.4,3.1c1,1,1.3,2.2,1.2,3.5
		c-0.9,1.1-1.9,1.2-3.1,0.6c-3-1.3-5-3-8.5-3.4c-3.6-0.3-10.4-1.7-13,1.4c-0.9,1.1-0.1,2.2,0.8,3c2.7,2.2,9.6,4.4,13.2,5.1
		c3.3,0.8,6.3,2.1,9.6,2.9c0.4,0,0.9,0.1,1.2,0.5c0.2,0.2,0.3,0.4,0.1,0.6C627.7,91,622.4,90.7,620.8,90.4z"/>
</g>
<g>
	<path fill="#F1E436" d="M162.9,13.7c1.4-2.6,3.3-4.9,5.5-6.7c1.8,1.3,3.4,3.1,4.6,5c2.4-1.6,4.8-3.2,7.2-4.7
		c0.8,1.9,1.7,3.9,3.5,4.8c1.7,0.8,3.7,0.3,5.5-0.3c2.1-0.6,4.2-1.2,6.3-1.9c-1.4,1.7-1.6,4.3-0.5,6.2c0.2,0.4,0.5,0.7,0.9,0.8
		c0.4,0.1,0.8,0,1.2-0.1c3-0.8,6.4-0.2,8.9,1.6c-1.2,1.8-1.2,4.3-0.1,6.2c1.6,0,2.9,1.4,3.7,2.9c0.8,1.4,1.5,3,3,3.8
		c-0.7,0.9-1.2,1.8-1.7,2.8c-0.2,0.3-0.3,0.7-0.2,1c0.1,0.3,0.5,0.5,0.8,0.7c2,1,4,1.9,6.1,2.9c-1.2,1.1-2,2.6-2.3,4.2
		c-0.1,0.4-0.1,0.8,0,1.1c0.1,0.4,0.4,0.7,0.7,1c1.2,1.4,2.5,2.9,3.7,4.3c-1.4,2-4.4,2.6-5.1,4.9c-0.3,1-0.1,2,0.2,3
		c0.3,1.5,0.7,3,1,4.5c-5.1,1.7-8.2,7.7-6.9,12.8c-1.6,0.8-3.5,1.1-5.3,1c-0.8,2.6-1.8,5.3-2.8,7.8c-1.3-0.5-2.7-1-4-1.6
		c-0.8-0.3-1.7-0.6-2.5-0.4c-0.8,0.2-1.6,1.2-1.2,1.9c1.2,2.5-1.7,5.6-4.3,6.4c-2.7-2-5.9-3.2-9.2-3.6c-1.4,2.3-3.4,4.3-5.7,5.6
		c-1-2.5-3.7-4.4-6.4-4.4c0.2,1.2-0.6,2.3-1.5,3c-1,0.7-2.1,1-3.3,1.3c-0.6-2.3-1.7-4.5-3-6.4c-2.8,1-5.8,1.4-8.7,1.1
		c-0.4-2.8-0.8-5.5-1.2-8.3c-2.1,0.8-4.4,0.9-6.5,0.4c-0.5-0.1-1.1-0.3-1.3-0.8c-0.2-0.4-0.1-0.8,0-1.2c0.5-2,1.1-4.4-0.1-6.1
		c-1.4-2.2-4.8-2.5-6-4.8c-0.7-1.3-0.4-2.9,0.3-4.1c0.7-1.3,1.7-2.3,2.8-3.3c-1.5-0.7-3-1.3-4.1-2.6s-1.6-3.1-0.8-4.5
		c0.8-1.4,2.6-2,3.2-3.5c0.5-1.2,0-2.4-0.4-3.6c-0.7-1.8-1.4-3.7-2.1-5.5c2.3-0.6,4.3-2.2,5.3-4.4c1-2.1,1.1-4.7,0.1-6.9
		c0.6-0.5,1.5-0.6,2.3-0.5s1.7,0.2,2.4-0.1c0.7-0.3,1.2-1.4,0.6-2c0.8-1.8,1.4-3.8,1.9-5.7c-0.3,0.4,0.3,0.8,0.7,0.9
		c1.6,0.4,3.5,0.5,4.7-0.6c1-0.9,1.2-2.3,1.4-3.6c0.2-1.2,0.3-2.4,0.5-3.6C156.9,13,159.9,13.4,162.9,13.7z"/>
	<radialGradient id="SVGID_10_" cx="175.262" cy="48.796" r="34.8946" gradientUnits="userSpaceOnUse">
		<stop  offset="0" style="stop-color:#F3CD0F"/>
		<stop  offset="1" style="stop-color:#F1A52F"/>
	</radialGradient>
	<circle fill="url(#SVGID_10_)" cx="175.3" cy="48.8" r="34.9"/>
	<g>
		
			<ellipse transform="matrix(0.9806 0.1961 -0.1961 0.9806 13.6994 -33.7888)" fill="#FFFFFF" cx="177.5" cy="52.3" rx="3.7" ry="5.6"/>
		<g>
			<defs>
				
					<ellipse id="SVGID_11_" transform="matrix(0.9806 0.1961 -0.1961 0.9806 13.6994 -33.7888)" cx="177.5" cy="52.3" rx="3.7" ry="5.6"/>
			</defs>
			<clipPath id="SVGID_12_">
				<use xlink:href="#SVGID_11_"  overflow="visible"/>
			</clipPath>
			<ellipse clip-path="url(#SVGID_12_)" fill="#BD3231" cx="177.8" cy="57.4" rx="4" ry="6"/>
			<ellipse clip-path="url(#SVGID_12_)" fill="#020202" cx="177.8" cy="57.4" rx="2.6" ry="3.9"/>
		</g>
		<ellipse transform="matrix(0.9521 0.3058 -0.3058 0.9521 24.9743 -51.41)" fill="#FFFFFF" cx="176.6" cy="54" rx="1" ry="1.2"/>
	</g>
	<g>
		
			<ellipse transform="matrix(0.9673 0.2536 -0.2536 0.9673 22.0272 -48.6842)" fill="#FFFFFF" cx="199.9" cy="61.1" rx="3.7" ry="5.6"/>
		<g>
			<defs>
				
					<ellipse id="SVGID_13_" transform="matrix(0.9673 0.2536 -0.2536 0.9673 22.0272 -48.6842)" cx="199.9" cy="61.1" rx="3.7" ry="5.6"/>
			</defs>
			<clipPath id="SVGID_14_">
				<use xlink:href="#SVGID_13_"  overflow="visible"/>
			</clipPath>
			
				<ellipse transform="matrix(0.9983 5.891756e-002 -5.891756e-002 0.9983 4.248 -11.6641)" clip-path="url(#SVGID_14_)" fill="#BD3231" cx="199.9" cy="66.2" rx="4" ry="6"/>
			
				<ellipse transform="matrix(0.9983 5.891756e-002 -5.891756e-002 0.9983 4.248 -11.6641)" clip-path="url(#SVGID_14_)" fill="#020202" cx="199.9" cy="66.2" rx="2.6" ry="3.9"/>
		</g>
		
			<ellipse transform="matrix(0.9324 0.3614 -0.3614 0.9324 36.1293 -67.6322)" fill="#FFFFFF" cx="198.9" cy="62.8" rx="1" ry="1.2"/>
	</g>
	<path fill="none" stroke="#BD3231" stroke-width="2" stroke-linecap="round" stroke-linejoin="round" stroke-miterlimit="10" d="
		M181.3,62.5c0,0-1,5.2,5,6.2c5,0.8,5.4-2.4,5.4-2.4"/>
	<path fill="none" stroke="#BD3231" stroke-width="2" stroke-linecap="round" stroke-linejoin="round" stroke-miterlimit="10" d="
		M171.7,41.4c0,0,2-3.4,5.7-1.9"/>
	<path fill="none" stroke="#BD3231" stroke-width="2" stroke-linecap="round" stroke-linejoin="round" stroke-miterlimit="10" d="
		M202.1,48.2c0,0,2.5-0.5,3.4,2"/>
	<path fill="none" stroke="#BD3231" stroke-width="2" stroke-linecap="round" stroke-linejoin="round" stroke-miterlimit="10" d="
		M159.6,65.6c2,2.1,4.2,2,6.6-0.4"/>
	<radialGradient id="SVGID_15_" cx="159.8802" cy="54.7554" r="6.6817" gradientUnits="userSpaceOnUse">
		<stop  offset="0" style="stop-color:#FFFFFF"/>
		<stop  offset="5.471269e-002" style="stop-color:#FFEDD8"/>
		<stop  offset="0.1338" style="stop-color:#FFD5A7"/>
		<stop  offset="0.2151" style="stop-color:#FFC17D"/>
		<stop  offset="0.297" style="stop-color:#FFB05B"/>
		<stop  offset="0.38" style="stop-color:#FFA340"/>
		<stop  offset="0.4643" style="stop-color:#FF9A2D"/>
		<stop  offset="0.5508" style="stop-color:#FF9522"/>
		<stop  offset="0.6429" style="stop-color:#FF931E"/>
		<stop  offset="1" style="stop-color:#FF931E;stop-opacity:0"/>
	</radialGradient>
	<circle fill="url(#SVGID_15_)" cx="159.9" cy="54.8" r="6.7"/>
	
		<radialGradient id="SVGID_16_" cx="236.1451" cy="547.0247" r="6.6817" gradientTransform="matrix(0.4846 0.6083 -0.7822 0.623 478.0904 -453.4992)" gradientUnits="userSpaceOnUse">
		<stop  offset="0" style="stop-color:#FFFFFF"/>
		<stop  offset="1" style="stop-color:#FFFFFF;stop-opacity:0"/>
	</radialGradient>
	<path fill="url(#SVGID_16_)" d="M167.9,35c-2.9,2.3-6.7,2.3-8.5,0.1c-1.8-2.2-0.9-5.9,2-8.2c2.9-2.3,6.7-2.3,8.5-0.1
		S170.8,32.7,167.9,35z"/>
	<g>
		<defs>
			<circle id="SVGID_17_" cx="175.3" cy="48.8" r="34.9"/>
		</defs>
		<clipPath id="SVGID_18_">
			<use xlink:href="#SVGID_17_"  overflow="visible"/>
		</clipPath>
		
			<path clip-path="url(#SVGID_18_)" fill="none" stroke="#BD3231" stroke-width="2" stroke-linecap="round" stroke-linejoin="round" stroke-miterlimit="10" d="
			M162.3,67.1c0,0-3.3,7.8,1.9,16.1"/>
	</g>
</g>
</svg>
