<?xml version="1.0" encoding="utf-8"?>
<!-- Generator: Adobe Illustrator 18.1.1, SVG Export Plug-In . SVG Version: 6.00 Build 0)  -->
<svg version="1.1" id="Layer_1" xmlns="http://www.w3.org/2000/svg" xmlns:xlink="http://www.w3.org/1999/xlink" x="0px" y="0px"
	 viewBox="0 0 138.1 133.6" enable-background="new 0 0 138.1 133.6" xml:space="preserve">
<linearGradient id="SVGID_1_" gradientUnits="userSpaceOnUse" x1="69.0719" y1="-392.742" x2="69.0719" y2="-267.8588" gradientTransform="matrix(1 0 0 -1 0 -263.4879)">
	<stop  offset="0" style="stop-color:#42803D"/>
	<stop  offset="0.3" style="stop-color:#5BA545"/>
	<stop  offset="0.3773" style="stop-color:#62AF46"/>
	<stop  offset="0.5517" style="stop-color:#6EBD44"/>
	<stop  offset="0.7464" style="stop-color:#79C043"/>
	<stop  offset="1" style="stop-color:#7BC043"/>
</linearGradient>
<path fill="url(#SVGID_1_)" d="M69.1,129.3c-35.6,0-64.6-28-64.6-62.4S33.4,4.4,69.1,4.4s64.6,28,64.6,62.4S104.7,129.3,69.1,129.3z
	"/>
<path fill="#16A61E" d="M69.1,0C30.9,0,0,29.9,0,66.8c0,36.9,30.9,66.8,69.1,66.8s69.1-29.9,69.1-66.8C138.1,29.9,107.2,0,69.1,0
	L69.1,0z"/>
<path fill="#FFFFFF" d="M85.9,104.3c-5.3-0.3-40.8-8.7-55.6-49.3c-3.1-8.5,0.7-22.3,10.8-25.3C51.3,26.5,56.7,40.3,58.1,49l-9,8.7
	c0,0-0.2,5.3,11.9,17.2c12.2,11.8,17.7,11.5,17.7,11.5l10.3-10c6.5,1.3,19.6,9.3,19.6,9.3C107.3,97.8,98.9,105.6,85.9,104.3z"/>
<linearGradient id="SVGID_2_" gradientUnits="userSpaceOnUse" x1="69.0719" y1="-338.4361" x2="69.0719" y2="-268.687" gradientTransform="matrix(1 0 0 -1 0 -263.4879)">
	<stop  offset="0" style="stop-color:#FFFFFF"/>
	<stop  offset="1" style="stop-color:#FFFFFF;stop-opacity:0"/>
</linearGradient>
<path opacity="0.5" fill="url(#SVGID_2_)" enable-background="new    " d="M5.6,62.5c15.3,7.5,38,12.3,63.5,12.3s48.2-4.8,63.5-12.3
	c-2.2-32-29.8-57.3-63.5-57.3S7.8,30.5,5.6,62.5z"/>
</svg>
